<svg width="1200" height="302" viewBox="0 0 1200 302" fill="none" xmlns="http://www.w3.org/2000/svg">
<g clip-path="url(#clip0_3011_13851)">
<g clip-path="url(#clip1_3011_13851)">
<rect width="1200" height="300" transform="translate(0 0.959961)" fill="#420B57"/>
<path opacity="0.11" fill-rule="evenodd" clip-rule="evenodd" d="M885.845 -190.565C890.764 -194.997 900.177 -196.742 911.037 -195.234L1165.57 -159.891C1177.89 -158.18 1190.17 -152.553 1197.43 -145.286L1243.99 -98.7308L1316.63 -26.0886L1363.18 20.4665C1370.45 27.7337 1371.51 35.4399 1365.93 40.4697L1250.63 144.356C1245.71 148.789 1236.29 150.533 1225.43 149.025L970.907 113.682C958.583 111.971 946.307 106.344 939.039 99.0772L892.484 52.5221L819.842 -20.1201L773.287 -66.6752C766.02 -73.9424 764.964 -81.6486 770.546 -86.6784L885.845 -190.565Z" fill="white"/>
<path fill-rule="evenodd" clip-rule="evenodd" d="M-80.2959 158.094C-75.3765 153.661 -65.9633 151.917 -55.1033 153.425L199.425 188.768C211.748 190.479 224.025 196.106 231.292 203.373L277.847 249.928L350.489 322.57L397.044 369.125C404.312 376.392 405.367 384.099 399.785 389.128L284.487 493.015C279.567 497.447 270.154 499.192 259.294 497.684L4.76602 462.341C-7.55724 460.63 -19.834 455.003 -27.1013 447.736L-73.6563 401.181L-146.299 328.539L-192.854 281.984C-200.121 274.716 -201.177 267.01 -195.594 261.98L-80.2959 158.094Z" fill="#A31BCB"/>
<g filter="url(#filter0_d_3011_13851)">
<rect x="241" y="83.2263" width="717.936" height="135.729" rx="21.2076" fill="white" shape-rendering="crispEdges"/>
<rect x="262.208" y="104.434" width="93.3134" height="93.3134" rx="16.9661" fill="url(#paint0_linear_3011_13851)"/>
<path opacity="0.3" d="M324.34 141.345V161.896M319.67 136.674H299.118M319.67 166.566H299.118M294.448 141.345V161.896" stroke="white" stroke-width="3.18114"/>
<circle cx="324.342" cy="136.674" r="4.67072" fill="white" stroke="white" stroke-width="3.18114"/>
<circle cx="294.448" cy="136.674" r="4.67072" fill="white" stroke="white" stroke-width="3.18114"/>
<circle cx="324.342" cy="166.567" r="4.67072" fill="white" stroke="white" stroke-width="3.18114"/>
<circle cx="294.448" cy="166.567" r="4.67072" fill="white" stroke="white" stroke-width="3.18114"/>
<path d="M378.052 168.091L391.184 132.462H397.088L410.118 168.091H404.417L401.363 159.387H386.806L383.752 168.091H378.052ZM388.333 155.112H399.836L394.085 138.875L388.333 155.112ZM413.822 168.091V142.845H418.658L419.116 147.629C419.998 145.967 421.22 144.66 422.78 143.71C424.375 142.726 426.292 142.234 428.532 142.234V147.884H427.056C425.563 147.884 424.223 148.138 423.035 148.647C421.881 149.123 420.948 149.954 420.235 151.141C419.557 152.295 419.218 153.907 419.218 155.977V168.091H413.822ZM443.362 168.701C440.885 168.701 438.663 168.141 436.695 167.022C434.761 165.902 433.234 164.358 432.114 162.39C431.028 160.388 430.485 158.081 430.485 155.468C430.485 152.855 431.028 150.565 432.114 148.597C433.234 146.595 434.761 145.034 436.695 143.914C438.663 142.794 440.885 142.234 443.362 142.234C446.484 142.234 449.097 143.049 451.201 144.677C453.339 146.306 454.713 148.512 455.324 151.294H449.674C449.335 149.903 448.588 148.817 447.434 148.037C446.281 147.256 444.923 146.866 443.362 146.866C442.039 146.866 440.818 147.205 439.698 147.884C438.578 148.529 437.679 149.496 437 150.785C436.322 152.041 435.982 153.602 435.982 155.468C435.982 157.334 436.322 158.912 437 160.201C437.679 161.457 438.578 162.424 439.698 163.103C440.818 163.781 442.039 164.121 443.362 164.121C444.923 164.121 446.281 163.73 447.434 162.95C448.588 162.169 449.335 161.067 449.674 159.641H455.324C454.747 162.356 453.389 164.545 451.252 166.207C449.114 167.87 446.484 168.701 443.362 168.701ZM460.115 168.091V131.444H465.51V146.917C466.358 145.458 467.529 144.321 469.022 143.507C470.549 142.658 472.228 142.234 474.061 142.234C477.081 142.234 479.456 143.184 481.186 145.085C482.917 146.985 483.782 149.818 483.782 153.585V168.091H478.438V154.144C478.438 149.258 476.487 146.815 472.585 146.815C470.549 146.815 468.852 147.528 467.495 148.953C466.171 150.378 465.51 152.414 465.51 155.061V168.091H460.115ZM492.13 138.061C491.112 138.061 490.264 137.755 489.585 137.144C488.94 136.5 488.618 135.702 488.618 134.752C488.618 133.802 488.94 133.022 489.585 132.411C490.264 131.766 491.112 131.444 492.13 131.444C493.148 131.444 493.979 131.766 494.624 132.411C495.303 133.022 495.642 133.802 495.642 134.752C495.642 135.702 495.303 136.5 494.624 137.144C493.979 137.755 493.148 138.061 492.13 138.061ZM489.432 168.091V142.845H494.828V168.091H489.432ZM511.476 168.091C508.999 168.091 507.031 167.497 505.572 166.309C504.113 165.088 503.383 162.933 503.383 159.845V147.375H499.057V142.845H503.383L504.045 136.432H508.779V142.845H515.904V147.375H508.779V159.845C508.779 161.236 509.067 162.203 509.644 162.746C510.255 163.255 511.29 163.51 512.749 163.51H515.65V168.091H511.476ZM531.569 168.701C529.092 168.701 526.887 168.158 524.952 167.073C523.052 165.953 521.559 164.409 520.473 162.441C519.388 160.473 518.845 158.182 518.845 155.57C518.845 152.923 519.371 150.599 520.423 148.597C521.508 146.595 523.001 145.034 524.902 143.914C526.836 142.794 529.075 142.234 531.62 142.234C534.097 142.234 536.252 142.794 538.084 143.914C539.917 145 541.342 146.459 542.36 148.291C543.378 150.124 543.887 152.142 543.887 154.348C543.887 154.687 543.87 155.061 543.836 155.468C543.836 155.841 543.819 156.265 543.785 156.74H524.138C524.308 159.183 525.105 161.05 526.53 162.339C527.989 163.595 529.669 164.222 531.569 164.222C533.096 164.222 534.369 163.883 535.387 163.204C536.438 162.492 537.219 161.542 537.728 160.354H543.123C542.444 162.729 541.087 164.714 539.051 166.309C537.049 167.904 534.555 168.701 531.569 168.701ZM531.569 146.662C529.771 146.662 528.176 147.205 526.785 148.291C525.394 149.343 524.545 150.938 524.24 153.076H538.491C538.39 151.108 537.694 149.547 536.405 148.393C535.115 147.239 533.503 146.662 531.569 146.662ZM560.385 168.701C557.908 168.701 555.686 168.141 553.718 167.022C551.784 165.902 550.257 164.358 549.137 162.39C548.051 160.388 547.508 158.081 547.508 155.468C547.508 152.855 548.051 150.565 549.137 148.597C550.257 146.595 551.784 145.034 553.718 143.914C555.686 142.794 557.908 142.234 560.385 142.234C563.507 142.234 566.12 143.049 568.224 144.677C570.361 146.306 571.736 148.512 572.346 151.294H566.697C566.357 149.903 565.611 148.817 564.457 148.037C563.303 147.256 561.946 146.866 560.385 146.866C559.062 146.866 557.84 147.205 556.721 147.884C555.601 148.529 554.702 149.496 554.023 150.785C553.344 152.041 553.005 153.602 553.005 155.468C553.005 157.334 553.344 158.912 554.023 160.201C554.702 161.457 555.601 162.424 556.721 163.103C557.84 163.781 559.062 164.121 560.385 164.121C561.946 164.121 563.303 163.73 564.457 162.95C565.611 162.169 566.357 161.067 566.697 159.641H572.346C571.77 162.356 570.412 164.545 568.275 166.207C566.137 167.87 563.507 168.701 560.385 168.701ZM587.227 168.091C584.75 168.091 582.782 167.497 581.323 166.309C579.864 165.088 579.134 162.933 579.134 159.845V147.375H574.808V142.845H579.134L579.796 136.432H584.529V142.845H591.655V147.375H584.529V159.845C584.529 161.236 584.818 162.203 585.395 162.746C586.006 163.255 587.04 163.51 588.5 163.51H591.401V168.091H587.227ZM605.472 168.701C602.418 168.701 600.009 167.751 598.245 165.851C596.514 163.951 595.649 161.118 595.649 157.351V142.845H601.044V156.791C601.044 161.677 603.046 164.121 607.05 164.121C609.052 164.121 610.698 163.408 611.987 161.983C613.277 160.558 613.921 158.522 613.921 155.875V142.845H619.317V168.091H614.532L614.125 163.662C613.344 165.223 612.191 166.462 610.664 167.378C609.171 168.26 607.44 168.701 605.472 168.701ZM625.119 168.091V142.845H629.955L630.413 147.629C631.295 145.967 632.517 144.66 634.078 143.71C635.672 142.726 637.59 142.234 639.829 142.234V147.884H638.353C636.86 147.884 635.52 148.138 634.332 148.647C633.178 149.123 632.245 149.954 631.533 151.141C630.854 152.295 630.515 153.907 630.515 155.977V168.091H625.119ZM654.507 168.701C652.03 168.701 649.824 168.158 647.89 167.073C645.99 165.953 644.497 164.409 643.411 162.441C642.325 160.473 641.782 158.182 641.782 155.57C641.782 152.923 642.308 150.599 643.36 148.597C644.446 146.595 645.939 145.034 647.839 143.914C649.773 142.794 652.013 142.234 654.558 142.234C657.035 142.234 659.19 142.794 661.022 143.914C662.854 145 664.279 146.459 665.297 148.291C666.315 150.124 666.824 152.142 666.824 154.348C666.824 154.687 666.807 155.061 666.773 155.468C666.773 155.841 666.756 156.265 666.723 156.74H647.076C647.245 159.183 648.043 161.05 649.468 162.339C650.927 163.595 652.607 164.222 654.507 164.222C656.034 164.222 657.306 163.883 658.324 163.204C659.376 162.492 660.157 161.542 660.666 160.354H666.061C665.382 162.729 664.025 164.714 661.989 166.309C659.987 167.904 657.493 168.701 654.507 168.701ZM654.507 146.662C652.709 146.662 651.114 147.205 649.723 148.291C648.331 149.343 647.483 150.938 647.178 153.076H661.429C661.327 151.108 660.632 149.547 659.342 148.393C658.053 147.239 656.441 146.662 654.507 146.662ZM691.676 168.701C689.539 168.701 687.774 168.345 686.383 167.632C684.992 166.92 683.957 165.987 683.278 164.833C682.6 163.645 682.26 162.356 682.26 160.965C682.26 158.522 683.21 156.588 685.111 155.162C687.011 153.737 689.725 153.025 693.254 153.025H699.871V152.567C699.871 150.599 699.328 149.123 698.242 148.138C697.19 147.154 695.816 146.662 694.12 146.662C692.627 146.662 691.32 147.036 690.2 147.782C689.115 148.495 688.453 149.564 688.215 150.989H682.82C682.99 149.156 683.601 147.596 684.652 146.306C685.738 144.983 687.096 143.982 688.724 143.303C690.387 142.591 692.202 142.234 694.17 142.234C697.699 142.234 700.431 143.167 702.365 145.034C704.299 146.866 705.266 149.377 705.266 152.567V168.091H700.584L700.126 163.764C699.413 165.155 698.378 166.326 697.021 167.276C695.663 168.226 693.882 168.701 691.676 168.701ZM692.745 164.324C694.204 164.324 695.426 163.985 696.41 163.306C697.428 162.594 698.208 161.66 698.751 160.507C699.328 159.353 699.684 158.081 699.82 156.689H693.814C691.676 156.689 690.149 157.063 689.233 157.809C688.351 158.556 687.91 159.489 687.91 160.609C687.91 161.762 688.334 162.678 689.182 163.357C690.065 164.002 691.252 164.324 692.745 164.324ZM710.497 168.091V142.845H715.281L715.688 147.273C716.469 145.712 717.605 144.491 719.098 143.609C720.625 142.692 722.373 142.234 724.341 142.234C727.395 142.234 729.787 143.184 731.518 145.085C733.282 146.985 734.164 149.818 734.164 153.585V168.091H728.82V154.144C728.82 149.258 726.818 146.815 722.814 146.815C720.812 146.815 719.149 147.528 717.826 148.953C716.537 150.378 715.892 152.414 715.892 155.061V168.091H710.497ZM750.961 168.701C748.518 168.701 746.363 168.125 744.497 166.971C742.631 165.817 741.172 164.239 740.12 162.237C739.068 160.235 738.542 157.962 738.542 155.417C738.542 152.872 739.068 150.616 740.12 148.647C741.172 146.645 742.631 145.085 744.497 143.965C746.397 142.811 748.569 142.234 751.012 142.234C753.014 142.234 754.762 142.625 756.255 143.405C757.782 144.185 758.969 145.288 759.818 146.713V131.444H765.213V168.091H760.377L759.818 164.171C759.003 165.359 757.883 166.411 756.458 167.327C755.033 168.243 753.201 168.701 750.961 168.701ZM751.928 164.019C754.236 164.019 756.119 163.221 757.578 161.627C759.071 160.032 759.818 157.979 759.818 155.468C759.818 152.923 759.071 150.87 757.578 149.309C756.119 147.714 754.236 146.917 751.928 146.917C749.621 146.917 747.721 147.714 746.228 149.309C744.735 150.87 743.988 152.923 743.988 155.468C743.988 157.13 744.327 158.607 745.006 159.896C745.685 161.185 746.618 162.203 747.806 162.95C749.027 163.662 750.401 164.019 751.928 164.019ZM782.922 168.091V132.462H794.476C798.65 132.462 802.077 133.191 804.757 134.65C807.472 136.11 809.474 138.179 810.763 140.86C812.087 143.507 812.748 146.662 812.748 150.327C812.748 153.958 812.087 157.114 810.763 159.794C809.474 162.441 807.472 164.494 804.757 165.953C802.077 167.378 798.65 168.091 794.476 168.091H782.922ZM788.317 163.51H794.272C797.496 163.51 800.041 162.984 801.907 161.932C803.807 160.88 805.164 159.37 805.979 157.402C806.827 155.434 807.251 153.076 807.251 150.327C807.251 147.579 806.827 145.203 805.979 143.201C805.164 141.199 803.807 139.672 801.907 138.621C800.041 137.535 797.496 136.992 794.272 136.992H788.317V163.51ZM829.254 168.701C826.777 168.701 824.572 168.158 822.637 167.073C820.737 165.953 819.244 164.409 818.158 162.441C817.073 160.473 816.53 158.182 816.53 155.57C816.53 152.923 817.056 150.599 818.107 148.597C819.193 146.595 820.686 145.034 822.587 143.914C824.521 142.794 826.76 142.234 829.305 142.234C831.782 142.234 833.937 142.794 835.769 143.914C837.601 145 839.027 146.459 840.045 148.291C841.063 150.124 841.572 152.142 841.572 154.348C841.572 154.687 841.555 155.061 841.521 155.468C841.521 155.841 841.504 156.265 841.47 156.74H821.823C821.993 159.183 822.79 161.05 824.215 162.339C825.674 163.595 827.354 164.222 829.254 164.222C830.781 164.222 832.054 163.883 833.072 163.204C834.123 162.492 834.904 161.542 835.413 160.354H840.808C840.129 162.729 838.772 164.714 836.736 166.309C834.734 167.904 832.24 168.701 829.254 168.701ZM829.254 146.662C827.456 146.662 825.861 147.205 824.47 148.291C823.079 149.343 822.23 150.938 821.925 153.076H836.176C836.075 151.108 835.379 149.547 834.09 148.393C832.8 147.239 831.188 146.662 829.254 146.662ZM856.187 168.701C852.997 168.701 850.368 167.921 848.298 166.36C846.228 164.799 845.04 162.729 844.735 160.15H850.181C850.452 161.304 851.097 162.305 852.115 163.153C853.133 163.968 854.473 164.375 856.136 164.375C857.765 164.375 858.953 164.036 859.699 163.357C860.446 162.678 860.819 161.898 860.819 161.016C860.819 159.726 860.293 158.861 859.241 158.42C858.223 157.945 856.798 157.521 854.965 157.147C853.54 156.842 852.115 156.435 850.69 155.926C849.299 155.417 848.128 154.704 847.178 153.788C846.262 152.838 845.804 151.566 845.804 149.971C845.804 147.765 846.652 145.933 848.349 144.474C850.045 142.981 852.421 142.234 855.474 142.234C858.291 142.234 860.564 142.913 862.295 144.27C864.059 145.627 865.094 147.545 865.4 150.022H860.208C860.038 148.936 859.529 148.088 858.681 147.477C857.867 146.866 856.764 146.561 855.373 146.561C854.015 146.561 852.963 146.849 852.217 147.426C851.47 147.969 851.097 148.681 851.097 149.564C851.097 150.446 851.606 151.141 852.624 151.65C853.676 152.159 855.05 152.618 856.747 153.025C858.444 153.398 860.004 153.839 861.43 154.348C862.889 154.823 864.059 155.536 864.942 156.486C865.824 157.436 866.265 158.827 866.265 160.659C866.299 162.967 865.4 164.884 863.567 166.411C861.769 167.938 859.309 168.701 856.187 168.701ZM874.148 138.061C873.13 138.061 872.282 137.755 871.603 137.144C870.959 136.5 870.636 135.702 870.636 134.752C870.636 133.802 870.959 133.022 871.603 132.411C872.282 131.766 873.13 131.444 874.148 131.444C875.166 131.444 875.998 131.766 876.642 132.411C877.321 133.022 877.66 133.802 877.66 134.752C877.66 135.702 877.321 136.5 876.642 137.144C875.998 137.755 875.166 138.061 874.148 138.061ZM871.451 168.091V142.845H876.846V168.091H871.451ZM893.24 160.354C891.917 160.354 890.695 160.201 889.575 159.896L887.387 162.034C887.76 162.271 888.218 162.475 888.761 162.644C889.304 162.814 890.067 162.967 891.051 163.103C892.035 163.238 893.376 163.374 895.072 163.51C898.432 163.815 900.858 164.629 902.351 165.953C903.844 167.242 904.59 168.973 904.59 171.144C904.59 172.637 904.183 174.046 903.369 175.369C902.588 176.726 901.35 177.812 899.653 178.627C897.99 179.475 895.853 179.899 893.24 179.899C889.711 179.899 886.844 179.22 884.638 177.863C882.467 176.54 881.381 174.521 881.381 171.806C881.381 170.754 881.652 169.702 882.195 168.65C882.772 167.632 883.671 166.665 884.893 165.749C884.18 165.444 883.552 165.122 883.009 164.782C882.5 164.409 882.042 164.036 881.635 163.662V162.441L886.012 157.962C884.044 156.265 883.06 154.043 883.06 151.294C883.06 149.631 883.451 148.122 884.231 146.764C885.045 145.373 886.216 144.27 887.743 143.456C889.27 142.641 891.102 142.234 893.24 142.234C894.665 142.234 895.988 142.438 897.21 142.845H906.626V146.408L902.147 146.662C902.962 148.054 903.369 149.598 903.369 151.294C903.369 152.991 902.962 154.518 902.147 155.875C901.367 157.232 900.213 158.318 898.686 159.132C897.193 159.947 895.378 160.354 893.24 160.354ZM893.24 156.129C894.801 156.129 896.056 155.722 897.006 154.908C897.99 154.06 898.483 152.872 898.483 151.345C898.483 149.784 897.99 148.597 897.006 147.782C896.056 146.968 894.801 146.561 893.24 146.561C891.645 146.561 890.356 146.968 889.372 147.782C888.422 148.597 887.947 149.784 887.947 151.345C887.947 152.872 888.422 154.06 889.372 154.908C890.356 155.722 891.645 156.129 893.24 156.129ZM886.471 171.297C886.471 172.756 887.115 173.842 888.405 174.555C889.694 175.301 891.306 175.674 893.24 175.674C895.106 175.674 896.616 175.267 897.77 174.453C898.924 173.672 899.5 172.621 899.5 171.297C899.5 170.313 899.11 169.465 898.33 168.752C897.549 168.074 896.073 167.649 893.902 167.48C892.273 167.378 890.831 167.225 889.575 167.022C888.388 167.666 887.573 168.362 887.132 169.109C886.691 169.855 886.471 170.585 886.471 171.297ZM910.378 168.091V142.845H915.163L915.57 147.273C916.35 145.712 917.487 144.491 918.98 143.609C920.507 142.692 922.254 142.234 924.222 142.234C927.276 142.234 929.669 143.184 931.399 145.085C933.164 146.985 934.046 149.818 934.046 153.585V168.091H928.701V154.144C928.701 149.258 926.699 146.815 922.696 146.815C920.694 146.815 919.031 147.528 917.707 148.953C916.418 150.378 915.773 152.414 915.773 155.061V168.091H910.378Z" fill="#470D69"/>
<rect x="236.758" y="78.9848" width="726.419" height="144.212" rx="25.4491" stroke="#A31BCB" stroke-opacity="0.2" stroke-width="8.48304" shape-rendering="crispEdges"/>
</g>
</g>
</g>
<defs>
<filter id="filter0_d_3011_13851" x="230.396" y="72.6224" width="739.143" height="156.936" filterUnits="userSpaceOnUse" color-interpolation-filters="sRGB">
<feFlood flood-opacity="0" result="BackgroundImageFix"/>
<feColorMatrix in="SourceAlpha" type="matrix" values="0 0 0 0 0 0 0 0 0 0 0 0 0 0 0 0 0 0 127 0" result="hardAlpha"/>
<feOffset/>
<feGaussianBlur stdDeviation="1.06038"/>
<feComposite in2="hardAlpha" operator="out"/>
<feColorMatrix type="matrix" values="0 0 0 0 0.639216 0 0 0 0 0.105882 0 0 0 0 0.796078 0 0 0 0.5 0"/>
<feBlend mode="normal" in2="BackgroundImageFix" result="effect1_dropShadow_3011_13851"/>
<feBlend mode="normal" in="SourceGraphic" in2="effect1_dropShadow_3011_13851" result="shape"/>
</filter>
<linearGradient id="paint0_linear_3011_13851" x1="268.347" y1="104.434" x2="327.281" y2="197.747" gradientUnits="userSpaceOnUse">
<stop stop-color="#5F5F5F"/>
<stop offset="1" stop-color="#363636"/>
</linearGradient>
<clipPath id="clip0_3011_13851">
<rect y="0.959961" width="1200" height="300.48" rx="24" fill="white"/>
</clipPath>
<clipPath id="clip1_3011_13851">
<rect width="1200" height="300" fill="white" transform="translate(0 0.959961)"/>
</clipPath>
</defs>
</svg>
