<svg width="1200" height="301" viewBox="0 0 1200 301" fill="none" xmlns="http://www.w3.org/2000/svg">
<g clip-path="url(#clip0_3168_26580)">
<rect width="1200" height="300" fill="#420B57"/>
<path opacity="0.11" fill-rule="evenodd" clip-rule="evenodd" d="M885.845 -191.525C890.764 -195.957 900.177 -197.702 911.037 -196.194L1165.57 -160.851C1177.89 -159.14 1190.17 -153.513 1197.43 -146.246L1243.99 -99.691L1316.63 -27.0488L1363.18 19.5063C1370.45 26.7735 1371.51 34.4797 1365.93 39.5095L1250.63 143.396C1245.71 147.828 1236.29 149.573 1225.43 148.065L970.907 112.722C958.583 111.011 946.307 105.384 939.039 98.117L892.484 51.5619L819.842 -21.0803L773.287 -67.6354C766.02 -74.9026 764.964 -82.6088 770.546 -87.6386L885.845 -191.525Z" fill="white"/>
<path fill-rule="evenodd" clip-rule="evenodd" d="M-80.2959 157.134C-75.3765 152.702 -65.9633 150.957 -55.1033 152.465L199.425 187.808C211.748 189.519 224.025 195.146 231.292 202.413L277.847 248.968L350.489 321.61L397.044 368.165C404.312 375.433 405.367 383.139 399.785 388.169L284.487 492.055C279.567 496.488 270.154 498.232 259.294 496.724L4.76602 461.381C-7.55724 459.67 -19.834 454.043 -27.1013 446.776L-73.6563 400.221L-146.299 327.579L-192.854 281.024C-200.121 273.757 -201.177 266.05 -195.594 261.021L-80.2959 157.134Z" fill="#A31BCB"/>
<g filter="url(#filter0_d_3168_26580)">
<rect x="427.549" y="82.4229" width="344.839" height="135.415" rx="21.2076" fill="white" shape-rendering="crispEdges"/>
<rect x="448.757" y="103.63" width="90.216" height="93" rx="16.9225" fill="url(#paint0_linear_3168_26580)"/>
<path opacity="0.3" d="M514.519 132.765C514.513 132.735 514.507 132.705 514.501 132.676C514.507 132.753 514.513 132.831 514.513 132.908C514.513 132.95 514.495 133.147 514.495 133.183C514.471 133.302 514.435 133.416 514.4 133.529L514.382 133.583L514.376 133.607C514.37 133.618 514.37 133.63 514.364 133.636C514.364 133.642 514.364 133.642 514.358 133.648C514.358 133.654 514.358 133.654 514.352 133.654C514.346 133.666 514.34 133.678 514.334 133.69C514.31 133.738 514.286 133.786 514.262 133.833C514.185 133.976 514.095 134.114 514 134.251C514.012 134.239 514.018 134.233 514.018 134.227C514.012 134.233 514.006 134.245 513.988 134.263C513.982 134.275 513.976 134.281 513.97 134.287C513.952 134.305 513.94 134.323 513.922 134.346C513.892 134.382 513.857 134.424 513.827 134.46C513.695 134.609 513.552 134.758 513.403 134.895C513.355 134.937 513.308 134.979 513.26 135.021C513.236 135.039 513.218 135.063 513.194 135.08C513.17 135.104 513.14 135.128 513.117 135.152C513.069 135.194 513.015 135.236 512.967 135.277C512.967 135.277 512.961 135.283 512.955 135.283C512.95 135.289 512.944 135.289 512.944 135.295C512.938 135.301 512.932 135.307 512.926 135.313C512.908 135.325 512.884 135.343 512.872 135.349C512.848 135.367 512.818 135.385 512.794 135.403C512.765 135.421 512.741 135.444 512.711 135.462C512.687 135.48 512.663 135.492 512.645 135.51C512.156 135.85 511.643 136.143 511.118 136.417C510.885 136.536 510.652 136.65 510.413 136.757C510.306 136.805 510.205 136.853 510.097 136.9C510.097 136.9 510.091 136.9 510.085 136.906C510.079 136.912 510.067 136.912 510.055 136.918C510.055 136.918 510.055 136.918 510.049 136.918C510.008 136.936 509.948 136.966 509.936 136.966C509.954 136.954 509.972 136.948 509.996 136.942H509.99C509.99 136.942 509.99 136.942 509.984 136.942C509.954 136.954 509.924 136.966 509.888 136.984C509.399 137.181 508.898 137.366 508.397 137.533C507.836 137.724 507.263 137.891 506.696 138.046C506.523 138.094 506.344 138.142 506.171 138.183C506.069 138.207 505.968 138.231 505.872 138.261C505.783 138.285 505.693 138.309 505.598 138.327C505.496 138.35 505.401 138.374 505.3 138.398C505.252 138.41 505.21 138.422 505.162 138.428C505.091 138.446 505.013 138.458 504.942 138.476C504.864 138.494 504.78 138.512 504.703 138.529C504.625 138.547 504.542 138.565 504.464 138.583C504.357 138.607 504.249 138.625 504.142 138.649C504.029 138.673 503.909 138.697 503.796 138.72C503.7 138.738 503.611 138.756 503.515 138.774C503.432 138.792 503.348 138.804 503.271 138.822C503.181 138.84 503.098 138.852 503.008 138.87C502.704 138.923 502.4 138.971 502.089 139.019C502.053 139.025 502.024 139.031 501.988 139.037C501.856 139.055 501.731 139.078 501.6 139.096C501.528 139.108 501.463 139.114 501.391 139.126C501.373 139.126 501.355 139.132 501.337 139.132C501.331 139.132 501.325 139.132 501.319 139.132C501.313 139.132 501.313 139.132 501.313 139.132H501.308V139.126C501.302 139.126 501.296 139.108 501.29 139.108C501.29 139.108 501.284 139.114 501.278 139.114V139.108H501.266C501.266 139.108 501.266 139.12 501.272 139.12L501.266 139.132C501.254 139.132 501.236 139.138 501.224 139.138C501.218 139.138 501.212 139.138 501.206 139.138C501.182 139.144 501.158 139.144 501.14 139.144C501.015 139.162 500.896 139.174 500.77 139.192C500.526 139.222 500.275 139.251 500.025 139.275C499.804 139.299 499.577 139.323 499.356 139.341C499.237 139.353 499.112 139.365 498.992 139.371C498.855 139.383 498.724 139.395 498.592 139.407C498.443 139.419 498.294 139.43 498.139 139.442C498.014 139.448 497.888 139.46 497.757 139.466C497.691 139.472 497.632 139.478 497.566 139.478C497.5 139.484 497.441 139.484 497.375 139.49C497.25 139.496 497.125 139.502 496.999 139.508C496.868 139.514 496.743 139.52 496.611 139.526C496.516 139.532 496.414 139.538 496.319 139.538C496.122 139.544 495.931 139.556 495.734 139.556C495.639 139.556 495.537 139.562 495.442 139.562C495.316 139.568 495.185 139.568 495.054 139.574H495.048C494.929 139.574 494.809 139.58 494.69 139.58C494.666 139.58 494.642 139.58 494.618 139.58C494.505 139.58 494.392 139.58 494.278 139.58C494.022 139.58 493.765 139.58 493.508 139.58C493.502 139.58 493.49 139.58 493.485 139.58C493.371 139.58 493.258 139.58 493.144 139.574C493.109 139.574 493.073 139.574 493.037 139.574C492.918 139.574 492.798 139.568 492.679 139.568C492.41 139.562 492.142 139.556 491.873 139.544C491.814 139.544 491.754 139.538 491.7 139.538C491.641 139.538 491.581 139.532 491.527 139.532C491.497 139.532 491.468 139.532 491.438 139.526C491.336 139.52 491.241 139.52 491.139 139.514C491.05 139.508 490.96 139.508 490.871 139.502C490.805 139.502 490.74 139.484 490.674 139.484C490.519 139.472 490.358 139.448 490.203 139.448H490.197C490.131 139.448 490.065 139.448 490 139.442C489.934 139.442 489.868 139.436 489.803 139.43C489.761 139.43 489.713 139.425 489.671 139.425C489.66 139.425 489.648 139.425 489.636 139.425C489.558 139.419 489.481 139.425 489.403 139.419C489.146 139.401 488.884 139.377 488.627 139.353C488.371 139.329 488.108 139.305 487.851 139.275C487.828 139.275 487.798 139.269 487.774 139.269C487.732 139.263 487.69 139.263 487.649 139.257C487.643 139.257 487.631 139.257 487.625 139.257C487.601 139.257 487.577 139.251 487.547 139.251C487.511 139.246 487.47 139.246 487.434 139.24C487.428 139.24 487.422 139.24 487.422 139.24C487.267 139.222 487.112 139.204 486.956 139.186C486.831 139.168 486.712 139.156 486.586 139.138C486.569 139.138 486.557 139.132 486.539 139.126C486.533 139.126 486.527 139.12 486.521 139.12V139.108V139.114V139.12V139.108L486.515 139.12V139.126L486.509 139.114V139.132C486.509 139.132 486.497 139.12 486.497 139.114L486.491 139.12L486.485 139.126H486.479H486.473C486.467 139.126 486.461 139.126 486.461 139.126C486.455 139.126 486.455 139.132 486.455 139.132V139.126C486.443 139.126 486.431 139.126 486.425 139.12C486.419 139.12 486.419 139.12 486.413 139.12C486.366 139.114 486.312 139.108 486.264 139.096C486.091 139.072 485.924 139.049 485.751 139.019C485.673 139.007 485.596 138.995 485.512 138.983C485.435 138.971 485.357 138.959 485.274 138.947C485.196 138.935 485.113 138.923 485.035 138.911C484.772 138.87 484.51 138.822 484.247 138.768C484.235 138.768 484.223 138.762 484.217 138.762C484.098 138.738 483.985 138.714 483.865 138.697C483.543 138.637 483.221 138.571 482.905 138.5C482.881 138.494 482.851 138.488 482.821 138.482C482.69 138.452 482.559 138.428 482.427 138.398C482.427 138.398 480.231 137.813 480.142 137.778C479.945 137.718 479.748 137.652 479.551 137.593C479.545 137.593 479.539 137.593 479.539 137.587C479.45 137.563 479.366 137.533 479.283 137.503C478.811 137.342 478.34 137.169 477.874 136.984C477.856 136.978 477.833 136.966 477.815 136.96C477.797 136.954 477.773 136.942 477.755 136.936C477.749 136.936 477.749 136.93 477.743 136.93H477.749C477.743 136.93 477.737 136.924 477.731 136.924C477.737 136.924 477.737 136.93 477.743 136.93C477.737 136.924 477.725 136.924 477.713 136.918C477.707 136.918 477.701 136.912 477.695 136.912C477.689 136.912 477.689 136.912 477.683 136.906H477.689C477.6 136.865 477.51 136.829 477.415 136.787C477.17 136.68 476.932 136.56 476.693 136.441C476.263 136.226 475.846 135.987 475.44 135.725C475.255 135.606 475.076 135.474 474.897 135.349C474.879 135.337 474.867 135.325 474.849 135.313L474.921 135.367C474.861 135.325 474.831 135.295 474.825 135.289C474.825 135.289 474.825 135.289 474.831 135.289C474.813 135.277 474.801 135.265 474.783 135.247C474.718 135.194 474.652 135.134 474.586 135.08C474.431 134.943 474.276 134.8 474.133 134.651C474.121 134.639 474.079 134.591 474.031 134.531C473.96 134.454 473.894 134.376 473.829 134.299V134.305C473.841 134.323 473.846 134.329 473.846 134.335C473.841 134.323 473.805 134.275 473.781 134.245C473.781 134.245 473.781 134.245 473.781 134.239C473.775 134.233 473.769 134.227 473.763 134.221C473.763 134.221 473.763 134.221 473.757 134.215C473.703 134.138 473.65 134.054 473.596 133.971C473.542 133.881 473.494 133.792 473.447 133.696C473.447 133.696 473.447 133.696 473.447 133.69C473.435 133.66 473.387 133.541 473.387 133.535C473.405 133.559 473.417 133.595 473.429 133.624C473.405 133.553 473.375 133.481 473.357 133.41C473.321 133.29 473.309 133.171 473.28 133.052C473.274 132.968 473.274 132.884 473.274 132.801C473.274 132.783 473.274 132.765 473.274 132.747C473.274 132.747 473.268 132.747 473.274 132.741V132.735V132.729L473.28 132.705V132.7C473.28 132.658 473.286 132.622 473.292 132.58C473.292 132.622 473.286 132.652 473.286 132.676C473.292 132.628 473.303 132.568 473.315 132.515C473.333 132.425 473.363 132.341 473.387 132.258C473.393 132.234 473.405 132.204 473.417 132.18C473.5 132.019 473.578 131.852 473.679 131.697C473.727 131.619 473.781 131.548 473.829 131.476C473.852 131.452 473.87 131.423 473.894 131.399C474.043 131.22 474.21 131.053 474.384 130.891C474.467 130.814 474.551 130.736 474.64 130.659C474.688 130.617 474.736 130.575 474.789 130.539C474.801 130.527 474.831 130.504 474.861 130.486C474.849 130.492 474.837 130.504 474.825 130.51C474.831 130.504 474.837 130.498 474.843 130.498C474.879 130.468 474.903 130.45 474.909 130.444C474.903 130.444 474.903 130.45 474.897 130.456L474.903 130.45C474.95 130.414 474.998 130.384 475.046 130.348C475.165 130.265 475.291 130.181 475.416 130.098C475.655 129.943 475.893 129.799 476.138 129.662C476.657 129.37 477.2 129.113 477.743 128.875C477.779 128.863 477.821 128.839 477.856 128.827C477.928 128.797 477.994 128.773 478.065 128.743C478.244 128.672 478.417 128.606 478.596 128.54C478.931 128.415 479.265 128.302 479.605 128.188C481.144 127.687 482.72 127.311 484.307 127.013C484.749 126.929 485.19 126.858 485.638 126.786C485.847 126.756 486.061 126.72 486.27 126.691C486.294 126.691 486.348 126.679 486.396 126.673C486.401 126.673 486.413 126.673 486.425 126.667C486.437 126.667 486.455 126.661 486.467 126.661C486.467 126.661 486.473 126.661 486.479 126.661C486.569 126.649 486.658 126.637 486.748 126.625C487.69 126.506 488.633 126.416 489.582 126.344C493.508 126.058 497.477 126.153 501.385 126.655C501.397 126.655 501.409 126.655 501.421 126.661C501.415 126.661 501.403 126.661 501.397 126.655C501.445 126.661 501.469 126.661 501.487 126.661C501.475 126.661 501.451 126.661 501.433 126.655C501.463 126.661 501.487 126.661 501.51 126.667C501.612 126.679 501.707 126.697 501.803 126.708C502.047 126.744 502.286 126.78 502.531 126.822C502.954 126.893 503.378 126.965 503.802 127.049C504.619 127.204 505.437 127.383 506.242 127.592C506.988 127.783 507.728 127.997 508.456 128.242C508.802 128.361 509.148 128.481 509.489 128.612C509.644 128.672 509.793 128.731 509.942 128.791C510.002 128.815 510.067 128.845 510.127 128.869C510.097 128.863 510.079 128.851 510.061 128.851C510.109 128.869 510.169 128.886 510.199 128.898C510.766 129.149 511.326 129.424 511.869 129.734C512.12 129.877 512.365 130.032 512.603 130.193C512.711 130.265 512.812 130.336 512.914 130.414C512.95 130.438 512.979 130.462 513.015 130.486C512.848 130.342 513.176 130.605 513.051 130.516C513.039 130.51 513.027 130.498 513.015 130.486C513.021 130.492 513.027 130.498 513.033 130.498C513.397 130.796 513.725 131.118 514.03 131.47C514.041 131.488 514.053 131.5 514.065 131.518C514.131 131.608 514.191 131.703 514.25 131.798C514.298 131.882 514.346 131.966 514.388 132.049C514.4 132.073 514.411 132.091 514.417 132.115C514.471 132.276 514.525 132.437 514.561 132.604C514.561 132.616 514.567 132.622 514.567 132.634C514.567 132.616 514.567 132.604 514.561 132.586C514.483 132.407 514.531 132.813 514.519 132.765Z" fill="white"/>
<path opacity="0.6" d="M514.506 144.67C514.506 144.681 514.512 144.693 514.512 144.699C514.512 144.705 514.47 144.825 514.405 145.034C514.405 145.039 514.399 145.045 514.399 145.051C514.399 145.063 514.393 145.069 514.393 145.081V145.087C514.393 145.093 514.393 145.099 514.387 145.099C514.387 145.099 514.393 145.099 514.399 145.099C514.399 145.111 514.405 145.117 514.405 145.129C514.405 145.135 514.387 145.141 514.387 145.147C514.387 145.147 514.381 145.153 514.375 145.153L514.369 145.159C514.363 145.171 514.357 145.189 514.345 145.207C514.345 145.207 514.345 145.207 514.345 145.213C514.333 145.23 514.327 145.254 514.321 145.266C514.291 145.326 514.261 145.38 514.226 145.433C514.19 145.499 514.148 145.559 514.112 145.624C514.088 145.66 514.064 145.696 514.041 145.732C514.064 145.714 513.945 145.881 513.951 145.851C513.784 146.042 513.617 146.227 513.432 146.4C513.324 146.501 513.217 146.597 513.104 146.686C513.068 146.716 513.032 146.746 512.99 146.776C512.907 146.854 512.823 146.925 512.931 146.824C512.925 146.824 512.925 146.83 512.919 146.83C512.919 146.83 512.919 146.83 512.913 146.836C512.859 146.883 512.799 146.925 512.734 146.961C512.179 147.355 511.588 147.689 510.985 147.993C510.753 148.107 510.52 148.22 510.281 148.327C510.245 148.345 509.953 148.5 509.929 148.483C509.858 148.512 509.78 148.542 509.708 148.572C507.274 149.539 504.69 150.124 502.106 150.523C501.915 150.553 501.73 150.583 501.539 150.607C501.48 150.613 501.426 150.631 501.366 150.631C501.36 150.631 501.36 150.631 501.354 150.631C501.348 150.631 501.348 150.631 501.342 150.631C501.342 150.631 501.342 150.631 501.336 150.631H501.33C501.33 150.631 501.324 150.631 501.318 150.631C501.313 150.631 501.313 150.631 501.307 150.631H501.301C501.295 150.631 501.295 150.631 501.289 150.631C501.289 150.631 501.289 150.631 501.283 150.631C501.277 150.631 501.277 150.631 501.271 150.631C501.247 150.631 501.229 150.637 501.217 150.637C500.805 150.69 500.394 150.738 499.988 150.78C499.212 150.863 498.436 150.929 497.661 150.977C496.419 151.054 495.172 151.084 493.931 151.084C493.919 151.084 493.913 151.084 493.901 151.084C493.716 151.084 493.531 151.084 493.346 151.078C493.018 151.078 492.69 151.072 492.362 151.06C492.26 151.06 492.165 151.054 492.063 151.054C492.004 151.054 491.938 151.048 491.878 151.048C491.866 151.048 491.849 151.048 491.837 151.048C491.813 151.048 491.789 151.048 491.771 151.048C491.699 151.048 491.622 151.042 491.55 151.042C491.419 151.037 491.288 151.031 491.156 151.025C491.025 151.019 490.9 151.013 490.768 151.007C490.763 151.007 490.757 151.007 490.757 151.007C490.733 151.007 490.709 151.007 490.685 151.001C490.548 150.995 490.416 150.983 490.279 150.977H490.273C490.112 150.965 489.957 150.959 489.796 150.947C489.79 150.947 489.79 150.947 489.79 150.947C489.486 150.929 489.181 150.899 488.883 150.875C488.883 150.875 488.883 150.875 488.877 150.875C488.841 150.875 488.805 150.869 488.769 150.863C488.68 150.858 488.59 150.846 488.501 150.84C488.483 150.84 488.465 150.84 488.447 150.834C488.394 150.828 488.34 150.822 488.292 150.816C488.286 150.816 488.286 150.816 488.28 150.816C488.256 150.816 488.232 150.81 488.209 150.81C488.191 150.81 488.167 150.804 488.149 150.804C488.113 150.798 488.077 150.798 488.041 150.792C487.982 150.786 487.922 150.78 487.856 150.774C487.695 150.756 487.534 150.738 487.373 150.72C487.302 150.714 487.224 150.702 487.152 150.696C487.099 150.69 487.039 150.684 486.985 150.678C486.955 150.673 486.926 150.673 486.896 150.667C486.854 150.661 486.806 150.655 486.764 150.649C486.735 150.643 486.705 150.643 486.675 150.637C486.663 150.637 486.651 150.637 486.633 150.631C486.633 150.631 486.633 150.631 486.627 150.631C486.621 150.631 486.609 150.631 486.603 150.625C486.591 150.625 486.58 150.625 486.574 150.619C486.568 150.619 486.562 150.619 486.556 150.619C486.55 150.619 486.538 150.619 486.532 150.619C486.532 150.619 486.526 150.619 486.52 150.619H486.514V150.613C486.508 150.613 486.508 150.613 486.502 150.613H486.496V150.619V150.625H486.472V150.619L486.466 150.625V150.631C486.466 150.631 486.466 150.631 486.46 150.631H486.454H486.448H486.442L486.436 150.619C486.43 150.619 486.424 150.613 486.424 150.613C486.418 150.613 486.412 150.613 486.4 150.607C486.359 150.601 486.323 150.595 486.287 150.589C486.281 150.589 486.275 150.589 486.269 150.589C486.263 150.589 486.257 150.589 486.251 150.583C486.09 150.559 485.935 150.535 485.774 150.511C485.762 150.511 485.744 150.505 485.732 150.505C485.619 150.488 485.505 150.47 485.392 150.452C485.374 150.452 485.362 150.446 485.344 150.446C485.326 150.446 485.314 150.44 485.297 150.44C485.273 150.434 485.249 150.434 485.225 150.428C485.135 150.41 485.04 150.398 484.95 150.38C484.903 150.374 484.849 150.362 484.801 150.356C484.789 150.356 484.777 150.35 484.76 150.35C484.652 150.332 484.551 150.314 484.443 150.297C484.354 150.279 484.264 150.267 484.169 150.249C484.121 150.237 484.067 150.231 484.02 150.219C483.888 150.195 483.763 150.171 483.632 150.141C483.62 150.141 483.608 150.135 483.59 150.135C483.471 150.112 483.351 150.088 483.232 150.058C483.22 150.058 483.214 150.052 483.202 150.052C483.083 150.028 482.963 149.998 482.838 149.974C482.832 149.974 482.832 149.974 482.826 149.974C482.701 149.945 482.581 149.921 482.462 149.891C482.379 149.873 482.295 149.849 482.206 149.831C482.188 149.825 482.164 149.819 482.146 149.819C482.11 149.813 482.08 149.801 482.044 149.795C482.038 149.795 482.033 149.795 482.027 149.789C481.937 149.766 481.848 149.748 481.758 149.724C481.615 149.688 481.472 149.652 481.328 149.616C481.161 149.575 481 149.527 480.833 149.479C480.767 149.461 480.702 149.443 480.636 149.425C480.571 149.407 480.505 149.39 480.439 149.366C480.368 149.342 480.29 149.324 480.218 149.3C480.117 149.27 480.016 149.24 479.914 149.211C479.294 149.02 478.679 148.805 478.076 148.566C477.993 148.536 477.909 148.5 477.832 148.465C477.796 148.453 477.76 148.435 477.724 148.423C477.724 148.423 477.718 148.423 477.718 148.417H477.712C477.808 148.459 477.605 148.375 477.587 148.369C477.593 148.369 477.617 148.381 477.659 148.399C477.653 148.393 477.641 148.393 477.635 148.387C477.635 148.387 477.635 148.387 477.629 148.387C477.605 148.381 477.587 148.369 477.563 148.357C477.539 148.345 477.515 148.339 477.497 148.327C477.497 148.327 477.497 148.327 477.491 148.327C477.486 148.327 477.486 148.327 477.48 148.321C477.474 148.321 477.468 148.315 477.462 148.315C477.462 148.315 477.456 148.315 477.456 148.31C477.444 148.304 477.438 148.304 477.426 148.298H477.42C477.366 148.274 477.312 148.25 477.265 148.226C477.116 148.16 476.966 148.077 476.817 148.011C476.799 148.005 476.787 147.993 476.769 147.987C476.722 147.963 476.668 147.934 476.62 147.91C476.573 147.886 476.519 147.856 476.471 147.832C476.423 147.808 476.37 147.778 476.322 147.755C476.274 147.725 476.22 147.701 476.173 147.671C476.125 147.647 476.083 147.623 476.035 147.593C475.964 147.552 475.898 147.516 475.833 147.474C475.767 147.432 475.701 147.397 475.636 147.355C475.594 147.331 475.552 147.301 475.51 147.277C475.498 147.271 475.492 147.265 475.481 147.259C475.445 147.235 475.403 147.212 475.367 147.182C475.325 147.158 475.284 147.128 475.242 147.098C475.236 147.092 475.23 147.092 475.224 147.086C475.212 147.08 475.206 147.074 475.194 147.068C475.146 147.039 475.099 147.003 475.045 146.967C474.997 146.931 474.943 146.895 474.896 146.859C474.89 146.854 474.878 146.848 474.872 146.842C474.866 146.836 474.848 146.824 474.83 146.812C474.818 146.806 474.806 146.794 474.8 146.788C474.8 146.788 474.794 146.788 474.794 146.782C474.568 146.621 474.926 146.895 474.794 146.782C474.794 146.782 474.788 146.776 474.782 146.776C474.782 146.776 474.782 146.776 474.776 146.776C474.77 146.776 474.776 146.776 474.77 146.776C474.77 146.776 474.764 146.77 474.759 146.77C474.741 146.758 474.729 146.746 474.723 146.74C474.597 146.639 474.472 146.531 474.353 146.424C474.329 146.4 474.305 146.382 474.281 146.358C474.263 146.34 474.245 146.328 474.233 146.311C474.215 146.293 474.192 146.275 474.174 146.251C474.156 146.233 474.144 146.221 474.126 146.203C474.12 146.197 474.114 146.191 474.108 146.185C474.102 146.179 474.096 146.173 474.09 146.167C474.06 146.137 474.031 146.108 474.001 146.072C473.965 146.036 473.929 145.994 473.893 145.958C473.887 145.952 473.887 145.952 473.881 145.947C473.881 145.941 473.875 145.941 473.875 145.935C473.834 145.887 473.798 145.845 473.756 145.797C473.756 145.797 473.756 145.797 473.75 145.791C473.756 145.803 473.756 145.803 473.732 145.767C473.726 145.762 473.726 145.756 473.72 145.744C473.714 145.732 473.696 145.72 473.696 145.708H473.69L473.684 145.702L473.678 145.696V145.702H473.672L473.667 145.69C473.672 145.69 473.672 145.69 473.678 145.69C473.661 145.66 473.637 145.63 473.619 145.6C473.601 145.577 473.583 145.547 473.571 145.523L473.535 145.463C473.505 145.415 473.482 145.374 473.452 145.326C473.452 145.32 473.446 145.314 473.446 145.308C473.422 145.26 473.398 145.219 473.374 145.171C473.356 145.135 473.338 145.075 473.314 145.034C473.314 145.039 473.32 145.045 473.32 145.051C473.338 145.093 473.356 145.153 473.362 145.165C473.362 145.165 473.362 145.165 473.362 145.159V145.153C473.362 145.147 473.356 145.135 473.356 145.129V145.123C473.356 145.123 473.356 145.123 473.356 145.117C473.344 145.087 473.332 145.051 473.32 145.034C473.32 145.028 473.314 145.028 473.314 145.022C473.314 145.022 473.314 145.022 473.314 145.016C473.32 145.016 473.32 145.022 473.32 145.022C473.314 144.998 473.303 144.974 473.297 144.95C473.267 144.855 473.237 144.759 473.213 144.664C473.213 144.652 473.207 144.646 473.207 144.634L473.201 144.628C473.195 144.61 473.189 144.592 473.189 144.574C473.189 144.58 473.189 144.586 473.189 144.586C473.189 144.586 473.189 144.586 473.189 144.58C473.189 144.58 473.189 144.58 473.189 144.574C473.189 144.574 473.189 144.574 473.189 144.58C473.189 144.58 473.189 144.58 473.189 144.574C473.189 144.562 473.189 144.544 473.183 144.532C473.183 144.526 473.183 144.52 473.183 144.514C473.171 144.455 473.165 144.395 473.183 144.467C473.177 144.431 473.177 144.419 473.177 144.413C473.177 144.419 473.195 144.461 473.195 144.508C473.195 144.52 473.201 144.526 473.201 144.538C473.201 144.538 473.201 144.544 473.201 144.55C473.201 144.538 473.195 144.526 473.195 144.514C473.195 144.413 473.189 144.311 473.189 144.21V137.043C473.368 137.193 473.559 137.336 473.75 137.473C473.774 137.491 473.804 137.509 473.828 137.527C474.502 137.992 475.23 138.392 475.958 138.732C477.08 139.263 478.249 139.699 479.437 140.063C479.729 140.152 480.236 140.302 480.559 140.385C480.654 140.409 480.744 140.433 480.839 140.457C480.958 140.487 481.209 140.552 481.215 140.552C481.305 140.576 481.394 140.6 481.478 140.624C481.561 140.642 481.645 140.666 481.722 140.683C481.728 140.683 481.74 140.683 481.746 140.689C483.339 141.059 484.956 141.346 486.585 141.549C486.681 141.561 486.77 141.573 486.866 141.584C489.265 141.871 491.681 141.996 494.08 141.99C494.611 141.99 495.142 141.978 495.674 141.966C495.709 141.966 495.751 141.966 495.787 141.96C496.294 141.943 496.795 141.925 497.303 141.895C499.91 141.746 502.524 141.435 505.084 140.904C505.167 140.886 505.251 140.868 505.334 140.851C505.406 140.833 505.478 140.821 505.555 140.803C505.591 140.797 505.627 140.785 505.663 140.779C506.033 140.695 506.397 140.612 506.761 140.516C508.533 140.069 510.275 139.484 511.922 138.696C512.388 138.476 512.853 138.231 513.307 137.962C513.354 137.933 513.408 137.903 513.456 137.873C513.521 137.831 513.587 137.789 513.647 137.748C513.712 137.706 513.784 137.658 513.85 137.616C513.885 137.592 513.921 137.569 513.951 137.545C514.154 137.407 514.351 137.258 514.542 137.103V144.186C514.542 144.306 514.506 144.485 514.524 144.622C514.53 144.604 514.536 144.586 514.542 144.568C514.548 144.55 514.554 144.532 514.56 144.514C514.548 144.55 514.542 144.604 514.536 144.64C514.512 144.652 514.506 144.658 514.506 144.67Z" fill="white"/>
<path opacity="0.9" d="M514.035 148.954C514.202 148.834 514.363 148.715 514.519 148.584V156.013C514.519 156.049 514.513 156.084 514.513 156.12C514.507 156.15 514.501 156.18 514.495 156.21C514.495 156.216 514.489 156.228 514.489 156.234C514.489 156.246 514.483 156.252 514.483 156.263C514.477 156.287 514.471 156.305 514.465 156.329V156.335C514.447 156.395 514.429 156.454 514.411 156.52C514.405 156.538 514.393 156.574 514.375 156.61C514.375 156.616 514.369 156.622 514.369 156.622C514.369 156.627 514.363 156.633 514.363 156.639L514.34 156.687C514.34 156.693 514.334 156.699 514.334 156.705C514.316 156.741 514.298 156.777 514.274 156.812C514.262 156.83 514.256 156.848 514.244 156.866C514.238 156.872 514.238 156.884 514.232 156.89C514.226 156.902 514.22 156.914 514.214 156.92C514.202 156.938 514.196 156.95 514.184 156.968C514.125 157.063 514.065 157.159 513.999 157.254L513.993 157.26C513.987 157.266 513.987 157.272 513.981 157.278C513.976 157.284 513.976 157.29 513.97 157.296C513.964 157.302 513.958 157.314 513.952 157.32C513.898 157.385 513.838 157.451 513.785 157.517C513.54 157.785 513.277 158.03 512.997 158.262C512.985 158.274 512.973 158.28 512.961 158.292C512.955 158.298 512.943 158.304 512.937 158.31L512.931 158.316C512.925 158.322 512.913 158.328 512.907 158.334C512.907 158.334 512.907 158.334 512.901 158.334L512.895 158.34C512.884 158.346 512.872 158.358 512.86 158.364C512.86 158.364 512.866 158.364 512.866 158.358C512.806 158.4 512.752 158.442 512.693 158.483C512.508 158.615 512.317 158.74 512.126 158.853C511.827 159.038 511.523 159.205 511.213 159.366C511.201 159.372 511.189 159.378 511.177 159.384C510.992 159.48 510.807 159.569 510.622 159.659C510.515 159.707 510.407 159.76 510.3 159.808C510.276 159.82 510.252 159.832 510.228 159.838C510.186 159.856 510.145 159.874 510.103 159.892C510.097 159.892 510.091 159.897 510.085 159.897C510.085 159.897 510.085 159.897 510.079 159.897C510.067 159.903 510.049 159.909 510.037 159.915C510.031 159.915 510.031 159.915 510.031 159.921C510.025 159.927 510.013 159.927 510.007 159.933H510.001H509.995C509.995 159.933 509.989 159.933 509.989 159.939C509.912 159.969 509.834 159.999 509.757 160.035C509.59 160.1 509.417 160.166 509.25 160.232C508.909 160.357 508.563 160.476 508.217 160.59C507.489 160.828 506.755 161.037 506.009 161.222C505.192 161.425 504.368 161.604 503.539 161.759C503.103 161.843 502.668 161.914 502.226 161.986C502.011 162.022 501.796 162.052 501.576 162.081C501.558 162.081 501.546 162.087 501.528 162.087C501.528 162.087 501.528 162.087 501.522 162.087H501.51C501.474 162.093 501.409 162.099 501.355 162.105C501.355 162.123 501.355 162.105 501.349 162.105C501.349 162.105 501.343 162.135 501.337 162.135C501.331 162.135 501.325 162.123 501.319 162.123L501.313 162.117C501.242 162.129 501.116 162.141 501.08 162.147C500.108 162.272 499.123 162.362 498.145 162.434C498.037 162.44 497.93 162.445 497.816 162.457C497.751 162.463 497.685 162.463 497.619 162.469C497.554 162.475 497.488 162.475 497.423 162.481C497.345 162.487 497.267 162.493 497.184 162.493C494.391 162.648 491.587 162.607 488.806 162.368C488.364 162.332 487.923 162.284 487.487 162.237C487.278 162.213 487.069 162.189 486.867 162.165C486.765 162.153 486.664 162.141 486.556 162.129C486.52 162.123 486.491 162.123 486.455 162.117C486.449 162.117 486.431 162.117 486.419 162.117C486.413 162.117 486.401 162.117 486.395 162.117C486.395 162.123 486.395 162.129 486.395 162.129L486.401 162.141C486.395 162.141 486.395 162.141 486.389 162.141H486.383C486.383 162.117 486.377 162.111 486.377 162.111C486.371 162.111 486.371 162.123 486.365 162.123C485.542 162.01 484.73 161.867 483.913 161.712C482.672 161.473 481.436 161.18 480.225 160.816C480.028 160.757 479.837 160.697 479.646 160.637C479.587 160.62 479.533 160.602 479.473 160.584C479.431 160.572 479.396 160.56 479.36 160.542C479.193 160.488 479.032 160.429 478.865 160.369C478.781 160.339 478.703 160.309 478.62 160.279H478.614C478.584 160.267 478.548 160.256 478.518 160.244C478.471 160.226 478.423 160.208 478.375 160.19C478.274 160.154 478.178 160.112 478.077 160.077H478.071C478.011 160.053 477.958 160.029 477.898 160.011C477.85 159.993 477.802 159.969 477.755 159.951H477.761C477.755 159.951 477.749 159.945 477.737 159.939C477.725 159.933 477.713 159.927 477.695 159.921C477.689 159.921 477.683 159.915 477.677 159.915C477.659 159.909 477.647 159.903 477.629 159.892H477.623C477.623 159.892 477.623 159.892 477.617 159.892C477.576 159.874 477.534 159.856 477.492 159.838C477.456 159.82 477.421 159.808 477.385 159.79C477.373 159.784 477.355 159.778 477.343 159.772C477.283 159.748 477.23 159.718 477.17 159.695C477.098 159.665 477.027 159.629 476.961 159.593C476.866 159.545 476.77 159.504 476.681 159.456C476.412 159.325 476.15 159.181 475.893 159.032C475.875 159.02 475.851 159.008 475.833 158.996C475.714 158.925 475.589 158.853 475.469 158.776C475.296 158.662 475.123 158.549 474.956 158.43C474.938 158.418 474.861 158.364 474.819 158.328L474.813 158.322C474.813 158.322 474.807 158.328 474.807 158.322C474.807 158.322 474.807 158.328 474.801 158.328L474.795 158.316V158.31C474.789 158.304 474.789 158.298 474.783 158.298C474.777 158.298 474.777 158.292 474.771 158.286C474.753 158.274 474.735 158.257 474.723 158.245C474.699 158.227 474.676 158.203 474.652 158.185C474.64 158.179 474.628 158.167 474.622 158.161C474.604 158.149 474.592 158.137 474.574 158.125C474.562 158.113 474.55 158.101 474.532 158.089C474.491 158.054 474.449 158.018 474.413 157.982C474.383 157.958 474.359 157.934 474.33 157.904C474.294 157.875 474.264 157.839 474.228 157.809C474.216 157.797 474.21 157.791 474.198 157.779C474.186 157.767 474.18 157.761 474.168 157.749C474.156 157.731 474.139 157.719 474.127 157.708C474.031 157.612 473.936 157.505 473.846 157.403C473.834 157.391 473.775 157.314 473.733 157.266L473.727 157.26L473.721 157.254C473.715 157.248 473.709 157.236 473.703 157.23C473.697 157.218 473.691 157.212 473.685 157.2C473.685 157.2 473.685 157.194 473.679 157.194C473.661 157.165 473.643 157.141 473.625 157.111C473.584 157.051 473.548 156.991 473.512 156.926C473.494 156.896 473.476 156.866 473.458 156.83C473.452 156.818 473.446 156.812 473.44 156.801C473.434 156.783 473.422 156.771 473.417 156.753C473.417 156.753 473.417 156.747 473.411 156.747C473.387 156.705 473.363 156.657 473.345 156.616C473.339 156.61 473.345 156.604 473.339 156.598V156.592C473.339 156.592 473.339 156.592 473.333 156.592C473.327 156.58 473.321 156.562 473.321 156.55C473.297 156.49 473.279 156.437 473.261 156.377C473.261 156.371 473.261 156.365 473.255 156.359C473.243 156.323 473.232 156.281 473.22 156.246C473.22 156.24 473.214 156.228 473.214 156.222C473.214 156.216 473.214 156.216 473.214 156.21C473.214 156.204 473.214 156.204 473.214 156.198C473.214 156.192 473.214 156.192 473.208 156.186C473.196 156.132 473.184 156.084 473.178 156.031C473.178 156.019 473.178 156.013 473.178 156.001C473.178 155.965 473.172 155.929 473.172 155.899V148.518C473.446 148.739 473.739 148.948 474.031 149.145C474.324 149.342 474.622 149.521 474.926 149.694C475.207 149.855 475.529 150.064 475.863 150.177C475.869 150.177 475.875 150.183 475.881 150.183C475.982 150.231 476.084 150.278 476.191 150.326C476.239 150.344 476.287 150.368 476.329 150.386C476.406 150.422 476.484 150.451 476.561 150.487C476.615 150.511 476.669 150.535 476.722 150.559C478.686 151.394 480.756 151.973 482.845 152.403C484.253 152.689 485.673 152.916 487.105 153.083C487.266 153.101 487.422 153.119 487.583 153.137C487.589 153.137 487.589 153.137 487.595 153.137C487.648 153.143 487.696 153.149 487.744 153.155C488.173 153.196 488.597 153.238 489.021 153.274C489.427 153.31 489.832 153.34 490.238 153.363C490.244 153.363 490.25 153.363 490.25 153.363C490.304 153.369 490.351 153.369 490.405 153.375C490.99 153.411 491.581 153.435 492.165 153.453C495.418 153.548 498.664 153.387 501.892 152.946C501.904 152.946 501.91 152.946 501.922 152.94C502.93 152.797 503.927 152.623 504.923 152.421C507.036 151.991 509.112 151.394 511.099 150.553C511.642 150.32 512.203 150.064 512.746 149.765C512.758 149.759 512.764 149.753 512.776 149.747C512.812 149.723 512.854 149.706 512.889 149.682C513.283 149.461 513.671 149.216 514.035 148.954Z" fill="white"/>
<path d="M514.516 160.077V167.261C514.51 167.309 514.51 167.351 514.504 167.399C514.504 167.47 514.504 167.542 514.498 167.613C514.468 167.757 514.438 167.894 514.39 168.037C514.367 168.103 514.337 168.168 514.319 168.234C514.325 168.21 514.331 168.192 514.337 168.174C514.331 168.186 514.331 168.192 514.325 168.198C514.247 168.347 514.164 168.497 514.068 168.634C514.038 168.676 514.009 168.723 513.979 168.765C513.991 168.753 514.003 168.741 514.009 168.729C513.991 168.753 513.967 168.777 513.949 168.801C513.937 168.813 513.931 168.831 513.919 168.843C513.895 168.872 513.871 168.902 513.853 168.908C513.746 169.028 513.639 169.147 513.525 169.26C513.394 169.392 513.257 169.511 513.119 169.63C513.042 169.696 512.94 169.756 512.875 169.827C512.845 169.851 512.815 169.869 512.791 169.893C512.004 170.46 511.144 170.919 510.261 171.313C510.154 171.361 510.034 171.403 509.933 171.456C510.022 171.409 510.064 171.385 510.07 171.385C510.058 171.391 509.873 171.48 509.814 171.504C509.527 171.617 509.247 171.725 508.954 171.832C508.393 172.035 507.826 172.214 507.254 172.381C505.959 172.757 504.646 173.055 503.315 173.294C502.969 173.354 502.617 173.413 502.271 173.473C502.11 173.497 501.949 173.521 501.788 173.545C501.692 173.557 501.591 173.575 501.495 173.587C501.471 173.593 501.442 173.593 501.418 173.598C501.412 173.598 501.4 173.598 501.394 173.598C501.388 173.598 501.388 173.598 501.382 173.598C501.376 173.598 501.37 173.598 501.364 173.598C501.358 173.598 501.352 173.598 501.346 173.598C501.352 173.598 501.352 173.598 501.358 173.598C500.6 173.706 499.842 173.783 499.079 173.849C495.868 174.136 492.628 174.147 489.412 173.909C488.618 173.849 487.824 173.772 487.037 173.676C486.87 173.658 486.703 173.634 486.536 173.616C486.518 173.616 486.446 173.604 486.392 173.598C486.398 173.598 486.41 173.598 486.422 173.598C486.368 173.593 486.309 173.581 486.255 173.575C485.867 173.521 485.479 173.461 485.091 173.396C483.731 173.169 482.382 172.888 481.052 172.53C479.912 172.22 478.796 171.85 477.704 171.409C477.71 171.409 477.716 171.414 477.716 171.414C477.895 171.492 477.674 171.403 477.638 171.385C477.644 171.385 477.656 171.391 477.674 171.397C477.621 171.373 477.567 171.349 477.519 171.325C477.412 171.277 477.304 171.229 477.197 171.176C476.946 171.062 476.702 170.937 476.457 170.812C476.045 170.597 475.639 170.364 475.252 170.108C475.079 169.994 474.917 169.875 474.75 169.756C474.762 169.768 474.774 169.779 474.792 169.785C474.959 169.929 474.547 169.606 474.726 169.738C474.732 169.744 474.738 169.75 474.744 169.75C474.732 169.738 474.715 169.726 474.703 169.714C474.613 169.636 474.524 169.565 474.434 169.487C474.195 169.272 473.987 169.04 473.778 168.801C473.796 168.825 473.808 168.837 473.808 168.837C473.796 168.831 473.748 168.771 473.706 168.723C473.694 168.711 473.688 168.699 473.682 168.687C473.629 168.616 473.581 168.538 473.533 168.461C473.461 168.341 473.402 168.222 473.342 168.097C473.336 168.079 473.33 168.067 473.324 168.049C473.3 167.983 473.282 167.918 473.265 167.852C473.247 167.786 473.229 167.721 473.217 167.655C473.211 167.637 473.211 167.619 473.205 167.601C473.199 167.554 473.193 167.5 473.193 167.452C473.187 167.357 473.163 167.285 473.163 167.196C473.163 167.178 473.163 167.154 473.163 167.13V167.124C473.169 166.993 473.163 166.856 473.163 166.724V160.041C474.434 161.079 476.027 161.825 477.489 162.398C477.573 162.434 477.662 162.464 477.746 162.499H477.752C477.841 162.535 477.931 162.565 478.02 162.595C478.062 162.613 478.104 162.625 478.152 162.643C478.235 162.673 478.313 162.702 478.396 162.732C478.45 162.75 478.504 162.768 478.557 162.786C478.653 162.822 478.748 162.852 478.844 162.881C479.017 162.941 479.196 162.995 479.369 163.048C479.9 163.216 480.431 163.365 480.968 163.496C481.547 163.639 482.126 163.776 482.705 163.896C482.711 163.896 482.717 163.896 482.723 163.896C484.214 164.2 485.724 164.427 487.234 164.6C488.332 164.725 489.436 164.821 490.54 164.88C490.647 164.886 490.76 164.892 490.868 164.898C491.345 164.922 491.822 164.94 492.294 164.952C493.153 164.976 494.012 164.982 494.872 164.964C494.979 164.964 495.081 164.958 495.188 164.958C495.206 164.958 495.218 164.958 495.236 164.958C495.367 164.958 495.498 164.952 495.63 164.946C495.695 164.946 495.761 164.94 495.826 164.94C496.859 164.904 497.891 164.845 498.923 164.755C499.866 164.672 500.815 164.576 501.758 164.445C502.599 164.331 503.435 164.194 504.27 164.039C505.153 163.872 506.036 163.681 506.908 163.454C506.925 163.448 506.937 163.448 506.955 163.442C507.671 163.251 508.375 163.043 509.074 162.81C510.536 162.315 511.998 161.718 513.316 160.906C513.734 160.662 514.134 160.381 514.516 160.077Z" fill="white"/>
<path d="M579.674 167.741C576.145 167.741 573.091 166.978 570.513 165.451C567.968 163.89 566 161.735 564.608 158.987C563.217 156.204 562.521 152.998 562.521 149.367C562.521 145.702 563.217 142.496 564.608 139.747C566 136.965 567.968 134.793 570.513 133.232C573.091 131.671 576.145 130.891 579.674 130.891C583.848 130.891 587.258 131.909 589.905 133.945C592.551 135.981 594.231 138.831 594.944 142.496H588.938C588.463 140.426 587.445 138.78 585.884 137.559C584.323 136.337 582.236 135.726 579.623 135.726C576.06 135.726 573.244 136.948 571.174 139.391C569.104 141.8 568.069 145.125 568.069 149.367C568.069 153.574 569.104 156.883 571.174 159.292C573.244 161.701 576.06 162.906 579.623 162.906C582.236 162.906 584.323 162.329 585.884 161.175C587.445 160.022 588.463 158.444 588.938 156.442H594.944C594.231 159.971 592.551 162.736 589.905 164.738C587.258 166.74 583.848 167.741 579.674 167.741ZM608.161 167.741C606.023 167.741 604.259 167.385 602.868 166.672C601.476 165.96 600.441 165.027 599.763 163.873C599.084 162.685 598.745 161.396 598.745 160.005C598.745 157.562 599.695 155.627 601.595 154.202C603.495 152.777 606.21 152.065 609.739 152.065H616.356V151.606C616.356 149.638 615.813 148.162 614.727 147.178C613.675 146.194 612.301 145.702 610.604 145.702C609.111 145.702 607.805 146.075 606.685 146.822C605.599 147.535 604.937 148.603 604.7 150.029H599.305C599.474 148.196 600.085 146.635 601.137 145.346C602.223 144.023 603.58 143.022 605.209 142.343C606.872 141.63 608.687 141.274 610.655 141.274C614.184 141.274 616.916 142.207 618.85 144.073C620.784 145.906 621.751 148.417 621.751 151.606V167.13H617.068L616.61 162.804C615.898 164.195 614.863 165.366 613.505 166.316C612.148 167.266 610.367 167.741 608.161 167.741ZM609.23 163.364C610.689 163.364 611.911 163.025 612.895 162.346C613.913 161.633 614.693 160.7 615.236 159.547C615.813 158.393 616.169 157.12 616.305 155.729H610.299C608.161 155.729 606.634 156.102 605.718 156.849C604.836 157.595 604.395 158.529 604.395 159.648C604.395 160.802 604.819 161.718 605.667 162.397C606.549 163.042 607.737 163.364 609.23 163.364ZM638.942 167.741C636.465 167.741 634.243 167.181 632.275 166.062C630.34 164.942 628.814 163.398 627.694 161.43C626.608 159.428 626.065 157.12 626.065 154.508C626.065 151.895 626.608 149.604 627.694 147.636C628.814 145.634 630.34 144.073 632.275 142.954C634.243 141.834 636.465 141.274 638.942 141.274C642.064 141.274 644.677 142.088 646.781 143.717C648.918 145.346 650.293 147.552 650.903 150.334H645.254C644.914 148.943 644.168 147.857 643.014 147.076C641.86 146.296 640.503 145.906 638.942 145.906C637.619 145.906 636.397 146.245 635.278 146.924C634.158 147.568 633.259 148.536 632.58 149.825C631.901 151.08 631.562 152.641 631.562 154.508C631.562 156.374 631.901 157.952 632.58 159.241C633.259 160.497 634.158 161.464 635.278 162.142C636.397 162.821 637.619 163.16 638.942 163.16C640.503 163.16 641.86 162.77 643.014 161.99C644.168 161.209 644.914 160.106 645.254 158.681H650.903C650.326 161.396 648.969 163.584 646.831 165.247C644.694 166.91 642.064 167.741 638.942 167.741ZM655.694 167.13V130.484H661.089V145.957C661.938 144.498 663.108 143.361 664.601 142.547C666.128 141.698 667.808 141.274 669.64 141.274C672.66 141.274 675.036 142.224 676.766 144.124C678.497 146.025 679.362 148.858 679.362 152.624V167.13H674.018V153.184C674.018 148.298 672.067 145.855 668.164 145.855C666.128 145.855 664.432 146.567 663.074 147.993C661.751 149.418 661.089 151.454 661.089 154.1V167.13H655.694ZM687.71 137.1C686.692 137.1 685.843 136.795 685.165 136.184C684.52 135.54 684.198 134.742 684.198 133.792C684.198 132.842 684.52 132.062 685.165 131.451C685.843 130.806 686.692 130.484 687.71 130.484C688.728 130.484 689.559 130.806 690.204 131.451C690.882 132.062 691.222 132.842 691.222 133.792C691.222 134.742 690.882 135.54 690.204 136.184C689.559 136.795 688.728 137.1 687.71 137.1ZM685.012 167.13V141.885H690.407V167.13H685.012ZM696.469 167.13V141.885H701.254L701.661 146.313C702.441 144.752 703.578 143.531 705.071 142.648C706.598 141.732 708.345 141.274 710.313 141.274C713.367 141.274 715.76 142.224 717.49 144.124C719.255 146.025 720.137 148.858 720.137 152.624V167.13H714.793V153.184C714.793 148.298 712.791 145.855 708.787 145.855C706.785 145.855 705.122 146.567 703.798 147.993C702.509 149.418 701.864 151.454 701.864 154.1V167.13H696.469ZM735.763 159.394C734.44 159.394 733.218 159.241 732.098 158.936L729.91 161.073C730.283 161.311 730.741 161.515 731.284 161.684C731.827 161.854 732.59 162.007 733.574 162.142C734.559 162.278 735.899 162.414 737.595 162.55C740.955 162.855 743.381 163.669 744.874 164.993C746.367 166.282 747.113 168.013 747.113 170.184C747.113 171.677 746.706 173.085 745.892 174.409C745.111 175.766 743.873 176.852 742.176 177.666C740.514 178.515 738.376 178.939 735.763 178.939C732.234 178.939 729.367 178.26 727.161 176.903C724.99 175.579 723.904 173.561 723.904 170.846C723.904 169.794 724.175 168.742 724.718 167.69C725.295 166.672 726.194 165.705 727.416 164.789C726.703 164.484 726.075 164.161 725.533 163.822C725.024 163.449 724.565 163.075 724.158 162.702V161.481L728.536 157.002C726.567 155.305 725.583 153.082 725.583 150.334C725.583 148.671 725.974 147.161 726.754 145.804C727.568 144.413 728.739 143.31 730.266 142.496C731.793 141.681 733.625 141.274 735.763 141.274C737.188 141.274 738.512 141.478 739.733 141.885H749.149V145.448L744.67 145.702C745.485 147.093 745.892 148.637 745.892 150.334C745.892 152.031 745.485 153.558 744.67 154.915C743.89 156.272 742.736 157.358 741.209 158.172C739.716 158.987 737.901 159.394 735.763 159.394ZM735.763 155.169C737.324 155.169 738.579 154.762 739.53 153.948C740.514 153.099 741.006 151.912 741.006 150.385C741.006 148.824 740.514 147.636 739.53 146.822C738.579 146.008 737.324 145.6 735.763 145.6C734.168 145.6 732.879 146.008 731.895 146.822C730.945 147.636 730.47 148.824 730.47 150.385C730.47 151.912 730.945 153.099 731.895 153.948C732.879 154.762 734.168 155.169 735.763 155.169ZM728.994 170.337C728.994 171.796 729.638 172.882 730.928 173.594C732.217 174.341 733.829 174.714 735.763 174.714C737.629 174.714 739.139 174.307 740.293 173.493C741.447 172.712 742.024 171.66 742.024 170.337C742.024 169.353 741.633 168.505 740.853 167.792C740.072 167.113 738.596 166.689 736.425 166.52C734.796 166.418 733.354 166.265 732.098 166.062C730.911 166.706 730.096 167.402 729.655 168.148C729.214 168.895 728.994 169.624 728.994 170.337Z" fill="#470D69"/>
<rect x="423.307" y="78.1813" width="353.322" height="143.898" rx="25.4491" stroke="#A31BCB" stroke-opacity="0.2" stroke-width="8.48304" shape-rendering="crispEdges"/>
</g>
</g>
<defs>
<filter id="filter0_d_3168_26580" x="416.945" y="71.8192" width="366.047" height="156.623" filterUnits="userSpaceOnUse" color-interpolation-filters="sRGB">
<feFlood flood-opacity="0" result="BackgroundImageFix"/>
<feColorMatrix in="SourceAlpha" type="matrix" values="0 0 0 0 0 0 0 0 0 0 0 0 0 0 0 0 0 0 127 0" result="hardAlpha"/>
<feOffset/>
<feGaussianBlur stdDeviation="1.06038"/>
<feComposite in2="hardAlpha" operator="out"/>
<feColorMatrix type="matrix" values="0 0 0 0 0.639216 0 0 0 0 0.105882 0 0 0 0 0.796078 0 0 0 0.5 0"/>
<feBlend mode="normal" in2="BackgroundImageFix" result="effect1_dropShadow_3168_26580"/>
<feBlend mode="normal" in="SourceGraphic" in2="effect1_dropShadow_3168_26580" result="shape"/>
</filter>
<linearGradient id="paint0_linear_3168_26580" x1="454.692" y1="103.63" x2="514.178" y2="194.998" gradientUnits="userSpaceOnUse">
<stop stop-color="#5F5F5F"/>
<stop offset="1" stop-color="#363636"/>
</linearGradient>
<clipPath id="clip0_3168_26580">
<rect width="1200" height="300" fill="white"/>
</clipPath>
</defs>
</svg>
