<svg width="1200" height="301" viewBox="0 0 1200 301" fill="none" xmlns="http://www.w3.org/2000/svg">
<g clip-path="url(#clip0_3012_14120)">
<rect width="1200" height="300" fill="#420B57"/>
<path opacity="0.11" fill-rule="evenodd" clip-rule="evenodd" d="M885.845 -191.525C890.764 -195.957 900.177 -197.702 911.037 -196.194L1165.57 -160.851C1177.89 -159.14 1190.17 -153.513 1197.43 -146.246L1243.99 -99.691L1316.63 -27.0488L1363.18 19.5063C1370.45 26.7735 1371.51 34.4797 1365.93 39.5095L1250.63 143.396C1245.71 147.828 1236.29 149.573 1225.43 148.065L970.907 112.722C958.583 111.011 946.307 105.384 939.039 98.117L892.484 51.5619L819.842 -21.0803L773.287 -67.6354C766.02 -74.9026 764.964 -82.6088 770.546 -87.6386L885.845 -191.525Z" fill="white"/>
<path fill-rule="evenodd" clip-rule="evenodd" d="M-80.2959 157.134C-75.3765 152.702 -65.9633 150.957 -55.1033 152.465L199.425 187.808C211.748 189.519 224.025 195.146 231.292 202.413L277.847 248.968L350.489 321.61L397.044 368.165C404.312 375.433 405.367 383.139 399.785 388.169L284.487 492.055C279.567 496.488 270.154 498.232 259.294 496.724L4.76602 461.381C-7.55724 459.67 -19.834 454.043 -27.1013 446.776L-73.6563 400.221L-146.299 327.579L-192.854 281.024C-200.121 273.757 -201.177 266.05 -195.594 261.021L-80.2959 157.134Z" fill="#A31BCB"/>
<g filter="url(#filter0_d_3012_14120)">
<rect x="365.5" y="82.2666" width="468.936" height="135.729" rx="21.2076" fill="white" shape-rendering="crispEdges"/>
<rect x="386.708" y="103.474" width="93.3134" height="93.3134" rx="16.9661" fill="url(#paint0_linear_3012_14120)"/>
<path d="M438.584 129.57C439.278 129.746 439.729 130.379 439.891 131.076C440.274 132.734 441.318 134.235 442.909 135.153C444.37 135.997 446.026 136.195 447.549 135.836C448.244 135.672 449.011 135.796 449.476 136.339C451.175 138.322 452.514 140.622 453.393 143.139C453.658 143.9 453.272 144.706 452.65 145.218C451.234 146.385 450.331 148.153 450.331 150.131C450.331 152.109 451.234 153.877 452.65 155.044C453.272 155.556 453.658 156.362 453.393 157.123C452.514 159.639 451.175 161.939 449.476 163.922C449.011 164.465 448.245 164.589 447.549 164.425C446.027 164.066 444.37 164.264 442.908 165.108C441.318 166.026 440.274 167.527 439.891 169.186C439.729 169.883 439.278 170.516 438.584 170.692C436.914 171.114 435.166 171.339 433.365 171.339C431.564 171.339 429.816 171.114 428.146 170.692C427.452 170.516 427.001 169.883 426.839 169.186C426.456 167.527 425.412 166.026 423.822 165.108C422.36 164.264 420.703 164.066 419.181 164.425C418.485 164.589 417.719 164.465 417.253 163.922C415.555 161.939 414.215 159.639 413.337 157.123C413.071 156.362 413.458 155.556 414.08 155.044C415.496 153.877 416.399 152.109 416.399 150.131C416.399 148.153 415.496 146.385 414.08 145.218C413.458 144.706 413.071 143.899 413.337 143.139C414.216 140.622 415.555 138.322 417.254 136.339C417.719 135.796 418.486 135.672 419.181 135.836C420.704 136.195 422.36 135.997 423.822 135.153C425.412 134.235 426.456 132.734 426.839 131.076C427.001 130.379 427.452 129.746 428.146 129.57C429.816 129.148 431.564 128.923 433.365 128.923C435.166 128.923 436.914 129.148 438.584 129.57Z" fill="white" fill-opacity="0.3"/>
<path fill-rule="evenodd" clip-rule="evenodd" d="M427.756 128.028C429.552 127.574 431.432 127.333 433.365 127.333C435.299 127.333 437.178 127.574 438.974 128.028C440.44 128.399 441.197 129.665 441.441 130.717C441.729 131.964 442.511 133.087 443.704 133.775C444.8 134.408 446.04 134.557 447.184 134.288C448.235 134.04 449.702 134.158 450.684 135.304C452.509 137.434 453.95 139.907 454.895 142.614C455.459 144.23 454.585 145.685 453.662 146.446C452.596 147.323 451.922 148.648 451.922 150.131C451.922 151.614 452.596 152.938 453.662 153.816C454.585 154.576 455.459 156.031 454.895 157.647C453.95 160.354 452.51 162.826 450.684 164.957C449.702 166.103 448.235 166.221 447.184 165.973C446.04 165.703 444.801 165.852 443.704 166.485C442.511 167.174 441.729 168.297 441.44 169.544C441.197 170.596 440.44 171.862 438.974 172.233C437.178 172.688 435.299 172.929 433.365 172.929C431.432 172.929 429.552 172.688 427.756 172.233C426.29 171.862 425.533 170.596 425.29 169.544C425.002 168.297 424.219 167.174 423.026 166.485C421.93 165.852 420.69 165.703 419.546 165.973C418.495 166.221 417.028 166.103 416.046 164.957C414.22 162.826 412.78 160.354 411.836 157.647C411.271 156.031 412.145 154.576 413.068 153.816C414.134 152.938 414.808 151.614 414.808 150.131C414.808 148.647 414.134 147.323 413.068 146.446C412.145 145.685 411.271 144.23 411.836 142.614C412.78 139.907 414.221 137.434 416.046 135.304C417.028 134.158 418.496 134.04 419.547 134.288C420.69 134.557 421.93 134.408 423.026 133.775C424.219 133.087 425.001 131.964 425.29 130.717C425.533 129.665 426.29 128.399 427.756 128.028ZM428.549 131.109C428.543 131.113 428.534 131.122 428.522 131.137C428.478 131.19 428.422 131.291 428.389 131.434C427.91 133.504 426.605 135.383 424.617 136.53C422.791 137.584 420.717 137.832 418.816 137.384C418.674 137.35 418.559 137.356 418.492 137.371C418.472 137.376 418.46 137.38 418.454 137.383C416.888 139.213 415.654 141.332 414.844 143.649C414.845 143.657 414.849 143.671 414.857 143.692C414.887 143.769 414.962 143.884 415.091 143.99C416.858 145.446 417.99 147.657 417.99 150.131C417.99 152.604 416.858 154.815 415.091 156.271C414.962 156.377 414.887 156.492 414.857 156.569C414.849 156.59 414.845 156.604 414.844 156.612C415.654 158.929 416.888 161.048 418.453 162.878C418.46 162.881 418.472 162.885 418.492 162.89C418.558 162.905 418.673 162.911 418.816 162.877C420.717 162.429 422.791 162.676 424.617 163.73C426.605 164.878 427.91 166.757 428.389 168.827C428.422 168.97 428.478 169.071 428.522 169.124C428.535 169.139 428.544 169.148 428.549 169.153C430.088 169.541 431.701 169.748 433.365 169.748C435.029 169.748 436.642 169.541 438.181 169.153C438.187 169.148 438.196 169.139 438.208 169.124C438.252 169.071 438.308 168.97 438.341 168.827C438.82 166.757 440.125 164.878 442.113 163.73C443.939 162.676 446.013 162.429 447.914 162.877C448.057 162.911 448.172 162.905 448.239 162.889C448.258 162.885 448.27 162.881 448.277 162.878C449.842 161.048 451.076 158.929 451.886 156.612C451.885 156.604 451.881 156.59 451.873 156.569C451.843 156.492 451.768 156.377 451.639 156.271C449.872 154.815 448.741 152.604 448.741 150.131C448.741 147.657 449.872 145.447 451.639 143.99C451.768 143.884 451.843 143.769 451.873 143.692C451.881 143.671 451.885 143.657 451.886 143.649C451.076 141.332 449.842 139.213 448.276 137.383C448.27 137.38 448.258 137.376 448.238 137.371C448.171 137.356 448.056 137.35 447.914 137.384C446.013 137.832 443.939 137.584 442.113 136.53C440.126 135.383 438.82 133.504 438.341 131.434C438.308 131.291 438.252 131.19 438.209 131.138C438.196 131.122 438.187 131.113 438.182 131.109C436.642 130.72 435.029 130.514 433.365 130.514C431.701 130.514 430.088 130.72 428.549 131.109ZM438.176 131.105C438.176 131.105 438.177 131.105 438.178 131.106L438.176 131.105ZM448.282 137.386C448.282 137.387 448.281 137.386 448.28 137.385L448.282 137.386ZM448.283 162.874C448.283 162.874 448.282 162.875 448.28 162.876L448.283 162.874ZM438.175 169.157C438.175 169.157 438.176 169.156 438.178 169.155L438.175 169.157ZM428.555 169.157C428.555 169.157 428.554 169.156 428.552 169.155L428.555 169.157ZM418.447 162.874C418.447 162.874 418.448 162.875 418.45 162.876L418.447 162.874ZM418.448 137.386C418.448 137.386 418.448 137.386 418.45 137.385L418.448 137.386ZM428.552 131.106C428.554 131.105 428.555 131.104 428.555 131.105L428.552 131.106Z" fill="white" fill-opacity="0.3"/>
<circle cx="6.36228" cy="6.36228" r="6.36228" transform="matrix(-1 0 0 1 439.729 143.769)" fill="white"/>
<path d="M504.842 167.131V131.502H516.396C520.57 131.502 523.997 132.232 526.678 133.691C529.392 135.15 531.394 137.22 532.684 139.9C534.007 142.547 534.669 145.703 534.669 149.367C534.669 152.998 534.007 156.154 532.684 158.834C531.394 161.481 529.392 163.534 526.678 164.993C523.997 166.418 520.57 167.131 516.396 167.131H504.842ZM510.237 162.55H516.193C519.416 162.55 521.961 162.024 523.827 160.972C525.728 159.92 527.085 158.41 527.899 156.442C528.747 154.474 529.172 152.116 529.172 149.367C529.172 146.619 528.747 144.244 527.899 142.242C527.085 140.24 525.728 138.713 523.827 137.661C521.961 136.575 519.416 136.032 516.193 136.032H510.237V162.55ZM551.175 167.742C548.697 167.742 546.492 167.199 544.558 166.113C542.658 164.993 541.165 163.449 540.079 161.481C538.993 159.513 538.45 157.223 538.45 154.61C538.45 151.963 538.976 149.639 540.028 147.637C541.114 145.635 542.607 144.074 544.507 142.954C546.441 141.834 548.68 141.275 551.225 141.275C553.702 141.275 555.857 141.834 557.689 142.954C559.522 144.04 560.947 145.499 561.965 147.331C562.983 149.164 563.492 151.183 563.492 153.388C563.492 153.728 563.475 154.101 563.441 154.508C563.441 154.881 563.424 155.306 563.39 155.781H543.743C543.913 158.224 544.71 160.09 546.136 161.379C547.595 162.635 549.274 163.263 551.175 163.263C552.701 163.263 553.974 162.923 554.992 162.245C556.044 161.532 556.824 160.582 557.333 159.394H562.728C562.05 161.77 560.692 163.755 558.657 165.349C556.655 166.944 554.161 167.742 551.175 167.742ZM551.175 145.703C549.376 145.703 547.781 146.246 546.39 147.331C544.999 148.383 544.151 149.978 543.845 152.116H558.097C557.995 150.148 557.299 148.587 556.01 147.433C554.72 146.28 553.109 145.703 551.175 145.703ZM574.11 167.131L564.643 141.885H570.293L577.317 161.99L584.341 141.885H589.94L580.523 167.131H574.11ZM603.829 167.742C601.352 167.742 599.146 167.199 597.212 166.113C595.312 164.993 593.819 163.449 592.733 161.481C591.647 159.513 591.104 157.223 591.104 154.61C591.104 151.963 591.63 149.639 592.682 147.637C593.768 145.635 595.261 144.074 597.161 142.954C599.095 141.834 601.335 141.275 603.88 141.275C606.357 141.275 608.512 141.834 610.344 142.954C612.176 144.04 613.601 145.499 614.619 147.331C615.637 149.164 616.146 151.183 616.146 153.388C616.146 153.728 616.129 154.101 616.095 154.508C616.095 154.881 616.078 155.306 616.045 155.781H596.398C596.568 158.224 597.365 160.09 598.79 161.379C600.249 162.635 601.929 163.263 603.829 163.263C605.356 163.263 606.628 162.923 607.646 162.245C608.698 161.532 609.479 160.582 609.988 159.394H615.383C614.704 161.77 613.347 163.755 611.311 165.349C609.309 166.944 606.815 167.742 603.829 167.742ZM603.829 145.703C602.031 145.703 600.436 146.246 599.045 147.331C597.653 148.383 596.805 149.978 596.5 152.116H610.751C610.649 150.148 609.954 148.587 608.664 147.433C607.375 146.28 605.763 145.703 603.829 145.703ZM620.684 167.131V130.484H626.079V167.131H620.684ZM643.659 167.742C641.25 167.742 639.079 167.199 637.145 166.113C635.244 164.993 633.734 163.449 632.615 161.481C631.495 159.479 630.935 157.155 630.935 154.508C630.935 151.861 631.495 149.554 632.615 147.586C633.768 145.584 635.312 144.04 637.246 142.954C639.18 141.834 641.335 141.275 643.71 141.275C646.12 141.275 648.274 141.834 650.174 142.954C652.109 144.04 653.636 145.584 654.755 147.586C655.909 149.554 656.486 151.861 656.486 154.508C656.486 157.155 655.909 159.479 654.755 161.481C653.636 163.449 652.109 164.993 650.174 166.113C648.24 167.199 646.069 167.742 643.659 167.742ZM643.659 163.11C644.949 163.11 646.137 162.788 647.222 162.143C648.342 161.498 649.241 160.548 649.92 159.293C650.599 158.003 650.938 156.408 650.938 154.508C650.938 152.608 650.599 151.03 649.92 149.775C649.275 148.485 648.393 147.518 647.273 146.873C646.187 146.229 645 145.906 643.71 145.906C642.421 145.906 641.216 146.229 640.097 146.873C639.011 147.518 638.129 148.485 637.45 149.775C636.771 151.03 636.432 152.608 636.432 154.508C636.432 156.408 636.771 158.003 637.45 159.293C638.129 160.548 639.011 161.498 640.097 162.143C641.182 162.788 642.37 163.11 643.659 163.11ZM661.26 178.328V141.885H666.095L666.655 145.805C667.47 144.617 668.589 143.565 670.015 142.649C671.44 141.733 673.272 141.275 675.512 141.275C677.955 141.275 680.109 141.851 681.976 143.005C683.842 144.159 685.301 145.737 686.353 147.739C687.439 149.741 687.982 152.014 687.982 154.559C687.982 157.104 687.439 159.377 686.353 161.379C685.301 163.347 683.842 164.908 681.976 166.062C680.109 167.182 677.938 167.742 675.461 167.742C673.493 167.742 671.745 167.351 670.218 166.571C668.725 165.791 667.537 164.688 666.655 163.263V178.328H661.26ZM674.544 163.059C676.852 163.059 678.752 162.279 680.245 160.718C681.738 159.123 682.485 157.053 682.485 154.508C682.485 152.845 682.145 151.369 681.467 150.08C680.788 148.791 679.855 147.79 678.667 147.077C677.48 146.33 676.105 145.957 674.544 145.957C672.237 145.957 670.337 146.755 668.844 148.349C667.385 149.944 666.655 151.997 666.655 154.508C666.655 157.053 667.385 159.123 668.844 160.718C670.337 162.279 672.237 163.059 674.544 163.059ZM692.757 167.131V141.885H697.541L697.999 145.448C698.814 144.159 699.882 143.141 701.206 142.394C702.563 141.648 704.124 141.275 705.888 141.275C709.892 141.275 712.675 142.852 714.236 146.008C715.152 144.549 716.373 143.395 717.9 142.547C719.461 141.699 721.141 141.275 722.939 141.275C726.095 141.275 728.572 142.225 730.37 144.125C732.169 146.025 733.068 148.858 733.068 152.625V167.131H727.673V153.185C727.673 148.299 725.807 145.855 722.074 145.855C720.174 145.855 718.613 146.568 717.391 147.993C716.204 149.418 715.61 151.454 715.61 154.101V167.131H710.215V153.185C710.215 148.299 708.331 145.855 704.565 145.855C702.699 145.855 701.155 146.568 699.933 147.993C698.746 149.418 698.152 151.454 698.152 154.101V167.131H692.757ZM750.128 167.742C747.651 167.742 745.446 167.199 743.511 166.113C741.611 164.993 740.118 163.449 739.032 161.481C737.947 159.513 737.404 157.223 737.404 154.61C737.404 151.963 737.93 149.639 738.981 147.637C740.067 145.635 741.56 144.074 743.461 142.954C745.395 141.834 747.634 141.275 750.179 141.275C752.656 141.275 754.811 141.834 756.643 142.954C758.476 144.04 759.901 145.499 760.919 147.331C761.937 149.164 762.446 151.183 762.446 153.388C762.446 153.728 762.429 154.101 762.395 154.508C762.395 154.881 762.378 155.306 762.344 155.781H742.697C742.867 158.224 743.664 160.09 745.089 161.379C746.548 162.635 748.228 163.263 750.128 163.263C751.655 163.263 752.928 162.923 753.946 162.245C754.997 161.532 755.778 160.582 756.287 159.394H761.682C761.003 161.77 759.646 163.755 757.61 165.349C755.608 166.944 753.114 167.742 750.128 167.742ZM750.128 145.703C748.33 145.703 746.735 146.246 745.344 147.331C743.953 148.383 743.104 149.978 742.799 152.116H757.05C756.949 150.148 756.253 148.587 754.964 147.433C753.674 146.28 752.062 145.703 750.128 145.703ZM766.983 167.131V141.885H771.768L772.175 146.313C772.955 144.753 774.092 143.531 775.585 142.649C777.112 141.733 778.859 141.275 780.827 141.275C783.881 141.275 786.274 142.225 788.004 144.125C789.769 146.025 790.651 148.858 790.651 152.625V167.131H785.307V153.185C785.307 148.299 783.305 145.855 779.301 145.855C777.299 145.855 775.636 146.568 774.313 147.993C773.023 149.418 772.378 151.454 772.378 154.101V167.131H766.983ZM806.532 167.131C804.055 167.131 802.087 166.537 800.627 165.349C799.168 164.128 798.439 161.973 798.439 158.885V146.415H794.112V141.885H798.439L799.101 135.472H803.834V141.885H810.96V146.415H803.834V158.885C803.834 160.277 804.122 161.244 804.699 161.787C805.31 162.296 806.345 162.55 807.804 162.55H810.705V167.131H806.532Z" fill="#470D69"/>
<rect x="361.258" y="78.0251" width="477.419" height="144.212" rx="25.4491" stroke="#A31BCB" stroke-opacity="0.2" stroke-width="8.48304" shape-rendering="crispEdges"/>
</g>
</g>
<defs>
<filter id="filter0_d_3012_14120" x="354.896" y="71.6629" width="490.143" height="156.936" filterUnits="userSpaceOnUse" color-interpolation-filters="sRGB">
<feFlood flood-opacity="0" result="BackgroundImageFix"/>
<feColorMatrix in="SourceAlpha" type="matrix" values="0 0 0 0 0 0 0 0 0 0 0 0 0 0 0 0 0 0 127 0" result="hardAlpha"/>
<feOffset/>
<feGaussianBlur stdDeviation="1.06038"/>
<feComposite in2="hardAlpha" operator="out"/>
<feColorMatrix type="matrix" values="0 0 0 0 0.639216 0 0 0 0 0.105882 0 0 0 0 0.796078 0 0 0 0.5 0"/>
<feBlend mode="normal" in2="BackgroundImageFix" result="effect1_dropShadow_3012_14120"/>
<feBlend mode="normal" in="SourceGraphic" in2="effect1_dropShadow_3012_14120" result="shape"/>
</filter>
<linearGradient id="paint0_linear_3012_14120" x1="392.847" y1="103.474" x2="451.781" y2="196.788" gradientUnits="userSpaceOnUse">
<stop stop-color="#5F5F5F"/>
<stop offset="1" stop-color="#363636"/>
</linearGradient>
<clipPath id="clip0_3012_14120">
<rect width="1200" height="300" fill="white"/>
</clipPath>
</defs>
</svg>
