<svg width="1200" height="301" viewBox="0 0 1200 301" fill="none" xmlns="http://www.w3.org/2000/svg">
<g clip-path="url(#clip0_3012_14090)">
<rect width="1200" height="300" fill="white"/>
<rect width="1200" height="300" fill="#420B57"/>
<path opacity="0.11" fill-rule="evenodd" clip-rule="evenodd" d="M885.845 -191.525C890.764 -195.957 900.177 -197.702 911.037 -196.194L1165.57 -160.851C1177.89 -159.14 1190.17 -153.513 1197.43 -146.246L1243.99 -99.691L1316.63 -27.0488L1363.18 19.5063C1370.45 26.7735 1371.51 34.4797 1365.93 39.5095L1250.63 143.396C1245.71 147.828 1236.29 149.573 1225.43 148.065L970.907 112.722C958.583 111.011 946.307 105.384 939.039 98.117L892.484 51.5619L819.842 -21.0803L773.287 -67.6354C766.02 -74.9026 764.964 -82.6088 770.546 -87.6386L885.845 -191.525Z" fill="white"/>
<path fill-rule="evenodd" clip-rule="evenodd" d="M-80.2959 157.134C-75.3765 152.702 -65.9633 150.957 -55.1033 152.465L199.425 187.808C211.748 189.519 224.025 195.146 231.292 202.413L277.847 248.968L350.489 321.61L397.044 368.165C404.312 375.433 405.367 383.139 399.785 388.169L284.487 492.055C279.567 496.488 270.154 498.232 259.294 496.724L4.76602 461.381C-7.55724 459.67 -19.834 454.043 -27.1013 446.776L-73.6563 400.221L-146.299 327.579L-192.854 281.024C-200.121 273.757 -201.177 266.05 -195.594 261.021L-80.2959 157.134Z" fill="#A31BCB"/>
<g filter="url(#filter0_d_3012_14090)">
<rect x="417.5" y="82.2666" width="364.936" height="135.729" rx="21.2076" fill="white" shape-rendering="crispEdges"/>
<rect x="438.708" y="103.474" width="93.3134" height="93.3134" rx="16.9661" fill="url(#paint0_linear_3012_14090)"/>
<path d="M471.579 150.13C471.579 146.812 474.269 144.122 477.588 144.122H483.597V156.139H477.588C474.269 156.139 471.579 153.449 471.579 150.13Z" fill="white"/>
<path d="M477.588 142.001H483.597V129.983H477.588C474.269 129.983 471.579 132.674 471.579 135.992C471.579 139.311 474.269 142.001 477.588 142.001Z" fill="white"/>
<path d="M497.735 135.992C497.735 139.311 495.045 142.001 491.726 142.001H485.717V129.983H491.726C495.045 129.983 497.735 132.674 497.735 135.992Z" fill="white"/>
<path d="M477.588 158.26H483.597V164.269C483.597 167.588 480.906 170.278 477.588 170.278C474.269 170.278 471.579 167.588 471.579 164.269C471.579 160.951 474.269 158.26 477.588 158.26Z" fill="white"/>
<path opacity="0.3" d="M485.716 150.13C485.716 146.812 488.406 144.122 491.725 144.122C495.044 144.122 497.734 146.812 497.734 150.13C497.734 153.449 495.044 156.139 491.725 156.139C488.407 156.139 485.716 153.449 485.716 150.13Z" fill="white"/>
<path d="M556.842 167.131V131.502H562.237V167.131H556.842ZM568.203 167.131V141.885H572.988L573.395 146.313C574.176 144.753 575.312 143.531 576.805 142.649C578.332 141.733 580.08 141.275 582.048 141.275C585.102 141.275 587.494 142.225 589.224 144.125C590.989 146.025 591.871 148.858 591.871 152.625V167.131H586.527V153.185C586.527 148.299 584.525 145.855 580.521 145.855C578.519 145.855 576.856 146.568 575.533 147.993C574.243 149.418 573.599 151.454 573.599 154.101V167.131H568.203ZM607.752 167.131C605.275 167.131 603.307 166.537 601.848 165.349C600.389 164.128 599.659 161.973 599.659 158.885V146.415H595.333V141.885H599.659L600.321 135.472H605.054V141.885H612.18V146.415H605.054V158.885C605.054 160.277 605.343 161.244 605.92 161.787C606.53 162.296 607.565 162.55 609.024 162.55H611.926V167.131H607.752ZM627.845 167.742C625.368 167.742 623.162 167.199 621.228 166.113C619.328 164.993 617.835 163.449 616.749 161.481C615.663 159.513 615.12 157.223 615.12 154.61C615.12 151.963 615.646 149.639 616.698 147.637C617.784 145.635 619.277 144.074 621.177 142.954C623.111 141.834 625.351 141.275 627.896 141.275C630.373 141.275 632.528 141.834 634.36 142.954C636.192 144.04 637.617 145.499 638.635 147.331C639.653 149.164 640.162 151.183 640.162 153.388C640.162 153.728 640.145 154.101 640.111 154.508C640.111 154.881 640.094 155.306 640.06 155.781H620.414C620.583 158.224 621.381 160.09 622.806 161.379C624.265 162.635 625.945 163.263 627.845 163.263C629.372 163.263 630.644 162.923 631.662 162.245C632.714 161.532 633.495 160.582 634.004 159.394H639.399C638.72 161.77 637.363 163.755 635.327 165.349C633.325 166.944 630.831 167.742 627.845 167.742ZM627.845 145.703C626.046 145.703 624.452 146.246 623.06 147.331C621.669 148.383 620.821 149.978 620.516 152.116H634.767C634.665 150.148 633.97 148.587 632.68 147.433C631.391 146.28 629.779 145.703 627.845 145.703ZM644.7 167.131V141.885H649.535L649.993 146.67C650.876 145.007 652.097 143.701 653.658 142.751C655.253 141.767 657.17 141.275 659.409 141.275V146.924H657.933C656.44 146.924 655.1 147.179 653.912 147.688C652.759 148.163 651.826 148.994 651.113 150.182C650.434 151.335 650.095 152.947 650.095 155.017V167.131H644.7ZM664.247 167.131V146.415H660.634V141.885H664.247V138.221C664.247 135.472 664.926 133.504 666.283 132.316C667.674 131.095 669.626 130.484 672.137 130.484H674.783V135.065H672.951C671.763 135.065 670.915 135.319 670.406 135.828C669.897 136.304 669.643 137.118 669.643 138.272V141.885H675.445V146.415H669.643V167.131H664.247ZM687.067 167.742C684.929 167.742 683.165 167.385 681.774 166.673C680.382 165.96 679.347 165.027 678.669 163.873C677.99 162.686 677.651 161.396 677.651 160.005C677.651 157.562 678.601 155.628 680.501 154.203C682.401 152.778 685.116 152.065 688.645 152.065H695.262V151.607C695.262 149.639 694.719 148.163 693.633 147.179C692.581 146.195 691.207 145.703 689.51 145.703C688.017 145.703 686.711 146.076 685.591 146.822C684.505 147.535 683.843 148.604 683.606 150.029H678.211C678.38 148.197 678.991 146.636 680.043 145.346C681.129 144.023 682.486 143.022 684.115 142.343C685.778 141.631 687.593 141.275 689.561 141.275C693.09 141.275 695.821 142.208 697.756 144.074C699.69 145.906 700.657 148.417 700.657 151.607V167.131H695.974L695.516 162.805C694.803 164.196 693.769 165.366 692.411 166.316C691.054 167.267 689.273 167.742 687.067 167.742ZM688.136 163.364C689.595 163.364 690.816 163.025 691.8 162.346C692.818 161.634 693.599 160.701 694.142 159.547C694.719 158.393 695.075 157.121 695.211 155.73H689.205C687.067 155.73 685.54 156.103 684.624 156.849C683.742 157.596 683.3 158.529 683.3 159.649C683.3 160.803 683.725 161.719 684.573 162.397C685.455 163.042 686.643 163.364 688.136 163.364ZM717.848 167.742C715.371 167.742 713.149 167.182 711.181 166.062C709.246 164.942 707.719 163.398 706.6 161.43C705.514 159.428 704.971 157.121 704.971 154.508C704.971 151.895 705.514 149.605 706.6 147.637C707.719 145.635 709.246 144.074 711.181 142.954C713.149 141.834 715.371 141.275 717.848 141.275C720.97 141.275 723.583 142.089 725.686 143.718C727.824 145.346 729.198 147.552 729.809 150.334H724.16C723.82 148.943 723.074 147.857 721.92 147.077C720.766 146.297 719.409 145.906 717.848 145.906C716.525 145.906 715.303 146.246 714.184 146.924C713.064 147.569 712.165 148.536 711.486 149.825C710.807 151.081 710.468 152.642 710.468 154.508C710.468 156.374 710.807 157.952 711.486 159.242C712.165 160.497 713.064 161.464 714.184 162.143C715.303 162.821 716.525 163.161 717.848 163.161C719.409 163.161 720.766 162.771 721.92 161.99C723.074 161.21 723.82 160.107 724.16 158.682H729.809C729.232 161.396 727.875 163.585 725.737 165.248C723.6 166.91 720.97 167.742 717.848 167.742ZM746.409 167.742C743.932 167.742 741.726 167.199 739.792 166.113C737.892 164.993 736.399 163.449 735.313 161.481C734.227 159.513 733.684 157.223 733.684 154.61C733.684 151.963 734.21 149.639 735.262 147.637C736.348 145.635 737.841 144.074 739.741 142.954C741.675 141.834 743.915 141.275 746.459 141.275C748.937 141.275 751.091 141.834 752.924 142.954C754.756 144.04 756.181 145.499 757.199 147.331C758.217 149.164 758.726 151.183 758.726 153.388C758.726 153.728 758.709 154.101 758.675 154.508C758.675 154.881 758.658 155.306 758.624 155.781H738.977C739.147 158.224 739.944 160.09 741.37 161.379C742.829 162.635 744.508 163.263 746.409 163.263C747.936 163.263 749.208 162.923 750.226 162.245C751.278 161.532 752.058 160.582 752.567 159.394H757.962C757.284 161.77 755.927 163.755 753.891 165.349C751.889 166.944 749.395 167.742 746.409 167.742ZM746.409 145.703C744.61 145.703 743.015 146.246 741.624 147.331C740.233 148.383 739.385 149.978 739.079 152.116H753.331C753.229 150.148 752.533 148.587 751.244 147.433C749.954 146.28 748.343 145.703 746.409 145.703Z" fill="#470D69"/>
<rect x="413.258" y="78.0251" width="373.419" height="144.212" rx="25.4491" stroke="#A31BCB" stroke-opacity="0.2" stroke-width="8.48304" shape-rendering="crispEdges"/>
</g>
</g>
<defs>
<filter id="filter0_d_3012_14090" x="406.896" y="71.6629" width="386.143" height="156.936" filterUnits="userSpaceOnUse" color-interpolation-filters="sRGB">
<feFlood flood-opacity="0" result="BackgroundImageFix"/>
<feColorMatrix in="SourceAlpha" type="matrix" values="0 0 0 0 0 0 0 0 0 0 0 0 0 0 0 0 0 0 127 0" result="hardAlpha"/>
<feOffset/>
<feGaussianBlur stdDeviation="1.06038"/>
<feComposite in2="hardAlpha" operator="out"/>
<feColorMatrix type="matrix" values="0 0 0 0 0.639216 0 0 0 0 0.105882 0 0 0 0 0.796078 0 0 0 0.5 0"/>
<feBlend mode="normal" in2="BackgroundImageFix" result="effect1_dropShadow_3012_14090"/>
<feBlend mode="normal" in="SourceGraphic" in2="effect1_dropShadow_3012_14090" result="shape"/>
</filter>
<linearGradient id="paint0_linear_3012_14090" x1="444.847" y1="103.474" x2="503.781" y2="196.788" gradientUnits="userSpaceOnUse">
<stop stop-color="#5F5F5F"/>
<stop offset="1" stop-color="#363636"/>
</linearGradient>
<clipPath id="clip0_3012_14090">
<rect width="1200" height="300" fill="white"/>
</clipPath>
</defs>
</svg>
