
<svg width="46" height="46" viewBox="0 0 46 46" fill="none" xmlns="http://www.w3.org/2000/svg">
    <g clip-path="url(#clip0_1992_22872)">
    <path fill-rule="evenodd" clip-rule="evenodd" d="M21.0831 0.843421C20.3428 0.455838 19.4594 0.455839 18.719 0.843422L1.36662 9.92735C0.526488 10.3672 0 11.237 0 12.1853V18.2603V27.7392V33.8142C0 34.7625 0.526489 35.6324 1.36662 36.0722L18.719 45.1561C19.4594 45.5437 20.3428 45.5437 21.0831 45.1561L38.4355 36.0722C39.2757 35.6324 39.8022 34.7625 39.8022 33.8142V27.7392V18.2603V12.1853C39.8022 11.237 39.2757 10.3672 38.4355 9.92735L21.0831 0.843421Z" fill="url(#paint0_linear_1992_22872)"/>
    <rect width="20.2219" height="20.2219" rx="3.18583" transform="matrix(0.869859 0.4933 -0.869859 0.4933 19.9015 20.4473)" fill="#A31BCB"/>
    <rect y="0.183042" width="19.8509" height="19.8509" rx="3.0003" transform="matrix(0.869859 0.4933 -0.869859 0.4933 20.0607 13.5625)" stroke="white" stroke-width="0.371056"/>
    <path d="M20.2981 17.1554C20.079 17.2734 19.7239 17.2734 19.5048 17.1554C19.2858 17.0373 19.2858 16.8458 19.5048 16.7277C19.7239 16.6096 20.079 16.6096 20.2981 16.7277C20.5171 16.8458 20.5171 17.0373 20.2981 17.1554Z" fill="white"/>
    <path d="M17.1213 18.868C16.9022 18.9861 16.5471 18.9861 16.328 18.868C16.109 18.7499 16.109 18.5584 16.328 18.4403C16.5471 18.3223 16.9022 18.3223 17.1213 18.4403C17.3403 18.5584 17.3403 18.7499 17.1213 18.868Z" fill="white"/>
    <path d="M13.9444 20.5806C13.7254 20.6987 13.3703 20.6987 13.1512 20.5806C12.9322 20.4625 12.9322 20.2711 13.1512 20.153C13.3703 20.0349 13.7254 20.0349 13.9444 20.153C14.1635 20.2711 14.1635 20.4625 13.9444 20.5806Z" fill="white"/>
    <path d="M10.7676 22.2932C10.5486 22.4113 10.1934 22.4113 9.9744 22.2932C9.75535 22.1751 9.75535 21.9837 9.9744 21.8656C10.1934 21.7475 10.5486 21.7475 10.7676 21.8656C10.9867 21.9837 10.9867 22.1751 10.7676 22.2932Z" fill="white"/>
    <path d="M7.59082 24.0058C7.37177 24.1239 7.01663 24.1239 6.79759 24.0058C6.57854 23.8878 6.57854 23.6963 6.79759 23.5782C7.01663 23.4601 7.37177 23.4601 7.59082 23.5782C7.80986 23.6963 7.80986 23.8878 7.59082 24.0058Z" fill="white"/>
    <path d="M20.2981 20.5806C20.079 20.6987 19.7239 20.6987 19.5048 20.5806C19.2858 20.4625 19.2858 20.2711 19.5048 20.153C19.7239 20.0349 20.079 20.0349 20.2981 20.153C20.5171 20.2711 20.5171 20.4625 20.2981 20.5806Z" fill="white"/>
    <path d="M23.4749 18.868C23.2558 18.9861 22.9007 18.9861 22.6816 18.868C22.4626 18.7499 22.4626 18.5584 22.6816 18.4403C22.9007 18.3223 23.2558 18.3223 23.4749 18.4403C23.6939 18.5584 23.6939 18.7499 23.4749 18.868Z" fill="white"/>
    <path d="M23.4749 22.2932C23.2558 22.4113 22.9007 22.4113 22.6816 22.2932C22.4626 22.1751 22.4626 21.9837 22.6816 21.8656C22.9007 21.7475 23.2558 21.7475 23.4749 21.8656C23.6939 21.9837 23.6939 22.1751 23.4749 22.2932Z" fill="white"/>
    <path d="M17.1213 22.2932C16.9022 22.4113 16.5471 22.4113 16.328 22.2932C16.109 22.1751 16.109 21.9837 16.328 21.8656C16.5471 21.7475 16.9022 21.7475 17.1213 21.8656C17.3403 21.9837 17.3403 22.1751 17.1213 22.2932Z" fill="white"/>
    <path d="M13.9444 24.0058C13.7254 24.1239 13.3703 24.1239 13.1512 24.0058C12.9322 23.8878 12.9322 23.6963 13.1512 23.5782C13.3703 23.4601 13.7254 23.4601 13.9444 23.5782C14.1635 23.6963 14.1635 23.8878 13.9444 24.0058Z" fill="white"/>
    <path d="M10.7676 25.7185C10.5486 25.8366 10.1934 25.8366 9.9744 25.7185C9.75535 25.6004 9.75535 25.4089 9.9744 25.2908C10.1934 25.1727 10.5486 25.1727 10.7676 25.2908C10.9867 25.4089 10.9867 25.6004 10.7676 25.7185Z" fill="white"/>
    <path d="M26.6517 24.0058C26.4326 24.1239 26.0775 24.1239 25.8584 24.0058C25.6394 23.8878 25.6394 23.6963 25.8584 23.5782C26.0775 23.4601 26.4326 23.4601 26.6517 23.5782C26.8707 23.6963 26.8707 23.8878 26.6517 24.0058Z" fill="white"/>
    <path d="M26.6517 20.5806C26.4326 20.6987 26.0775 20.6987 25.8584 20.5806C25.6394 20.4625 25.6394 20.2711 25.8584 20.153C26.0775 20.0349 26.4326 20.0349 26.6517 20.153C26.8707 20.2711 26.8707 20.4625 26.6517 20.5806Z" fill="white"/>
    <path d="M29.8285 25.7185C29.6094 25.8366 29.2543 25.8366 29.0353 25.7185C28.8162 25.6004 28.8162 25.4089 29.0353 25.2908C29.2543 25.1727 29.6094 25.1727 29.8285 25.2908C30.0475 25.4089 30.0475 25.6004 29.8285 25.7185Z" fill="white"/>
    <path d="M20.2981 24.0058C20.079 24.1239 19.7239 24.1239 19.5048 24.0058C19.2858 23.8878 19.2858 23.6963 19.5048 23.5782C19.7239 23.4601 20.079 23.4601 20.2981 23.5782C20.5171 23.6963 20.5171 23.8878 20.2981 24.0058Z" fill="white"/>
    <path d="M17.1213 25.7185C16.9022 25.8366 16.5471 25.8366 16.328 25.7185C16.109 25.6004 16.109 25.4089 16.328 25.2908C16.5471 25.1727 16.9022 25.1727 17.1213 25.2908C17.3403 25.4089 17.3403 25.6004 17.1213 25.7185Z" fill="white"/>
    <path d="M13.9444 27.4311C13.7254 27.5492 13.3703 27.5492 13.1512 27.4311C12.9322 27.313 12.9322 27.1215 13.1512 27.0035C13.3703 26.8854 13.7254 26.8854 13.9444 27.0035C14.1635 27.1215 14.1635 27.313 13.9444 27.4311Z" fill="white"/>
    <path d="M29.8285 22.2932C29.6094 22.4113 29.2543 22.4113 29.0353 22.2932C28.8162 22.1751 28.8162 21.9837 29.0353 21.8656C29.2543 21.7475 29.6094 21.7475 29.8285 21.8656C30.0475 21.9837 30.0475 22.1751 29.8285 22.2932Z" fill="white"/>
    <path d="M23.4749 25.7185C23.2558 25.8366 22.9007 25.8366 22.6816 25.7185C22.4626 25.6004 22.4626 25.4089 22.6816 25.2908C22.9007 25.1727 23.2558 25.1727 23.4749 25.2908C23.6939 25.4089 23.6939 25.6004 23.4749 25.7185Z" fill="white"/>
    <path d="M20.2981 27.4311C20.079 27.5492 19.7239 27.5492 19.5048 27.4311C19.2858 27.313 19.2858 27.1215 19.5048 27.0035C19.7239 26.8854 20.079 26.8854 20.2981 27.0035C20.5171 27.1215 20.5171 27.313 20.2981 27.4311Z" fill="white"/>
    <path d="M17.1213 29.1437C16.9022 29.2618 16.5471 29.2618 16.328 29.1437C16.109 29.0256 16.109 28.8342 16.328 28.7161C16.5471 28.598 16.9022 28.598 17.1213 28.7161C17.3403 28.8342 17.3403 29.0256 17.1213 29.1437Z" fill="white"/>
    <path d="M33.0053 24.0058C32.7863 24.1239 32.4311 24.1239 32.2121 24.0058C31.993 23.8878 31.993 23.6963 32.2121 23.5782C32.4311 23.4601 32.7863 23.4601 33.0053 23.5782C33.2243 23.6963 33.2243 23.8878 33.0053 24.0058Z" fill="white"/>
    <path d="M26.6517 27.4311C26.4326 27.5492 26.0775 27.5492 25.8584 27.4311C25.6394 27.313 25.6394 27.1215 25.8584 27.0035C26.0775 26.8854 26.4326 26.8854 26.6517 27.0035C26.8707 27.1215 26.8707 27.313 26.6517 27.4311Z" fill="white"/>
    <path d="M23.4749 29.1437C23.2558 29.2618 22.9007 29.2618 22.6816 29.1437C22.4626 29.0256 22.4626 28.8342 22.6816 28.7161C22.9007 28.598 23.2558 28.598 23.4749 28.7161C23.6939 28.8342 23.6939 29.0256 23.4749 29.1437Z" fill="white"/>
    <path d="M20.2981 30.8563C20.079 30.9744 19.7239 30.9744 19.5048 30.8563C19.2858 30.7382 19.2858 30.5468 19.5048 30.4287C19.7239 30.3106 20.079 30.3106 20.2981 30.4287C20.5171 30.5468 20.5171 30.7382 20.2981 30.8563Z" fill="white"/>
    <rect width="20.2219" height="20.2219" rx="3.18583" transform="matrix(0.869859 0.4933 -0.869859 0.4933 19.9015 6.49268)" fill="#5AFFEC"/>
    <path d="M57.2399 33.5162C55.2691 33.5162 53.6634 33.0811 52.4229 32.2107C51.1823 31.3403 50.422 30.1148 50.1419 28.5341L53.3533 28.0389C53.5533 28.8793 54.0135 29.5446 54.7338 30.0348C55.4641 30.515 56.3695 30.7551 57.45 30.7551C58.4304 30.7551 59.1957 30.555 59.7459 30.1548C60.3062 29.7547 60.5863 29.2044 60.5863 28.5041C60.5863 28.094 60.4863 27.7638 60.2862 27.5137C60.0961 27.2536 59.6909 27.0085 59.0707 26.7784C58.4504 26.5483 57.505 26.2632 56.2345 25.923C54.8439 25.5629 53.7384 25.1777 52.9181 24.7676C52.1077 24.3474 51.5275 23.8622 51.1773 23.3119C50.8372 22.7517 50.6671 22.0764 50.6671 21.2861C50.6671 20.3057 50.9272 19.4503 51.4475 18.72C51.9677 17.9897 52.698 17.4245 53.6384 17.0243C54.5888 16.6241 55.6992 16.4241 56.9698 16.4241C58.2103 16.4241 59.3158 16.6191 60.2862 17.0093C61.2566 17.3995 62.0419 17.9547 62.6422 18.675C63.2424 19.3853 63.6026 20.2206 63.7226 21.1811L60.5113 21.7663C60.4012 20.986 60.0361 20.3707 59.4158 19.9205C58.7955 19.4703 57.9902 19.2252 56.9998 19.1852C56.0494 19.1452 55.2791 19.3053 54.6888 19.6654C54.0986 20.0156 53.8035 20.5008 53.8035 21.121C53.8035 21.4812 53.9135 21.7863 54.1336 22.0364C54.3637 22.2865 54.8039 22.5266 55.4541 22.7567C56.1044 22.9868 57.0648 23.2619 58.3354 23.5821C59.6959 23.9322 60.7764 24.3224 61.5767 24.7526C62.3771 25.1727 62.9473 25.6779 63.2874 26.2682C63.6376 26.8484 63.8127 27.5537 63.8127 28.3841C63.8127 29.9848 63.2274 31.2403 62.0569 32.1507C60.8964 33.061 59.2908 33.5162 57.2399 33.5162ZM69.338 40.2841L72.4743 31.7455L72.5194 34.2666L65.4514 16.8742H68.7228L74.005 30.3049H73.0446L78.0867 16.8742H81.268L72.3243 40.2841H69.338ZM95.5939 33.0811V25.1127C95.5939 24.4824 95.5389 23.8372 95.4288 23.1769C95.3288 22.5066 95.1287 21.8863 94.8286 21.3161C94.5385 20.7459 94.1233 20.2857 93.5831 19.9355C93.0528 19.5854 92.3575 19.4103 91.4972 19.4103C90.937 19.4103 90.4067 19.5053 89.9065 19.6954C89.4063 19.8755 88.9661 20.1706 88.586 20.5808C88.2158 20.991 87.9207 21.5312 87.7006 22.2015C87.4905 22.8718 87.3855 23.6871 87.3855 24.6475L85.4346 23.9122C85.4346 22.4416 85.7098 21.146 86.26 20.0256C86.8102 18.8951 87.6005 18.0147 88.631 17.3845C89.6614 16.7542 90.9069 16.4391 92.3676 16.4391C93.488 16.4391 94.4284 16.6191 95.1887 16.9793C95.9491 17.3394 96.5643 17.8146 97.0345 18.4049C97.5147 18.9851 97.8799 19.6204 98.13 20.3107C98.3801 21.001 98.5502 21.6763 98.6402 22.3365C98.7302 22.9968 98.7752 23.5771 98.7752 24.0773V33.0811H95.5939ZM84.2041 33.0811V16.8742H87.0103V21.5562H87.3855V33.0811H84.2041ZM122.702 33.0811L122.717 22.9818C122.717 21.8113 122.417 20.9009 121.817 20.2507C121.217 19.5904 120.426 19.2602 119.446 19.2602C118.846 19.2602 118.295 19.4003 117.795 19.6804C117.305 19.9505 116.905 20.3607 116.595 20.9109C116.295 21.4512 116.145 22.1315 116.145 22.9518L114.629 22.1865C114.609 21.046 114.849 20.0456 115.349 19.1852C115.859 18.3249 116.55 17.6596 117.42 17.1894C118.29 16.7092 119.266 16.4691 120.346 16.4691C122.097 16.4691 123.453 16.9943 124.413 18.0447C125.373 19.0952 125.854 20.4908 125.854 22.2315L125.839 33.0811H122.702ZM103.269 33.0811V16.8742H106.06V21.5562H106.42V33.0811H103.269ZM112.993 33.0811L113.008 23.0418C113.008 21.8613 112.708 20.9359 112.108 20.2657C111.518 19.5954 110.722 19.2602 109.722 19.2602C108.731 19.2602 107.931 19.6004 107.321 20.2807C106.721 20.961 106.42 21.8513 106.42 22.9518L104.92 21.9914C104.92 20.9309 105.175 19.9855 105.685 19.1552C106.195 18.3249 106.886 17.6696 107.756 17.1894C108.626 16.7092 109.612 16.4691 110.712 16.4691C111.863 16.4691 112.843 16.7142 113.654 17.2044C114.464 17.6846 115.079 18.3599 115.499 19.2302C115.929 20.1006 116.145 21.111 116.145 22.2615L116.13 33.0811H112.993ZM137.333 33.5312C135.723 33.5312 134.307 33.1811 133.087 32.4808C131.876 31.7705 130.931 30.7851 130.251 29.5246C129.58 28.254 129.245 26.7834 129.245 25.1127C129.245 23.342 129.575 21.8063 130.235 20.5058C130.906 19.2052 131.836 18.1998 133.027 17.4895C134.217 16.7792 135.603 16.4241 137.183 16.4241C138.834 16.4241 140.24 16.8092 141.4 17.5795C142.561 18.3399 143.426 19.4253 143.996 20.8359C144.577 22.2465 144.807 23.9222 144.687 25.863H141.55V24.7225C141.53 22.8417 141.17 21.4512 140.47 20.5508C139.78 19.6504 138.724 19.2002 137.303 19.2002C135.733 19.2002 134.552 19.6954 133.762 20.6858C132.972 21.6763 132.576 23.1069 132.576 24.9776C132.576 26.7584 132.972 28.139 133.762 29.1194C134.552 30.0898 135.693 30.575 137.183 30.575C138.164 30.575 139.009 30.3549 139.719 29.9147C140.44 29.4645 141 28.8243 141.4 27.9939L144.476 28.9693C143.846 30.4199 142.891 31.5454 141.61 32.3457C140.33 33.1361 138.904 33.5312 137.333 33.5312ZM131.556 25.863V23.417H143.126V25.863H131.556ZM157.928 33.0811C156.907 33.2811 155.907 33.3662 154.926 33.3362C153.946 33.3061 153.07 33.1161 152.3 32.7659C151.53 32.4158 150.95 31.8655 150.559 31.1152C150.209 30.4449 150.019 29.7647 149.989 29.0744C149.969 28.3741 149.959 27.5837 149.959 26.7034V12.3723H153.111V26.5533C153.111 27.2036 153.116 27.7688 153.126 28.249C153.146 28.7292 153.251 29.1344 153.441 29.4645C153.801 30.0848 154.371 30.4399 155.151 30.53C155.942 30.61 156.867 30.575 157.928 30.4249V33.0811ZM146.853 19.3953V16.8742H157.928V19.3953H146.853ZM161.945 33.0811V16.8742H164.736V20.8059L164.346 20.2957C164.546 19.7755 164.806 19.3003 165.126 18.8701C165.446 18.4299 165.816 18.0697 166.237 17.7896C166.647 17.4895 167.102 17.2594 167.602 17.0993C168.112 16.9293 168.633 16.8292 169.163 16.7992C169.693 16.7592 170.203 16.7842 170.693 16.8742V19.8155C170.163 19.6754 169.573 19.6354 168.923 19.6954C168.282 19.7555 167.692 19.9605 167.152 20.3107C166.642 20.6408 166.237 21.041 165.936 21.5112C165.646 21.9814 165.436 22.5066 165.306 23.0869C165.176 23.6571 165.111 24.2623 165.111 24.9026V33.0811H161.945ZM174.452 14.2181V11.1718H177.588V14.2181H174.452ZM174.452 33.0811V16.8742H177.588V33.0811H174.452ZM180.894 33.0811L186.956 24.8876L181.029 16.8742H184.75L188.787 22.4416L192.779 16.8742H196.5L190.573 24.8876L196.65 33.0811H192.914L188.787 27.3336L184.63 33.0811H180.894Z" fill="white"/>
    <path d="M57.2399 33.5162C55.2691 33.5162 53.6634 33.0811 52.4229 32.2107C51.1823 31.3403 50.422 30.1148 50.1419 28.5341L53.3533 28.0389C53.5533 28.8793 54.0135 29.5446 54.7338 30.0348C55.4641 30.515 56.3695 30.7551 57.45 30.7551C58.4304 30.7551 59.1957 30.555 59.7459 30.1548C60.3062 29.7547 60.5863 29.2044 60.5863 28.5041C60.5863 28.094 60.4863 27.7638 60.2862 27.5137C60.0961 27.2536 59.6909 27.0085 59.0707 26.7784C58.4504 26.5483 57.505 26.2632 56.2345 25.923C54.8439 25.5629 53.7384 25.1777 52.9181 24.7676C52.1077 24.3474 51.5275 23.8622 51.1773 23.3119C50.8372 22.7517 50.6671 22.0764 50.6671 21.2861C50.6671 20.3057 50.9272 19.4503 51.4475 18.72C51.9677 17.9897 52.698 17.4245 53.6384 17.0243C54.5888 16.6241 55.6992 16.4241 56.9698 16.4241C58.2103 16.4241 59.3158 16.6191 60.2862 17.0093C61.2566 17.3995 62.0419 17.9547 62.6422 18.675C63.2424 19.3853 63.6026 20.2206 63.7226 21.1811L60.5113 21.7663C60.4012 20.986 60.0361 20.3707 59.4158 19.9205C58.7955 19.4703 57.9902 19.2252 56.9998 19.1852C56.0494 19.1452 55.2791 19.3053 54.6888 19.6654C54.0986 20.0156 53.8035 20.5008 53.8035 21.121C53.8035 21.4812 53.9135 21.7863 54.1336 22.0364C54.3637 22.2865 54.8039 22.5266 55.4541 22.7567C56.1044 22.9868 57.0648 23.2619 58.3354 23.5821C59.6959 23.9322 60.7764 24.3224 61.5767 24.7526C62.3771 25.1727 62.9473 25.6779 63.2874 26.2682C63.6376 26.8484 63.8127 27.5537 63.8127 28.3841C63.8127 29.9848 63.2274 31.2403 62.0569 32.1507C60.8964 33.061 59.2908 33.5162 57.2399 33.5162ZM69.338 40.2841L72.4743 31.7455L72.5194 34.2666L65.4514 16.8742H68.7228L74.005 30.3049H73.0446L78.0867 16.8742H81.268L72.3243 40.2841H69.338ZM95.5939 33.0811V25.1127C95.5939 24.4824 95.5389 23.8372 95.4288 23.1769C95.3288 22.5066 95.1287 21.8863 94.8286 21.3161C94.5385 20.7459 94.1233 20.2857 93.5831 19.9355C93.0528 19.5854 92.3575 19.4103 91.4972 19.4103C90.937 19.4103 90.4067 19.5053 89.9065 19.6954C89.4063 19.8755 88.9661 20.1706 88.586 20.5808C88.2158 20.991 87.9207 21.5312 87.7006 22.2015C87.4905 22.8718 87.3855 23.6871 87.3855 24.6475L85.4346 23.9122C85.4346 22.4416 85.7098 21.146 86.26 20.0256C86.8102 18.8951 87.6005 18.0147 88.631 17.3845C89.6614 16.7542 90.9069 16.4391 92.3676 16.4391C93.488 16.4391 94.4284 16.6191 95.1887 16.9793C95.9491 17.3394 96.5643 17.8146 97.0345 18.4049C97.5147 18.9851 97.8799 19.6204 98.13 20.3107C98.3801 21.001 98.5502 21.6763 98.6402 22.3365C98.7302 22.9968 98.7752 23.5771 98.7752 24.0773V33.0811H95.5939ZM84.2041 33.0811V16.8742H87.0103V21.5562H87.3855V33.0811H84.2041ZM122.702 33.0811L122.717 22.9818C122.717 21.8113 122.417 20.9009 121.817 20.2507C121.217 19.5904 120.426 19.2602 119.446 19.2602C118.846 19.2602 118.295 19.4003 117.795 19.6804C117.305 19.9505 116.905 20.3607 116.595 20.9109C116.295 21.4512 116.145 22.1315 116.145 22.9518L114.629 22.1865C114.609 21.046 114.849 20.0456 115.349 19.1852C115.859 18.3249 116.55 17.6596 117.42 17.1894C118.29 16.7092 119.266 16.4691 120.346 16.4691C122.097 16.4691 123.453 16.9943 124.413 18.0447C125.373 19.0952 125.854 20.4908 125.854 22.2315L125.839 33.0811H122.702ZM103.269 33.0811V16.8742H106.06V21.5562H106.42V33.0811H103.269ZM112.993 33.0811L113.008 23.0418C113.008 21.8613 112.708 20.9359 112.108 20.2657C111.518 19.5954 110.722 19.2602 109.722 19.2602C108.731 19.2602 107.931 19.6004 107.321 20.2807C106.721 20.961 106.42 21.8513 106.42 22.9518L104.92 21.9914C104.92 20.9309 105.175 19.9855 105.685 19.1552C106.195 18.3249 106.886 17.6696 107.756 17.1894C108.626 16.7092 109.612 16.4691 110.712 16.4691C111.863 16.4691 112.843 16.7142 113.654 17.2044C114.464 17.6846 115.079 18.3599 115.499 19.2302C115.929 20.1006 116.145 21.111 116.145 22.2615L116.13 33.0811H112.993ZM137.333 33.5312C135.723 33.5312 134.307 33.1811 133.087 32.4808C131.876 31.7705 130.931 30.7851 130.251 29.5246C129.58 28.254 129.245 26.7834 129.245 25.1127C129.245 23.342 129.575 21.8063 130.235 20.5058C130.906 19.2052 131.836 18.1998 133.027 17.4895C134.217 16.7792 135.603 16.4241 137.183 16.4241C138.834 16.4241 140.24 16.8092 141.4 17.5795C142.561 18.3399 143.426 19.4253 143.996 20.8359C144.577 22.2465 144.807 23.9222 144.687 25.863H141.55V24.7225C141.53 22.8417 141.17 21.4512 140.47 20.5508C139.78 19.6504 138.724 19.2002 137.303 19.2002C135.733 19.2002 134.552 19.6954 133.762 20.6858C132.972 21.6763 132.576 23.1069 132.576 24.9776C132.576 26.7584 132.972 28.139 133.762 29.1194C134.552 30.0898 135.693 30.575 137.183 30.575C138.164 30.575 139.009 30.3549 139.719 29.9147C140.44 29.4645 141 28.8243 141.4 27.9939L144.476 28.9693C143.846 30.4199 142.891 31.5454 141.61 32.3457C140.33 33.1361 138.904 33.5312 137.333 33.5312ZM131.556 25.863V23.417H143.126V25.863H131.556ZM157.928 33.0811C156.907 33.2811 155.907 33.3662 154.926 33.3362C153.946 33.3061 153.07 33.1161 152.3 32.7659C151.53 32.4158 150.95 31.8655 150.559 31.1152C150.209 30.4449 150.019 29.7647 149.989 29.0744C149.969 28.3741 149.959 27.5837 149.959 26.7034V12.3723H153.111V26.5533C153.111 27.2036 153.116 27.7688 153.126 28.249C153.146 28.7292 153.251 29.1344 153.441 29.4645C153.801 30.0848 154.371 30.4399 155.151 30.53C155.942 30.61 156.867 30.575 157.928 30.4249V33.0811ZM146.853 19.3953V16.8742H157.928V19.3953H146.853ZM161.945 33.0811V16.8742H164.736V20.8059L164.346 20.2957C164.546 19.7755 164.806 19.3003 165.126 18.8701C165.446 18.4299 165.816 18.0697 166.237 17.7896C166.647 17.4895 167.102 17.2594 167.602 17.0993C168.112 16.9293 168.633 16.8292 169.163 16.7992C169.693 16.7592 170.203 16.7842 170.693 16.8742V19.8155C170.163 19.6754 169.573 19.6354 168.923 19.6954C168.282 19.7555 167.692 19.9605 167.152 20.3107C166.642 20.6408 166.237 21.041 165.936 21.5112C165.646 21.9814 165.436 22.5066 165.306 23.0869C165.176 23.6571 165.111 24.2623 165.111 24.9026V33.0811H161.945ZM174.452 14.2181V11.1718H177.588V14.2181H174.452ZM174.452 33.0811V16.8742H177.588V33.0811H174.452ZM180.894 33.0811L186.956 24.8876L181.029 16.8742H184.75L188.787 22.4416L192.779 16.8742H196.5L190.573 24.8876L196.65 33.0811H192.914L188.787 27.3336L184.63 33.0811H180.894Z" fill="white"/>
    </g>
    <defs>
    <linearGradient id="paint0_linear_1992_22872" x1="19.9011" y1="0.552734" x2="19.9011" y2="45.4468" gradientUnits="userSpaceOnUse">
    <stop offset="0.0001" stop-color="#560C6B"/>
    <stop offset="1" stop-color="#280A3C"/>
    </linearGradient>
    <clipPath id="clip0_1992_22872">
    <rect width="197.941" height="44.8941" fill="white" transform="translate(0 0.552734)"/>
    </clipPath>
    </defs>
    </svg>
    