<svg width="596" height="380" viewBox="0 0 596 380" fill="none" xmlns="http://www.w3.org/2000/svg">
<rect width="596" height="379.083" rx="24" fill="#FBFBFB"/>
<g clip-path="url(#clip0_3137_12433)">
<rect x="24" y="24" width="548" height="331.083" rx="10.96" fill="#FAF7FD"/>
<g opacity="0.21" filter="url(#filter0_f_3137_12433)">
<circle cx="268.748" cy="282.16" r="72.4537" transform="rotate(-43.007 268.748 282.16)" fill="#AA84FB"/>
</g>
<g opacity="0.21" filter="url(#filter1_f_3137_12433)">
<circle cx="252.9" cy="148.323" r="72.4537" transform="rotate(-43.007 252.9 148.323)" fill="#FAEB9C"/>
</g>
<g opacity="0.21" filter="url(#filter2_f_3137_12433)">
<circle cx="360.144" cy="196.91" r="72.4537" transform="rotate(-43.007 360.144 196.91)" fill="#FF7E7E"/>
</g>
<g filter="url(#filter3_d_3137_12433)">
<rect x="90" y="129" width="416.782" height="121.91" rx="21.019" fill="white" shape-rendering="crispEdges"/>
<rect x="111.019" y="150.019" width="79.8722" height="79.8722" rx="16.8152" fill="url(#paint0_linear_3137_12433)"/>
<path opacity="0.3" d="M137.161 180.497C137.161 176.361 140.514 173.008 144.649 173.008H157.261C161.396 173.008 164.749 176.361 164.749 180.497V199.414C164.749 203.549 161.396 206.902 157.261 206.902H144.649C140.514 206.902 137.161 203.549 137.161 199.414V180.497Z" fill="white"/>
<path d="M144.649 182.073H157.261" stroke="white" stroke-width="2.36464" stroke-linecap="round"/>
<path d="M144.649 189.955H157.261" stroke="white" stroke-width="2.36464" stroke-linecap="round"/>
<path d="M144.649 197.837H150.955" stroke="white" stroke-width="2.36464" stroke-linecap="round"/>
<path d="M231.786 207.06C228.288 207.06 225.228 206.287 222.605 204.74C219.981 203.193 217.93 201.057 216.45 198.333C214.971 195.576 214.231 192.398 214.231 188.799C214.231 185.201 214.971 182.039 216.45 179.315C217.93 176.558 219.981 174.405 222.605 172.858C225.228 171.311 228.288 170.538 231.786 170.538C235.283 170.538 238.344 171.311 240.967 172.858C243.59 174.405 245.625 176.558 247.071 179.315C248.55 182.039 249.29 185.201 249.29 188.799C249.29 192.398 248.55 195.576 247.071 198.333C245.625 201.057 243.59 203.193 240.967 204.74C238.344 206.287 235.283 207.06 231.786 207.06ZM231.786 202.268C234.207 202.268 236.309 201.73 238.091 200.654C239.907 199.578 241.32 198.031 242.329 196.013C243.338 193.995 243.842 191.59 243.842 188.799C243.842 186.008 243.338 183.603 242.329 181.585C241.32 179.568 239.907 178.021 238.091 176.944C236.309 175.868 234.207 175.33 231.786 175.33C229.364 175.33 227.246 175.868 225.43 176.944C223.614 178.021 222.201 179.568 221.192 181.585C220.217 183.603 219.729 186.008 219.729 188.799C219.729 191.59 220.217 193.995 221.192 196.013C222.201 198.031 223.614 199.578 225.43 200.654C227.246 201.73 229.364 202.268 231.786 202.268ZM261.006 206.455L251.624 181.434H257.223L264.185 201.36L271.146 181.434H276.695L267.363 206.455H261.006ZM290.461 207.06C288.006 207.06 285.82 206.522 283.903 205.446C282.02 204.336 280.54 202.806 279.464 200.856C278.388 198.905 277.849 196.635 277.849 194.045C277.849 191.422 278.371 189.119 279.413 187.134C280.489 185.15 281.969 183.603 283.853 182.493C285.769 181.384 287.989 180.829 290.511 180.829C292.966 180.829 295.102 181.384 296.918 182.493C298.734 183.57 300.146 185.016 301.155 186.832C302.164 188.648 302.669 190.649 302.669 192.835C302.669 193.171 302.652 193.541 302.618 193.945C302.618 194.315 302.601 194.735 302.568 195.206H283.096C283.264 197.627 284.054 199.477 285.467 200.755C286.913 201.999 288.578 202.621 290.461 202.621C291.974 202.621 293.235 202.285 294.244 201.612C295.287 200.906 296.06 199.964 296.565 198.787H301.912C301.239 201.141 299.894 203.109 297.876 204.689C295.892 206.27 293.42 207.06 290.461 207.06ZM290.461 185.217C288.678 185.217 287.098 185.756 285.719 186.832C284.34 187.874 283.499 189.455 283.197 191.574H297.321C297.221 189.623 296.531 188.076 295.253 186.933C293.975 185.789 292.378 185.217 290.461 185.217ZM307.166 206.455V181.434H311.958L312.412 186.176C313.287 184.528 314.497 183.233 316.044 182.292C317.625 181.316 319.525 180.829 321.745 180.829V186.428H320.282C318.802 186.428 317.474 186.68 316.297 187.185C315.153 187.656 314.228 188.48 313.522 189.657C312.85 190.8 312.513 192.398 312.513 194.449V206.455H307.166ZM332.29 206.455L322.908 181.434H328.507L335.468 201.36L342.43 181.434H347.979L338.647 206.455H332.29ZM354.349 176.692C353.34 176.692 352.499 176.39 351.827 175.784C351.188 175.145 350.868 174.355 350.868 173.413C350.868 172.472 351.188 171.698 351.827 171.093C352.499 170.454 353.34 170.134 354.349 170.134C355.358 170.134 356.182 170.454 356.821 171.093C357.493 171.698 357.83 172.472 357.83 173.413C357.83 174.355 357.493 175.145 356.821 175.784C356.182 176.39 355.358 176.692 354.349 176.692ZM351.675 206.455V181.434H357.023V206.455H351.675ZM374.734 207.06C372.279 207.06 370.093 206.522 368.176 205.446C366.293 204.336 364.813 202.806 363.737 200.856C362.661 198.905 362.122 196.635 362.122 194.045C362.122 191.422 362.644 189.119 363.686 187.134C364.762 185.15 366.242 183.603 368.126 182.493C370.042 181.384 372.262 180.829 374.784 180.829C377.239 180.829 379.375 181.384 381.191 182.493C383.007 183.57 384.419 185.016 385.428 186.832C386.437 188.648 386.942 190.649 386.942 192.835C386.942 193.171 386.925 193.541 386.891 193.945C386.891 194.315 386.874 194.735 386.841 195.206H367.369C367.537 197.627 368.327 199.477 369.74 200.755C371.186 201.999 372.851 202.621 374.734 202.621C376.247 202.621 377.508 202.285 378.517 201.612C379.56 200.906 380.333 199.964 380.838 198.787H386.185C385.512 201.141 384.167 203.109 382.149 204.689C380.165 206.27 377.693 207.06 374.734 207.06ZM374.734 185.217C372.951 185.217 371.371 185.756 369.992 186.832C368.613 187.874 367.772 189.455 367.47 191.574H381.594C381.494 189.623 380.804 188.076 379.526 186.933C378.248 185.789 376.651 185.217 374.734 185.217ZM395.448 206.455L388.083 181.434H393.43L398.273 200.301L403.721 181.434H409.674L415.122 200.301L419.964 181.434H425.312L417.947 206.455H412.448L406.697 186.781L400.946 206.455H395.448Z" fill="#470D69"/>
<path d="M466.888 200.742C466.129 200.742 465.454 200.489 464.948 199.983L448.751 183.786C447.655 182.774 447.655 181.003 448.751 179.99C449.763 178.894 451.535 178.894 452.547 179.99L466.888 194.247L481.144 179.99C482.157 178.894 483.928 178.894 484.94 179.99C486.037 181.003 486.037 182.774 484.94 183.786L468.744 199.983C468.238 200.489 467.563 200.742 466.888 200.742Z" fill="#A5A5A5"/>
<rect x="85.7962" y="124.796" width="425.19" height="130.318" rx="25.2228" stroke="#A31BCB" stroke-opacity="0.2" stroke-width="8.4076" shape-rendering="crispEdges"/>
</g>
</g>
<defs>
<filter id="filter0_f_3137_12433" x="33.2731" y="46.6848" width="470.95" height="470.95" filterUnits="userSpaceOnUse" color-interpolation-filters="sRGB">
<feFlood flood-opacity="0" result="BackgroundImageFix"/>
<feBlend mode="normal" in="SourceGraphic" in2="BackgroundImageFix" result="shape"/>
<feGaussianBlur stdDeviation="81.5104" result="effect1_foregroundBlur_3137_12433"/>
</filter>
<filter id="filter1_f_3137_12433" x="17.4255" y="-87.1517" width="470.95" height="470.949" filterUnits="userSpaceOnUse" color-interpolation-filters="sRGB">
<feFlood flood-opacity="0" result="BackgroundImageFix"/>
<feBlend mode="normal" in="SourceGraphic" in2="BackgroundImageFix" result="shape"/>
<feGaussianBlur stdDeviation="81.5104" result="effect1_foregroundBlur_3137_12433"/>
</filter>
<filter id="filter2_f_3137_12433" x="124.67" y="-38.5643" width="470.95" height="470.949" filterUnits="userSpaceOnUse" color-interpolation-filters="sRGB">
<feFlood flood-opacity="0" result="BackgroundImageFix"/>
<feBlend mode="normal" in="SourceGraphic" in2="BackgroundImageFix" result="shape"/>
<feGaussianBlur stdDeviation="81.5104" result="effect1_foregroundBlur_3137_12433"/>
</filter>
<filter id="filter3_d_3137_12433" x="79.4909" y="118.491" width="437.8" height="142.929" filterUnits="userSpaceOnUse" color-interpolation-filters="sRGB">
<feFlood flood-opacity="0" result="BackgroundImageFix"/>
<feColorMatrix in="SourceAlpha" type="matrix" values="0 0 0 0 0 0 0 0 0 0 0 0 0 0 0 0 0 0 127 0" result="hardAlpha"/>
<feOffset/>
<feGaussianBlur stdDeviation="1.05095"/>
<feComposite in2="hardAlpha" operator="out"/>
<feColorMatrix type="matrix" values="0 0 0 0 0.639216 0 0 0 0 0.105882 0 0 0 0 0.796078 0 0 0 0.5 0"/>
<feBlend mode="normal" in2="BackgroundImageFix" result="effect1_dropShadow_3137_12433"/>
<feBlend mode="normal" in="SourceGraphic" in2="effect1_dropShadow_3137_12433" result="shape"/>
</filter>
<linearGradient id="paint0_linear_3137_12433" x1="116.273" y1="150.019" x2="166.719" y2="229.891" gradientUnits="userSpaceOnUse">
<stop stop-color="#5F5F5F"/>
<stop offset="1" stop-color="#363636"/>
</linearGradient>
<clipPath id="clip0_3137_12433">
<rect x="24" y="24" width="548" height="331.083" rx="10.96" fill="white"/>
</clipPath>
</defs>
</svg>
