<svg width="1200" height="302" viewBox="0 0 1200 302" fill="none" xmlns="http://www.w3.org/2000/svg">
<g clip-path="url(#clip0_3011_14038)">
<g clip-path="url(#clip1_3011_14038)">
<rect width="1200" height="300" transform="translate(0 0.880127)" fill="#420B57"/>
<path opacity="0.11" fill-rule="evenodd" clip-rule="evenodd" d="M885.845 -190.645C890.764 -195.077 900.177 -196.822 911.037 -195.314L1165.57 -159.971C1177.89 -158.259 1190.17 -152.633 1197.43 -145.366L1243.99 -98.8107L1316.63 -26.1684L1363.18 20.3866C1370.45 27.6539 1371.51 35.36 1365.93 40.3898L1250.63 144.276C1245.71 148.709 1236.29 150.453 1225.43 148.945L970.907 113.602C958.583 111.891 946.307 106.265 939.039 98.9974L892.484 52.4423L819.842 -20.1999L773.287 -66.755C766.02 -74.0222 764.964 -81.7284 770.546 -86.7582L885.845 -190.645Z" fill="white"/>
<path fill-rule="evenodd" clip-rule="evenodd" d="M-80.2959 158.014C-75.3765 153.582 -65.9633 151.837 -55.1033 153.345L199.425 188.688C211.748 190.399 224.025 196.026 231.292 203.293L277.847 249.848L350.489 322.49L397.044 369.045C404.312 376.313 405.367 384.019 399.785 389.049L284.487 492.935C279.567 497.367 270.154 499.112 259.294 497.604L4.76602 462.261C-7.55724 460.55 -19.834 454.923 -27.1013 447.656L-73.6563 401.101L-146.299 328.459L-192.854 281.904C-200.121 274.636 -201.177 266.93 -195.594 261.901L-80.2959 158.014Z" fill="#A31BCB"/>
<g filter="url(#filter0_d_3011_14038)">
<rect x="359.5" y="83.1465" width="481.936" height="135.729" rx="21.2076" fill="white" shape-rendering="crispEdges"/>
<rect x="380.708" y="104.354" width="93.3134" height="93.3134" rx="16.9661" fill="url(#paint0_linear_3011_14038)"/>
<path opacity="0.3" fill-rule="evenodd" clip-rule="evenodd" d="M418.352 138.286C411.617 138.286 406.158 143.745 406.158 150.48C406.158 157.215 411.617 162.675 418.352 162.675H435.318C442.053 162.675 447.513 157.215 447.513 150.48C447.513 143.745 442.053 138.286 435.318 138.286H418.352Z" fill="white"/>
<path fill-rule="evenodd" clip-rule="evenodd" d="M435.317 143.588C431.511 143.588 428.425 146.674 428.425 150.48C428.425 154.287 431.511 157.373 435.317 157.373C439.124 157.373 442.21 154.287 442.21 150.48C442.21 146.674 439.124 143.588 435.317 143.588Z" fill="white"/>
<path d="M498.842 168.011V132.382H511.109C513.925 132.382 516.233 132.857 518.031 133.807C519.863 134.757 521.221 136.047 522.103 137.675C522.985 139.27 523.426 141.052 523.426 143.02C523.426 145.225 522.832 147.227 521.645 149.026C520.491 150.824 518.676 152.114 516.199 152.894L523.782 168.011H517.522L510.6 153.657H504.237V168.011H498.842ZM504.237 149.586H510.803C513.246 149.586 515.028 148.992 516.148 147.804C517.301 146.617 517.878 145.073 517.878 143.172C517.878 141.272 517.318 139.762 516.199 138.642C515.079 137.489 513.263 136.912 510.752 136.912H504.237V149.586ZM538.812 168.622C536.335 168.622 534.13 168.079 532.195 166.993C530.295 165.873 528.802 164.329 527.716 162.361C526.631 160.393 526.088 158.103 526.088 155.49C526.088 152.843 526.614 150.519 527.666 148.517C528.751 146.515 530.244 144.954 532.145 143.834C534.079 142.714 536.318 142.154 538.863 142.154C541.34 142.154 543.495 142.714 545.327 143.834C547.16 144.92 548.585 146.379 549.603 148.211C550.621 150.044 551.13 152.063 551.13 154.268C551.13 154.608 551.113 154.981 551.079 155.388C551.079 155.761 551.062 156.185 551.028 156.66H531.381C531.551 159.104 532.348 160.97 533.773 162.259C535.232 163.515 536.912 164.142 538.812 164.142C540.339 164.142 541.612 163.803 542.63 163.125C543.681 162.412 544.462 161.462 544.971 160.274H550.366C549.687 162.649 548.33 164.634 546.294 166.229C544.292 167.824 541.798 168.622 538.812 168.622ZM538.812 146.583C537.014 146.583 535.419 147.126 534.028 148.211C532.637 149.263 531.788 150.858 531.483 152.996H545.734C545.633 151.028 544.937 149.467 543.648 148.313C542.358 147.159 540.746 146.583 538.812 146.583ZM576.027 179.208V164.092C575.212 165.279 574.092 166.331 572.667 167.247C571.242 168.163 569.41 168.622 567.17 168.622C564.727 168.622 562.572 168.045 560.706 166.891C558.84 165.737 557.381 164.159 556.329 162.157C555.277 160.155 554.751 157.882 554.751 155.337C554.751 152.792 555.277 150.536 556.329 148.568C557.381 146.566 558.84 145.005 560.706 143.885C562.606 142.731 564.778 142.154 567.221 142.154C569.223 142.154 570.971 142.545 572.464 143.325C573.991 144.106 575.178 145.208 576.027 146.633L576.586 142.765H581.422V179.208H576.027ZM568.137 163.939C570.445 163.939 572.328 163.141 573.787 161.547C575.28 159.952 576.027 157.899 576.027 155.388C576.027 152.843 575.28 150.79 573.787 149.229C572.328 147.634 570.445 146.837 568.137 146.837C565.83 146.837 563.93 147.634 562.437 149.229C560.944 150.79 560.197 152.843 560.197 155.388C560.197 157.051 560.536 158.527 561.215 159.816C561.894 161.106 562.827 162.124 564.015 162.87C565.236 163.583 566.61 163.939 568.137 163.939ZM596.478 168.622C593.424 168.622 591.015 167.671 589.251 165.771C587.52 163.871 586.655 161.038 586.655 157.271V142.765H592.05V156.711C592.05 161.598 594.052 164.041 598.056 164.041C600.058 164.041 601.704 163.328 602.993 161.903C604.283 160.478 604.927 158.442 604.927 155.795V142.765H610.322V168.011H605.538L605.131 163.583C604.35 165.143 603.197 166.382 601.67 167.298C600.177 168.18 598.446 168.622 596.478 168.622ZM619.179 137.981C618.161 137.981 617.313 137.675 616.634 137.065C615.99 136.42 615.667 135.623 615.667 134.672C615.667 133.722 615.99 132.942 616.634 132.331C617.313 131.686 618.161 131.364 619.179 131.364C620.197 131.364 621.029 131.686 621.673 132.331C622.352 132.942 622.691 133.722 622.691 134.672C622.691 135.623 622.352 136.42 621.673 137.065C621.029 137.675 620.197 137.981 619.179 137.981ZM616.482 168.011V142.765H621.877V168.011H616.482ZM627.939 168.011V142.765H632.774L633.232 147.55C634.114 145.887 635.336 144.581 636.897 143.63C638.492 142.646 640.409 142.154 642.648 142.154V147.804H641.172C639.679 147.804 638.339 148.059 637.151 148.568C635.998 149.043 635.064 149.874 634.352 151.062C633.673 152.215 633.334 153.827 633.334 155.897V168.011H627.939ZM657.326 168.622C654.849 168.622 652.644 168.079 650.709 166.993C648.809 165.873 647.316 164.329 646.23 162.361C645.145 160.393 644.602 158.103 644.602 155.49C644.602 152.843 645.128 150.519 646.179 148.517C647.265 146.515 648.758 144.954 650.659 143.834C652.593 142.714 654.832 142.154 657.377 142.154C659.854 142.154 662.009 142.714 663.841 143.834C665.674 144.92 667.099 146.379 668.117 148.211C669.135 150.044 669.644 152.063 669.644 154.268C669.644 154.608 669.627 154.981 669.593 155.388C669.593 155.761 669.576 156.185 669.542 156.66H649.895C650.065 159.104 650.862 160.97 652.287 162.259C653.746 163.515 655.426 164.142 657.326 164.142C658.853 164.142 660.126 163.803 661.144 163.125C662.195 162.412 662.976 161.462 663.485 160.274H668.88C668.201 162.649 666.844 164.634 664.808 166.229C662.806 167.824 660.312 168.622 657.326 168.622ZM657.326 146.583C655.528 146.583 653.933 147.126 652.542 148.211C651.151 149.263 650.302 150.858 649.997 152.996H664.248C664.147 151.028 663.451 149.467 662.162 148.313C660.872 147.159 659.26 146.583 657.326 146.583ZM674.181 168.011V142.765H678.966L679.424 146.328C680.238 145.039 681.307 144.021 682.63 143.274C683.988 142.528 685.548 142.154 687.313 142.154C691.317 142.154 694.099 143.732 695.66 146.888C696.576 145.429 697.798 144.275 699.325 143.427C700.886 142.579 702.565 142.154 704.364 142.154C707.52 142.154 709.997 143.105 711.795 145.005C713.593 146.905 714.493 149.738 714.493 153.505V168.011H709.097V154.065C709.097 149.178 707.231 146.735 703.499 146.735C701.598 146.735 700.037 147.448 698.816 148.873C697.628 150.298 697.034 152.334 697.034 154.981V168.011H691.639V154.065C691.639 149.178 689.756 146.735 685.99 146.735C684.123 146.735 682.579 147.448 681.358 148.873C680.17 150.298 679.576 152.334 679.576 154.981V168.011H674.181ZM731.553 168.622C729.076 168.622 726.87 168.079 724.936 166.993C723.036 165.873 721.543 164.329 720.457 162.361C719.371 160.393 718.828 158.103 718.828 155.49C718.828 152.843 719.354 150.519 720.406 148.517C721.492 146.515 722.985 144.954 724.885 143.834C726.819 142.714 729.059 142.154 731.604 142.154C734.081 142.154 736.235 142.714 738.068 143.834C739.9 144.92 741.325 146.379 742.343 148.211C743.361 150.044 743.87 152.063 743.87 154.268C743.87 154.608 743.853 154.981 743.819 155.388C743.819 155.761 743.802 156.185 743.768 156.66H724.122C724.291 159.104 725.089 160.97 726.514 162.259C727.973 163.515 729.653 164.142 731.553 164.142C733.08 164.142 734.352 163.803 735.37 163.125C736.422 162.412 737.202 161.462 737.711 160.274H743.107C742.428 162.649 741.071 164.634 739.035 166.229C737.033 167.824 734.539 168.622 731.553 168.622ZM731.553 146.583C729.754 146.583 728.16 147.126 726.768 148.211C725.377 149.263 724.529 150.858 724.223 152.996H738.475C738.373 151.028 737.678 149.467 736.388 148.313C735.099 147.159 733.487 146.583 731.553 146.583ZM748.408 168.011V142.765H753.192L753.599 147.193C754.38 145.632 755.517 144.411 757.01 143.529C758.536 142.613 760.284 142.154 762.252 142.154C765.306 142.154 767.698 143.105 769.429 145.005C771.193 146.905 772.075 149.738 772.075 153.505V168.011H766.731V154.065C766.731 149.178 764.729 146.735 760.725 146.735C758.723 146.735 757.06 147.448 755.737 148.873C754.448 150.298 753.803 152.334 753.803 154.981V168.011H748.408ZM787.956 168.011C785.479 168.011 783.511 167.417 782.052 166.229C780.593 165.008 779.863 162.853 779.863 159.765V147.295H775.537V142.765H779.863L780.525 136.352H785.259V142.765H792.384V147.295H785.259V159.765C785.259 161.156 785.547 162.124 786.124 162.666C786.735 163.175 787.77 163.43 789.229 163.43H792.13V168.011H787.956ZM806.965 168.622C803.775 168.622 801.145 167.841 799.076 166.28C797.006 164.719 795.818 162.649 795.513 160.071H800.959C801.23 161.224 801.875 162.225 802.893 163.074C803.911 163.888 805.251 164.295 806.914 164.295C808.543 164.295 809.73 163.956 810.477 163.277C811.223 162.599 811.597 161.818 811.597 160.936C811.597 159.646 811.071 158.781 810.019 158.34C809.001 157.865 807.576 157.441 805.743 157.068C804.318 156.762 802.893 156.355 801.468 155.846C800.077 155.337 798.906 154.625 797.956 153.708C797.04 152.758 796.582 151.486 796.582 149.891C796.582 147.685 797.43 145.853 799.127 144.394C800.823 142.901 803.198 142.154 806.252 142.154C809.069 142.154 811.342 142.833 813.073 144.19C814.837 145.548 815.872 147.465 816.177 149.942H810.986C810.816 148.856 810.307 148.008 809.459 147.397C808.644 146.786 807.542 146.481 806.15 146.481C804.793 146.481 803.741 146.769 802.995 147.346C802.248 147.889 801.875 148.602 801.875 149.484C801.875 150.366 802.384 151.062 803.402 151.571C804.454 152.08 805.828 152.538 807.525 152.945C809.221 153.318 810.782 153.759 812.207 154.268C813.666 154.743 814.837 155.456 815.719 156.406C816.602 157.356 817.043 158.747 817.043 160.58C817.077 162.887 816.177 164.804 814.345 166.331C812.547 167.858 810.087 168.622 806.965 168.622Z" fill="#470D69"/>
<rect x="355.258" y="78.905" width="490.419" height="144.212" rx="25.4491" stroke="#A31BCB" stroke-opacity="0.2" stroke-width="8.48304" shape-rendering="crispEdges"/>
</g>
</g>
</g>
<defs>
<filter id="filter0_d_3011_14038" x="348.896" y="72.5426" width="503.143" height="156.936" filterUnits="userSpaceOnUse" color-interpolation-filters="sRGB">
<feFlood flood-opacity="0" result="BackgroundImageFix"/>
<feColorMatrix in="SourceAlpha" type="matrix" values="0 0 0 0 0 0 0 0 0 0 0 0 0 0 0 0 0 0 127 0" result="hardAlpha"/>
<feOffset/>
<feGaussianBlur stdDeviation="1.06038"/>
<feComposite in2="hardAlpha" operator="out"/>
<feColorMatrix type="matrix" values="0 0 0 0 0.639216 0 0 0 0 0.105882 0 0 0 0 0.796078 0 0 0 0.5 0"/>
<feBlend mode="normal" in2="BackgroundImageFix" result="effect1_dropShadow_3011_14038"/>
<feBlend mode="normal" in="SourceGraphic" in2="effect1_dropShadow_3011_14038" result="shape"/>
</filter>
<linearGradient id="paint0_linear_3011_14038" x1="386.847" y1="104.354" x2="445.781" y2="197.667" gradientUnits="userSpaceOnUse">
<stop stop-color="#5F5F5F"/>
<stop offset="1" stop-color="#363636"/>
</linearGradient>
<clipPath id="clip0_3011_14038">
<rect y="0.880127" width="1200" height="300.48" rx="24" fill="white"/>
</clipPath>
<clipPath id="clip1_3011_14038">
<rect width="1200" height="300" fill="white" transform="translate(0 0.880127)"/>
</clipPath>
</defs>
</svg>
