<svg width="1200" height="301" viewBox="0 0 1200 301" fill="none" xmlns="http://www.w3.org/2000/svg">
<g clip-path="url(#clip0_3168_26524)">
<rect width="1200" height="300" fill="#420B57"/>
<path opacity="0.11" fill-rule="evenodd" clip-rule="evenodd" d="M885.845 -191.525C890.764 -195.957 900.177 -197.702 911.037 -196.194L1165.57 -160.851C1177.89 -159.14 1190.17 -153.513 1197.43 -146.246L1243.99 -99.691L1316.63 -27.0488L1363.18 19.5063C1370.45 26.7735 1371.51 34.4797 1365.93 39.5095L1250.63 143.396C1245.71 147.828 1236.29 149.573 1225.43 148.065L970.907 112.722C958.583 111.011 946.307 105.384 939.039 98.117L892.484 51.5619L819.842 -21.0803L773.287 -67.6354C766.02 -74.9026 764.964 -82.6088 770.546 -87.6386L885.845 -191.525Z" fill="white"/>
<path fill-rule="evenodd" clip-rule="evenodd" d="M-80.2959 157.134C-75.3765 152.702 -65.9633 150.957 -55.1033 152.465L199.425 187.808C211.748 189.519 224.025 195.146 231.292 202.413L277.847 248.968L350.489 321.61L397.044 368.165C404.312 375.433 405.367 383.139 399.785 388.169L284.487 492.055C279.567 496.488 270.154 498.232 259.294 496.724L4.76602 461.381C-7.55724 459.67 -19.834 454.043 -27.1013 446.776L-73.6563 400.221L-146.299 327.579L-192.854 281.024C-200.121 273.757 -201.177 266.05 -195.594 261.021L-80.2959 157.134Z" fill="#A31BCB"/>
<g filter="url(#filter0_d_3168_26524)">
<rect x="364.5" y="82.2666" width="470.936" height="135.729" rx="21.2076" fill="white" shape-rendering="crispEdges"/>
<rect x="385.708" y="103.474" width="93.3134" height="93.3134" rx="16.9661" fill="url(#paint0_linear_3168_26524)"/>
<path fill-rule="evenodd" clip-rule="evenodd" d="M413.808 152.251C413.808 146.688 418.318 142.178 423.881 142.178H440.847C446.411 142.178 450.921 146.688 450.921 152.251V160.734C450.921 166.298 446.411 170.808 440.847 170.808H423.881C418.318 170.808 413.808 166.298 413.808 160.734V152.251ZM426.998 157.618L430.179 160.799C430.8 161.42 431.807 161.42 432.428 160.799L438.791 154.437C439.412 153.815 439.412 152.808 438.791 152.187C438.17 151.566 437.162 151.566 436.541 152.187L431.304 157.425L429.247 155.368C428.626 154.747 427.619 154.747 426.998 155.368C426.377 155.989 426.377 156.997 426.998 157.618Z" fill="white"/>
<path opacity="0.3" d="M440.847 143.768V139.527C440.847 134.842 437.049 131.044 432.364 131.044V131.044C427.679 131.044 423.881 134.842 423.881 139.527L423.881 143.768" stroke="white" stroke-width="3.18114"/>
<path d="M515.6 167.742C512.987 167.742 510.697 167.284 508.729 166.367C506.76 165.451 505.217 164.145 504.097 162.448C503.011 160.752 502.451 158.733 502.417 156.391H508.118C508.152 158.292 508.813 159.903 510.103 161.227C511.392 162.55 513.208 163.212 515.549 163.212C517.619 163.212 519.231 162.72 520.384 161.736C521.572 160.718 522.166 159.428 522.166 157.867C522.166 156.612 521.877 155.594 521.3 154.813C520.757 154.033 519.994 153.388 519.01 152.879C518.06 152.37 516.957 151.912 515.702 151.505C514.446 151.098 513.123 150.657 511.732 150.182C508.983 149.266 506.913 148.078 505.522 146.619C504.165 145.16 503.486 143.243 503.486 140.867C503.452 138.865 503.91 137.118 504.86 135.625C505.844 134.132 507.202 132.978 508.932 132.164C510.697 131.315 512.749 130.891 515.091 130.891C517.398 130.891 519.417 131.315 521.148 132.164C522.912 133.012 524.286 134.2 525.27 135.727C526.254 137.22 526.763 138.967 526.797 140.969H521.097C521.097 140.053 520.859 139.188 520.384 138.373C519.909 137.525 519.214 136.829 518.297 136.287C517.381 135.744 516.261 135.472 514.938 135.472C513.241 135.438 511.833 135.862 510.714 136.745C509.628 137.627 509.085 138.848 509.085 140.409C509.085 141.801 509.492 142.869 510.306 143.616C511.121 144.362 512.24 144.99 513.666 145.499C515.091 145.974 516.72 146.534 518.552 147.179C520.316 147.756 521.894 148.451 523.285 149.266C524.677 150.08 525.779 151.149 526.594 152.472C527.442 153.796 527.866 155.475 527.866 157.511C527.866 159.31 527.408 160.989 526.492 162.55C525.576 164.077 524.202 165.332 522.369 166.316C520.537 167.267 518.28 167.742 515.6 167.742ZM549.145 167.742C545.616 167.742 542.528 166.961 539.881 165.4C537.234 163.839 535.165 161.685 533.672 158.936C532.179 156.154 531.432 152.947 531.432 149.316C531.432 145.686 532.179 142.496 533.672 139.748C535.165 136.965 537.234 134.794 539.881 133.233C542.528 131.672 545.616 130.891 549.145 130.891C552.674 130.891 555.761 131.672 558.408 133.233C561.055 134.794 563.108 136.965 564.567 139.748C566.06 142.496 566.806 145.686 566.806 149.316C566.806 152.811 566.111 155.916 564.719 158.631C563.362 161.345 561.462 163.483 559.019 165.044L567.621 173.799H560.8L554.438 167.08C552.775 167.521 551.011 167.742 549.145 167.742ZM549.145 162.906C551.588 162.906 553.708 162.363 555.507 161.278C557.339 160.192 558.764 158.631 559.782 156.595C560.8 154.559 561.309 152.133 561.309 149.316C561.309 146.5 560.8 144.074 559.782 142.038C558.764 140.002 557.339 138.441 555.507 137.355C553.708 136.27 551.588 135.727 549.145 135.727C546.702 135.727 544.564 136.27 542.731 137.355C540.899 138.441 539.474 140.002 538.456 142.038C537.472 144.074 536.98 146.5 536.98 149.316C536.98 152.133 537.472 154.559 538.456 156.595C539.474 158.631 540.899 160.192 542.731 161.278C544.564 162.363 546.702 162.906 549.145 162.906ZM571.806 167.131V131.502H577.201V162.855H593.387V167.131H571.806ZM609.897 167.131V131.502H615.292V167.131H609.897ZM621.258 167.131V141.885H626.042L626.45 146.313C627.23 144.753 628.367 143.531 629.86 142.649C631.387 141.733 633.134 141.275 635.102 141.275C638.156 141.275 640.548 142.225 642.279 144.125C644.043 146.025 644.926 148.858 644.926 152.625V167.131H639.581V153.185C639.581 148.299 637.579 145.855 633.575 145.855C631.573 145.855 629.911 146.568 628.587 147.993C627.298 149.418 626.653 151.454 626.653 154.101V167.131H621.258ZM660.806 167.131C658.329 167.131 656.361 166.537 654.902 165.349C653.443 164.128 652.714 161.973 652.714 158.885V146.415H648.387V141.885H652.714L653.375 135.472H658.109V141.885H665.235V146.415H658.109V158.885C658.109 160.277 658.397 161.244 658.974 161.787C659.585 162.296 660.62 162.55 662.079 162.55H664.98V167.131H660.806ZM680.899 167.742C678.422 167.742 676.217 167.199 674.283 166.113C672.382 164.993 670.889 163.449 669.804 161.481C668.718 159.513 668.175 157.223 668.175 154.61C668.175 151.963 668.701 149.639 669.753 147.637C670.839 145.635 672.332 144.074 674.232 142.954C676.166 141.834 678.405 141.275 680.95 141.275C683.427 141.275 685.582 141.834 687.414 142.954C689.247 144.04 690.672 145.499 691.69 147.331C692.708 149.164 693.217 151.183 693.217 153.388C693.217 153.728 693.2 154.101 693.166 154.508C693.166 154.881 693.149 155.306 693.115 155.781H673.468C673.638 158.224 674.435 160.09 675.86 161.379C677.32 162.635 678.999 163.263 680.899 163.263C682.426 163.263 683.699 162.923 684.717 162.245C685.769 161.532 686.549 160.582 687.058 159.394H692.453C691.775 161.77 690.417 163.755 688.381 165.349C686.379 166.944 683.885 167.742 680.899 167.742ZM680.899 145.703C679.101 145.703 677.506 146.246 676.115 147.331C674.724 148.383 673.875 149.978 673.57 152.116H687.822C687.72 150.148 687.024 148.587 685.735 147.433C684.445 146.28 682.834 145.703 680.899 145.703ZM697.754 167.131V141.885H702.59L703.048 146.67C703.93 145.007 705.152 143.701 706.712 142.751C708.307 141.767 710.224 141.275 712.464 141.275V146.924H710.988C709.495 146.924 708.155 147.179 706.967 147.688C705.813 148.163 704.88 148.994 704.168 150.182C703.489 151.335 703.15 152.947 703.15 155.017V167.131H697.754ZM717.302 167.131V146.415H713.688V141.885H717.302V138.221C717.302 135.472 717.98 133.504 719.338 132.316C720.729 131.095 722.68 130.484 725.191 130.484H727.838V135.065H726.005C724.818 135.065 723.97 135.319 723.461 135.828C722.952 136.304 722.697 137.118 722.697 138.272V141.885H728.499V146.415H722.697V167.131H717.302ZM740.121 167.742C737.984 167.742 736.219 167.385 734.828 166.673C733.437 165.96 732.402 165.027 731.723 163.873C731.045 162.686 730.705 161.396 730.705 160.005C730.705 157.562 731.655 155.628 733.556 154.203C735.456 152.778 738.17 152.065 741.699 152.065H748.316V151.607C748.316 149.639 747.773 148.163 746.687 147.179C745.635 146.195 744.261 145.703 742.565 145.703C741.072 145.703 739.765 146.076 738.645 146.822C737.56 147.535 736.898 148.604 736.66 150.029H731.265C731.435 148.197 732.046 146.636 733.098 145.346C734.183 144.023 735.541 143.022 737.169 142.343C738.832 141.631 740.647 141.275 742.615 141.275C746.144 141.275 748.876 142.208 750.81 144.074C752.744 145.906 753.711 148.417 753.711 151.607V167.131H749.029L748.571 162.805C747.858 164.196 746.823 165.366 745.466 166.316C744.108 167.267 742.327 167.742 740.121 167.742ZM741.19 163.364C742.649 163.364 743.871 163.025 744.855 162.346C745.873 161.634 746.653 160.701 747.196 159.547C747.773 158.393 748.129 157.121 748.265 155.73H742.259C740.121 155.73 738.595 156.103 737.678 156.849C736.796 157.596 736.355 158.529 736.355 159.649C736.355 160.803 736.779 161.719 737.627 162.397C738.51 163.042 739.697 163.364 741.19 163.364ZM770.903 167.742C768.426 167.742 766.203 167.182 764.235 166.062C762.301 164.942 760.774 163.398 759.654 161.43C758.568 159.428 758.025 157.121 758.025 154.508C758.025 151.895 758.568 149.605 759.654 147.637C760.774 145.635 762.301 144.074 764.235 142.954C766.203 141.834 768.426 141.275 770.903 141.275C774.024 141.275 776.637 142.089 778.741 143.718C780.879 145.346 782.253 147.552 782.864 150.334H777.214C776.875 148.943 776.128 147.857 774.975 147.077C773.821 146.297 772.464 145.906 770.903 145.906C769.579 145.906 768.358 146.246 767.238 146.924C766.118 147.569 765.219 148.536 764.54 149.825C763.862 151.081 763.522 152.642 763.522 154.508C763.522 156.374 763.862 157.952 764.54 159.242C765.219 160.497 766.118 161.464 767.238 162.143C768.358 162.821 769.579 163.161 770.903 163.161C772.464 163.161 773.821 162.771 774.975 161.99C776.128 161.21 776.875 160.107 777.214 158.682H782.864C782.287 161.396 780.93 163.585 778.792 165.248C776.654 166.91 774.024 167.742 770.903 167.742ZM799.463 167.742C796.986 167.742 794.78 167.199 792.846 166.113C790.946 164.993 789.453 163.449 788.367 161.481C787.281 159.513 786.739 157.223 786.739 154.61C786.739 151.963 787.264 149.639 788.316 147.637C789.402 145.635 790.895 144.074 792.795 142.954C794.73 141.834 796.969 141.275 799.514 141.275C801.991 141.275 804.146 141.834 805.978 142.954C807.81 144.04 809.236 145.499 810.253 147.331C811.271 149.164 811.78 151.183 811.78 153.388C811.78 153.728 811.763 154.101 811.73 154.508C811.73 154.881 811.713 155.306 811.679 155.781H792.032C792.202 158.224 792.999 160.09 794.424 161.379C795.883 162.635 797.563 163.263 799.463 163.263C800.99 163.263 802.262 162.923 803.28 162.245C804.332 161.532 805.113 160.582 805.622 159.394H811.017C810.338 161.77 808.981 163.755 806.945 165.349C804.943 166.944 802.449 167.742 799.463 167.742ZM799.463 145.703C797.665 145.703 796.07 146.246 794.679 147.331C793.287 148.383 792.439 149.978 792.134 152.116H806.385C806.283 150.148 805.588 148.587 804.298 147.433C803.009 146.28 801.397 145.703 799.463 145.703Z" fill="#470D69"/>
<rect x="360.258" y="78.0251" width="479.419" height="144.212" rx="25.4491" stroke="#A31BCB" stroke-opacity="0.2" stroke-width="8.48304" shape-rendering="crispEdges"/>
</g>
</g>
<defs>
<filter id="filter0_d_3168_26524" x="353.896" y="71.6629" width="492.143" height="156.936" filterUnits="userSpaceOnUse" color-interpolation-filters="sRGB">
<feFlood flood-opacity="0" result="BackgroundImageFix"/>
<feColorMatrix in="SourceAlpha" type="matrix" values="0 0 0 0 0 0 0 0 0 0 0 0 0 0 0 0 0 0 127 0" result="hardAlpha"/>
<feOffset/>
<feGaussianBlur stdDeviation="1.06038"/>
<feComposite in2="hardAlpha" operator="out"/>
<feColorMatrix type="matrix" values="0 0 0 0 0.639216 0 0 0 0 0.105882 0 0 0 0 0.796078 0 0 0 0.5 0"/>
<feBlend mode="normal" in2="BackgroundImageFix" result="effect1_dropShadow_3168_26524"/>
<feBlend mode="normal" in="SourceGraphic" in2="effect1_dropShadow_3168_26524" result="shape"/>
</filter>
<linearGradient id="paint0_linear_3168_26524" x1="391.847" y1="103.474" x2="450.781" y2="196.788" gradientUnits="userSpaceOnUse">
<stop stop-color="#5F5F5F"/>
<stop offset="1" stop-color="#363636"/>
</linearGradient>
<clipPath id="clip0_3168_26524">
<rect width="1200" height="300" fill="white"/>
</clipPath>
</defs>
</svg>
