<svg width="1200" height="301" viewBox="0 0 1200 301" fill="none" xmlns="http://www.w3.org/2000/svg">
<g clip-path="url(#clip0_3011_14018)">
<g clip-path="url(#clip1_3011_14018)">
<rect width="1200" height="300" transform="translate(0 0.399902)" fill="#420B57"/>
<path opacity="0.11" fill-rule="evenodd" clip-rule="evenodd" d="M885.845 -191.125C890.764 -195.557 900.177 -197.302 911.037 -195.794L1165.57 -160.451C1177.89 -158.74 1190.17 -153.113 1197.43 -145.846L1243.99 -99.2909L1316.63 -26.6487L1363.18 19.9064C1370.45 27.1737 1371.51 34.8798 1365.93 39.9096L1250.63 143.796C1245.71 148.228 1236.29 149.973 1225.43 148.465L970.907 113.122C958.583 111.411 946.307 105.784 939.039 98.5171L892.484 51.9621L819.842 -20.6801L773.287 -67.2352C766.02 -74.5025 764.964 -82.2086 770.546 -87.2384L885.845 -191.125Z" fill="white"/>
<path fill-rule="evenodd" clip-rule="evenodd" d="M-80.2959 157.534C-75.3765 153.101 -65.9633 151.357 -55.1033 152.865L199.425 188.208C211.748 189.919 224.025 195.545 231.292 202.813L277.847 249.368L350.489 322.01L397.044 368.565C404.312 375.832 405.367 383.539 399.785 388.568L284.487 492.455C279.567 496.887 270.154 498.632 259.294 497.124L4.76602 461.781C-7.55724 460.07 -19.834 454.443 -27.1013 447.176L-73.6563 400.621L-146.299 327.979L-192.854 281.423C-200.121 274.156 -201.177 266.45 -195.594 261.42L-80.2959 157.534Z" fill="#A31BCB"/>
<g filter="url(#filter0_d_3011_14018)">
<rect x="391" y="82.6663" width="418.936" height="135.729" rx="21.2076" fill="white" shape-rendering="crispEdges"/>
<rect x="412.208" y="103.874" width="93.3134" height="93.3134" rx="16.9661" fill="url(#paint0_linear_3011_14018)"/>
<path opacity="0.3" fill-rule="evenodd" clip-rule="evenodd" d="M480.929 134.348C481.377 130.925 478.556 128.105 475.134 128.552C470.131 129.207 461.632 131.003 456.154 136.084C454.411 137.7 452.801 139.653 451.37 141.66L447.263 141.074C446.107 140.909 444.94 141.297 444.114 142.123L437.366 148.872C435.203 151.034 436.438 154.738 439.465 155.17L445.764 156.07L445.764 156.067C446.042 156.642 446.419 157.174 446.883 157.639L451.843 162.599C452.307 163.063 452.84 163.439 453.415 163.717L453.412 163.718L454.312 170.016C454.744 173.044 458.447 174.278 460.61 172.115L467.358 165.367C468.184 164.541 468.573 163.375 468.408 162.218L467.821 158.111C469.829 156.681 471.782 155.07 473.398 153.327C478.478 147.85 480.275 139.351 480.929 134.348Z" fill="white"/>
<path d="M445.989 163.493L439.991 169.491M441.49 158.994L438.491 161.993M450.488 167.992L447.489 170.991" stroke="white" stroke-width="3.18114" stroke-linecap="round"/>
<path d="M462.484 140.999C460.828 142.655 460.828 145.341 462.484 146.997C464.141 148.654 466.826 148.654 468.483 146.997C470.139 145.341 470.139 142.655 468.483 140.999C466.826 139.342 464.141 139.342 462.484 140.999Z" fill="white"/>
<path d="M546.782 168.141C543.253 168.141 540.166 167.361 537.519 165.8C534.872 164.239 532.802 162.084 531.309 159.336C529.816 156.553 529.07 153.347 529.07 149.716C529.07 146.085 529.816 142.896 531.309 140.147C532.802 137.365 534.872 135.193 537.519 133.632C540.166 132.071 543.253 131.291 546.782 131.291C550.311 131.291 553.399 132.071 556.046 133.632C558.693 135.193 560.745 137.365 562.205 140.147C563.698 142.896 564.444 146.085 564.444 149.716C564.444 153.211 563.748 156.316 562.357 159.031C561 161.745 559.1 163.883 556.657 165.444L565.258 174.198H558.438L552.076 167.48C550.413 167.921 548.649 168.141 546.782 168.141ZM546.782 163.306C549.226 163.306 551.346 162.763 553.145 161.677C554.977 160.591 556.402 159.031 557.42 156.995C558.438 154.959 558.947 152.533 558.947 149.716C558.947 146.9 558.438 144.474 557.42 142.438C556.402 140.402 554.977 138.841 553.145 137.755C551.346 136.669 549.226 136.126 546.782 136.126C544.339 136.126 542.202 136.669 540.369 137.755C538.537 138.841 537.112 140.402 536.094 142.438C535.11 144.474 534.618 146.9 534.618 149.716C534.618 152.533 535.11 154.959 536.094 156.995C537.112 159.031 538.537 160.591 540.369 161.677C542.202 162.763 544.339 163.306 546.782 163.306ZM578.902 168.141C575.849 168.141 573.439 167.191 571.675 165.291C569.944 163.391 569.079 160.557 569.079 156.791V142.285H574.474V156.231C574.474 161.117 576.476 163.56 580.48 163.56C582.482 163.56 584.128 162.848 585.417 161.423C586.707 159.998 587.352 157.962 587.352 155.315V142.285H592.747V167.531H587.962L587.555 163.102C586.775 164.663 585.621 165.902 584.094 166.818C582.601 167.7 580.871 168.141 578.902 168.141ZM601.604 137.501C600.586 137.501 599.737 137.195 599.059 136.584C598.414 135.94 598.092 135.142 598.092 134.192C598.092 133.242 598.414 132.462 599.059 131.851C599.737 131.206 600.586 130.884 601.604 130.884C602.622 130.884 603.453 131.206 604.098 131.851C604.776 132.462 605.116 133.242 605.116 134.192C605.116 135.142 604.776 135.94 604.098 136.584C603.453 137.195 602.622 137.501 601.604 137.501ZM598.906 167.531V142.285H604.301V167.531H598.906ZM622.324 168.141C619.847 168.141 617.625 167.581 615.656 166.462C613.722 165.342 612.195 163.798 611.076 161.83C609.99 159.828 609.447 157.521 609.447 154.908C609.447 152.295 609.99 150.005 611.076 148.037C612.195 146.035 613.722 144.474 615.656 143.354C617.625 142.234 619.847 141.674 622.324 141.674C625.446 141.674 628.059 142.489 630.162 144.117C632.3 145.746 633.674 147.952 634.285 150.734H628.635C628.296 149.343 627.55 148.257 626.396 147.477C625.242 146.696 623.885 146.306 622.324 146.306C621.001 146.306 619.779 146.645 618.659 147.324C617.54 147.969 616.64 148.936 615.962 150.225C615.283 151.481 614.944 153.041 614.944 154.908C614.944 156.774 615.283 158.352 615.962 159.641C616.64 160.897 617.54 161.864 618.659 162.542C619.779 163.221 621.001 163.56 622.324 163.56C623.885 163.56 625.242 163.17 626.396 162.39C627.55 161.609 628.296 160.507 628.635 159.081H634.285C633.708 161.796 632.351 163.985 630.213 165.647C628.076 167.31 625.446 168.141 622.324 168.141ZM639.076 167.531V130.884H644.471V152.719L654.142 142.285H660.606L649.867 153.737L662.184 167.531H655.364L644.471 154.602V167.531H639.076ZM689.029 168.141C686.416 168.141 684.125 167.683 682.157 166.767C680.189 165.851 678.645 164.544 677.526 162.848C676.44 161.151 675.88 159.132 675.846 156.791H681.547C681.58 158.691 682.242 160.303 683.532 161.626C684.821 162.95 686.636 163.611 688.978 163.611C691.048 163.611 692.659 163.119 693.813 162.135C695.001 161.117 695.594 159.828 695.594 158.267C695.594 157.012 695.306 155.994 694.729 155.213C694.186 154.433 693.423 153.788 692.439 153.279C691.489 152.77 690.386 152.312 689.13 151.905C687.875 151.498 686.552 151.056 685.16 150.581C682.412 149.665 680.342 148.478 678.951 147.019C677.593 145.559 676.915 143.642 676.915 141.267C676.881 139.265 677.339 137.518 678.289 136.025C679.273 134.532 680.63 133.378 682.361 132.563C684.125 131.715 686.178 131.291 688.52 131.291C690.827 131.291 692.846 131.715 694.576 132.563C696.341 133.412 697.715 134.599 698.699 136.126C699.683 137.619 700.192 139.367 700.226 141.369H694.526C694.526 140.453 694.288 139.587 693.813 138.773C693.338 137.925 692.642 137.229 691.726 136.686C690.81 136.143 689.69 135.872 688.367 135.872C686.67 135.838 685.262 136.262 684.142 137.144C683.057 138.027 682.514 139.248 682.514 140.809C682.514 142.2 682.921 143.269 683.735 144.016C684.55 144.762 685.669 145.39 687.094 145.899C688.52 146.374 690.148 146.934 691.981 147.578C693.745 148.155 695.323 148.851 696.714 149.665C698.105 150.48 699.208 151.548 700.023 152.872C700.871 154.195 701.295 155.875 701.295 157.911C701.295 159.709 700.837 161.389 699.921 162.95C699.005 164.477 697.63 165.732 695.798 166.716C693.966 167.666 691.709 168.141 689.029 168.141ZM716.517 167.531C714.04 167.531 712.071 166.937 710.612 165.749C709.153 164.528 708.424 162.373 708.424 159.285V146.815H704.097V142.285H708.424L709.085 135.872H713.819V142.285H720.945V146.815H713.819V159.285C713.819 160.676 714.107 161.643 714.684 162.186C715.295 162.695 716.33 162.95 717.789 162.95H720.69V167.531H716.517ZM733.998 168.141C731.861 168.141 730.096 167.785 728.705 167.072C727.314 166.36 726.279 165.427 725.6 164.273C724.921 163.085 724.582 161.796 724.582 160.405C724.582 157.962 725.532 156.028 727.432 154.602C729.333 153.177 732.047 152.465 735.576 152.465H742.193V152.007C742.193 150.038 741.65 148.562 740.564 147.578C739.512 146.594 738.138 146.102 736.441 146.102C734.948 146.102 733.642 146.476 732.522 147.222C731.436 147.935 730.775 149.004 730.537 150.429H725.142C725.312 148.596 725.922 147.036 726.974 145.746C728.06 144.423 729.417 143.422 731.046 142.743C732.709 142.031 734.524 141.674 736.492 141.674C740.021 141.674 742.753 142.607 744.687 144.474C746.621 146.306 747.588 148.817 747.588 152.007V167.531H742.905L742.447 163.204C741.735 164.595 740.7 165.766 739.343 166.716C737.985 167.666 736.204 168.141 733.998 168.141ZM735.067 163.764C736.526 163.764 737.748 163.425 738.732 162.746C739.75 162.034 740.53 161.1 741.073 159.947C741.65 158.793 742.006 157.521 742.142 156.129H736.136C733.998 156.129 732.471 156.503 731.555 157.249C730.673 157.996 730.232 158.929 730.232 160.048C730.232 161.202 730.656 162.118 731.504 162.797C732.386 163.442 733.574 163.764 735.067 163.764ZM752.818 167.531V142.285H757.654L758.112 147.069C758.994 145.407 760.216 144.1 761.776 143.15C763.371 142.166 765.288 141.674 767.528 141.674V147.324H766.052C764.559 147.324 763.219 147.578 762.031 148.087C760.877 148.562 759.944 149.394 759.232 150.581C758.553 151.735 758.214 153.347 758.214 155.417V167.531H752.818ZM781.68 167.531C779.203 167.531 777.235 166.937 775.776 165.749C774.317 164.528 773.587 162.373 773.587 159.285V146.815H769.261V142.285H773.587L774.249 135.872H778.983V142.285H786.108V146.815H778.983V159.285C778.983 160.676 779.271 161.643 779.848 162.186C780.459 162.695 781.494 162.95 782.953 162.95H785.854V167.531H781.68Z" fill="#470D69"/>
<rect x="386.758" y="78.4247" width="427.419" height="144.212" rx="25.4491" stroke="#A31BCB" stroke-opacity="0.2" stroke-width="8.48304" shape-rendering="crispEdges"/>
</g>
</g>
</g>
<defs>
<filter id="filter0_d_3011_14018" x="380.396" y="72.0623" width="440.143" height="156.936" filterUnits="userSpaceOnUse" color-interpolation-filters="sRGB">
<feFlood flood-opacity="0" result="BackgroundImageFix"/>
<feColorMatrix in="SourceAlpha" type="matrix" values="0 0 0 0 0 0 0 0 0 0 0 0 0 0 0 0 0 0 127 0" result="hardAlpha"/>
<feOffset/>
<feGaussianBlur stdDeviation="1.06038"/>
<feComposite in2="hardAlpha" operator="out"/>
<feColorMatrix type="matrix" values="0 0 0 0 0.639216 0 0 0 0 0.105882 0 0 0 0 0.796078 0 0 0 0.5 0"/>
<feBlend mode="normal" in2="BackgroundImageFix" result="effect1_dropShadow_3011_14018"/>
<feBlend mode="normal" in="SourceGraphic" in2="effect1_dropShadow_3011_14018" result="shape"/>
</filter>
<linearGradient id="paint0_linear_3011_14018" x1="418.347" y1="103.874" x2="477.281" y2="197.187" gradientUnits="userSpaceOnUse">
<stop stop-color="#5F5F5F"/>
<stop offset="1" stop-color="#363636"/>
</linearGradient>
<clipPath id="clip0_3011_14018">
<rect y="0.399902" width="1200" height="300.48" rx="24" fill="white"/>
</clipPath>
<clipPath id="clip1_3011_14018">
<rect width="1200" height="300" fill="white" transform="translate(0 0.399902)"/>
</clipPath>
</defs>
</svg>
