<svg width="1200" height="301" viewBox="0 0 1200 301" fill="none" xmlns="http://www.w3.org/2000/svg">
<g clip-path="url(#clip0_3011_13818)">
<g clip-path="url(#clip1_3011_13818)">
<rect width="1200" height="300" transform="translate(0 0.47998)" fill="#420B57"/>
<path opacity="0.11" fill-rule="evenodd" clip-rule="evenodd" d="M885.845 -191.044C890.764 -195.477 900.177 -197.222 911.037 -195.714L1165.57 -160.371C1177.89 -158.659 1190.17 -153.033 1197.43 -145.766L1243.99 -99.2106L1316.63 -26.5683L1363.18 19.9867C1370.45 27.254 1371.51 34.9601 1365.93 39.9899L1250.63 143.876C1245.71 148.309 1236.29 150.053 1225.43 148.545L970.907 113.202C958.583 111.491 946.307 105.865 939.039 98.5975L892.484 52.0424L819.842 -20.5998L773.287 -67.1549C766.02 -74.4221 764.964 -82.1283 770.546 -87.1581L885.845 -191.044Z" fill="white"/>
<path fill-rule="evenodd" clip-rule="evenodd" d="M-80.2959 157.614C-75.3765 153.181 -65.9633 151.437 -55.1033 152.945L199.425 188.288C211.748 189.999 224.025 195.626 231.292 202.893L277.847 249.448L350.489 322.09L397.044 368.645C404.312 375.912 405.367 383.619 399.785 388.648L284.487 492.535C279.567 496.967 270.154 498.712 259.294 497.204L4.76602 461.861C-7.55724 460.15 -19.834 454.523 -27.1013 447.256L-73.6563 400.701L-146.299 328.059L-192.854 281.504C-200.121 274.236 -201.177 266.53 -195.594 261.5L-80.2959 157.614Z" fill="#A31BCB"/>
<g filter="url(#filter0_d_3011_13818)">
<rect x="450.5" y="82.7461" width="298.936" height="135.729" rx="21.2076" fill="white" shape-rendering="crispEdges"/>
<rect x="471.708" y="103.954" width="93.3134" height="93.3134" rx="16.9661" fill="url(#paint0_linear_3011_13818)"/>
<path opacity="0.3" fill-rule="evenodd" clip-rule="evenodd" d="M501.928 140.006C501.928 134.443 506.438 129.933 512.001 129.933H524.726C530.289 129.933 534.799 134.443 534.799 140.006V167.933C534.799 170.87 531.551 172.643 529.081 171.055L519.797 165.087C518.924 164.526 517.803 164.525 516.93 165.087L507.646 171.055C505.176 172.643 501.928 170.87 501.928 167.933V140.006ZM512.001 141.597C511.123 141.597 510.411 142.309 510.411 143.188C510.411 144.066 511.123 144.778 512.001 144.778H524.726C525.604 144.778 526.316 144.066 526.316 143.188C526.316 142.309 525.604 141.597 524.726 141.597H512.001Z" fill="white"/>
<path d="M512.001 143.188H524.726" stroke="white" stroke-width="3.18114" stroke-linecap="round"/>
<path d="M603.178 168.221C600.633 168.221 598.325 167.729 596.255 166.745C594.22 165.727 592.591 164.183 591.369 162.113C590.182 160.043 589.588 157.414 589.588 154.224V131.982H594.983V154.275C594.983 157.397 595.73 159.687 597.223 161.146C598.716 162.605 600.735 163.335 603.279 163.335C605.79 163.335 607.792 162.605 609.285 161.146C610.778 159.687 611.525 157.397 611.525 154.275V131.982H616.92V154.224C616.92 157.414 616.292 160.043 615.037 162.113C613.815 164.183 612.153 165.727 610.049 166.745C607.979 167.729 605.689 168.221 603.178 168.221ZM632.655 168.221C629.465 168.221 626.835 167.441 624.765 165.88C622.695 164.319 621.508 162.249 621.202 159.67H626.649C626.92 160.824 627.565 161.825 628.583 162.673C629.601 163.488 630.941 163.895 632.604 163.895C634.232 163.895 635.42 163.555 636.167 162.877C636.913 162.198 637.286 161.418 637.286 160.535C637.286 159.246 636.76 158.381 635.708 157.94C634.691 157.465 633.265 157.04 631.433 156.667C630.008 156.362 628.583 155.955 627.158 155.446C625.766 154.937 624.596 154.224 623.646 153.308C622.729 152.358 622.271 151.085 622.271 149.491C622.271 147.285 623.12 145.453 624.816 143.994C626.513 142.501 628.888 141.754 631.942 141.754C634.758 141.754 637.032 142.433 638.762 143.79C640.527 145.147 641.562 147.064 641.867 149.541H636.676C636.506 148.456 635.997 147.607 635.149 146.997C634.334 146.386 633.231 146.08 631.84 146.08C630.483 146.08 629.431 146.369 628.685 146.946C627.938 147.489 627.565 148.201 627.565 149.083C627.565 149.966 628.074 150.661 629.092 151.17C630.144 151.679 631.518 152.137 633.214 152.544C634.911 152.918 636.472 153.359 637.897 153.868C639.356 154.343 640.527 155.055 641.409 156.006C642.291 156.956 642.732 158.347 642.732 160.179C642.766 162.487 641.867 164.404 640.035 165.931C638.236 167.458 635.776 168.221 632.655 168.221ZM656.113 168.221C653.975 168.221 652.211 167.865 650.819 167.152C649.428 166.44 648.393 165.507 647.715 164.353C647.036 163.165 646.697 161.876 646.697 160.485C646.697 158.041 647.647 156.107 649.547 154.682C651.447 153.257 654.162 152.544 657.691 152.544H664.307V152.086C664.307 150.118 663.765 148.642 662.679 147.658C661.627 146.674 660.253 146.182 658.556 146.182C657.063 146.182 655.757 146.555 654.637 147.302C653.551 148.015 652.889 149.083 652.652 150.509H647.257C647.426 148.676 648.037 147.115 649.089 145.826C650.175 144.503 651.532 143.502 653.161 142.823C654.823 142.11 656.639 141.754 658.607 141.754C662.136 141.754 664.867 142.687 666.801 144.553C668.736 146.386 669.703 148.897 669.703 152.086V167.61H665.02L664.562 163.284C663.849 164.675 662.814 165.846 661.457 166.796C660.1 167.746 658.318 168.221 656.113 168.221ZM657.182 163.844C658.641 163.844 659.862 163.505 660.846 162.826C661.864 162.113 662.645 161.18 663.188 160.027C663.765 158.873 664.121 157.6 664.257 156.209H658.251C656.113 156.209 654.586 156.582 653.67 157.329C652.787 158.075 652.346 159.009 652.346 160.128C652.346 161.282 652.771 162.198 653.619 162.877C654.501 163.522 655.689 163.844 657.182 163.844ZM685.265 159.874C683.942 159.874 682.72 159.721 681.601 159.416L679.412 161.553C679.785 161.791 680.243 161.995 680.786 162.164C681.329 162.334 682.093 162.487 683.077 162.622C684.061 162.758 685.401 162.894 687.098 163.03C690.457 163.335 692.883 164.149 694.376 165.473C695.869 166.762 696.616 168.493 696.616 170.664C696.616 172.157 696.208 173.565 695.394 174.889C694.614 176.246 693.375 177.332 691.678 178.146C690.016 178.995 687.878 179.419 685.265 179.419C681.736 179.419 678.869 178.74 676.664 177.383C674.492 176.059 673.406 174.04 673.406 171.326C673.406 170.274 673.677 169.222 674.22 168.17C674.797 167.152 675.696 166.185 676.918 165.269C676.205 164.964 675.578 164.641 675.035 164.302C674.526 163.929 674.068 163.555 673.661 163.182V161.961L678.038 157.482C676.07 155.785 675.086 153.562 675.086 150.814C675.086 149.151 675.476 147.641 676.256 146.284C677.071 144.893 678.241 143.79 679.768 142.976C681.295 142.161 683.128 141.754 685.265 141.754C686.69 141.754 688.014 141.958 689.235 142.365H698.652V145.928L694.172 146.182C694.987 147.573 695.394 149.117 695.394 150.814C695.394 152.511 694.987 154.037 694.172 155.395C693.392 156.752 692.238 157.838 690.711 158.652C689.218 159.467 687.403 159.874 685.265 159.874ZM685.265 155.649C686.826 155.649 688.082 155.242 689.032 154.428C690.016 153.579 690.508 152.392 690.508 150.865C690.508 149.304 690.016 148.116 689.032 147.302C688.082 146.488 686.826 146.08 685.265 146.08C683.67 146.08 682.381 146.488 681.397 147.302C680.447 148.116 679.972 149.304 679.972 150.865C679.972 152.392 680.447 153.579 681.397 154.428C682.381 155.242 683.67 155.649 685.265 155.649ZM678.496 170.817C678.496 172.276 679.141 173.362 680.43 174.074C681.719 174.821 683.331 175.194 685.265 175.194C687.132 175.194 688.642 174.787 689.795 173.973C690.949 173.192 691.526 172.14 691.526 170.817C691.526 169.833 691.136 168.985 690.355 168.272C689.575 167.593 688.099 167.169 685.927 167C684.298 166.898 682.856 166.745 681.601 166.541C680.413 167.186 679.599 167.882 679.158 168.628C678.716 169.375 678.496 170.104 678.496 170.817ZM713.218 168.221C710.741 168.221 708.535 167.678 706.601 166.592C704.701 165.473 703.208 163.929 702.122 161.961C701.036 159.993 700.493 157.702 700.493 155.089C700.493 152.443 701.019 150.118 702.071 148.116C703.157 146.114 704.65 144.553 706.55 143.434C708.484 142.314 710.724 141.754 713.269 141.754C715.746 141.754 717.9 142.314 719.733 143.434C721.565 144.52 722.99 145.979 724.008 147.811C725.026 149.643 725.535 151.662 725.535 153.868C725.535 154.207 725.518 154.58 725.484 154.988C725.484 155.361 725.467 155.785 725.433 156.26H705.787C705.956 158.703 706.754 160.569 708.179 161.859C709.638 163.114 711.318 163.742 713.218 163.742C714.745 163.742 716.017 163.403 717.035 162.724C718.087 162.012 718.867 161.061 719.376 159.874H724.772C724.093 162.249 722.736 164.234 720.7 165.829C718.698 167.424 716.204 168.221 713.218 168.221ZM713.218 146.182C711.419 146.182 709.824 146.725 708.433 147.811C707.042 148.863 706.194 150.458 705.888 152.595H720.14C720.038 150.627 719.342 149.066 718.053 147.913C716.764 146.759 715.152 146.182 713.218 146.182Z" fill="#470D69"/>
<rect x="446.258" y="78.5046" width="307.419" height="144.212" rx="25.4491" stroke="#A31BCB" stroke-opacity="0.2" stroke-width="8.48304" shape-rendering="crispEdges"/>
</g>
</g>
</g>
<defs>
<filter id="filter0_d_3011_13818" x="439.896" y="72.1424" width="320.143" height="156.936" filterUnits="userSpaceOnUse" color-interpolation-filters="sRGB">
<feFlood flood-opacity="0" result="BackgroundImageFix"/>
<feColorMatrix in="SourceAlpha" type="matrix" values="0 0 0 0 0 0 0 0 0 0 0 0 0 0 0 0 0 0 127 0" result="hardAlpha"/>
<feOffset/>
<feGaussianBlur stdDeviation="1.06038"/>
<feComposite in2="hardAlpha" operator="out"/>
<feColorMatrix type="matrix" values="0 0 0 0 0.639216 0 0 0 0 0.105882 0 0 0 0 0.796078 0 0 0 0.5 0"/>
<feBlend mode="normal" in2="BackgroundImageFix" result="effect1_dropShadow_3011_13818"/>
<feBlend mode="normal" in="SourceGraphic" in2="effect1_dropShadow_3011_13818" result="shape"/>
</filter>
<linearGradient id="paint0_linear_3011_13818" x1="477.847" y1="103.954" x2="536.781" y2="197.267" gradientUnits="userSpaceOnUse">
<stop stop-color="#5F5F5F"/>
<stop offset="1" stop-color="#363636"/>
</linearGradient>
<clipPath id="clip0_3011_13818">
<rect y="0.47998" width="1200" height="300.48" rx="24" fill="white"/>
</clipPath>
<clipPath id="clip1_3011_13818">
<rect width="1200" height="300" fill="white" transform="translate(0 0.47998)"/>
</clipPath>
</defs>
</svg>
