<svg width="596" height="380" viewBox="0 0 596 380" fill="none" xmlns="http://www.w3.org/2000/svg">
<rect width="596" height="379.083" rx="24" fill="#FBFBFB"/>
<g clip-path="url(#clip0_3137_12680)">
<rect x="24" y="24" width="548" height="331.083" rx="10.96" fill="#FAF7FD"/>
<g opacity="0.21" filter="url(#filter0_f_3137_12680)">
<circle cx="268.748" cy="282.16" r="72.4537" transform="rotate(-43.007 268.748 282.16)" fill="#AA84FB"/>
</g>
<g opacity="0.21" filter="url(#filter1_f_3137_12680)">
<circle cx="252.9" cy="148.323" r="72.4537" transform="rotate(-43.007 252.9 148.323)" fill="#FAEB9C"/>
</g>
<g opacity="0.21" filter="url(#filter2_f_3137_12680)">
<circle cx="360.144" cy="196.91" r="72.4537" transform="rotate(-43.007 360.144 196.91)" fill="#FF7E7E"/>
</g>
<path d="M65.7156 97.6345V76.2319H69.3421L79.2706 91.3178V76.2319H82.8971V97.6345H79.2706L69.3421 82.5487V97.6345H65.7156ZM94.3497 98.0804C92.7247 98.0804 91.2978 97.7287 90.0692 97.0251C88.8405 96.3216 87.8794 95.3456 87.1857 94.0971C86.5021 92.8487 86.1602 91.4119 86.1602 89.7869C86.1602 88.0331 86.4971 86.5121 87.1709 85.224C87.8447 83.926 88.781 82.9202 89.98 82.2068C91.1789 81.4934 92.5661 81.1367 94.1416 81.1367C95.8062 81.1367 97.2182 81.5281 98.3775 82.3109C99.5467 83.0837 100.414 84.1786 100.979 85.5956C101.543 87.0125 101.756 88.6821 101.618 90.6044H98.0654V89.2964C98.0555 87.5525 97.7483 86.2793 97.1439 85.4767C96.5395 84.6741 95.5882 84.2728 94.2902 84.2728C92.8237 84.2728 91.7338 84.7286 91.0204 85.6401C90.307 86.5418 89.9503 87.8646 89.9503 89.6085C89.9503 91.2336 90.307 92.492 91.0204 93.3837C91.7338 94.2755 92.7742 94.7214 94.1416 94.7214C95.0235 94.7214 95.7815 94.5282 96.4156 94.1417C97.0597 93.7454 97.5551 93.1756 97.9019 92.4325L101.439 93.5026C100.825 94.9493 99.8737 96.0739 98.5856 96.8765C97.3074 97.6791 95.8954 98.0804 94.3497 98.0804ZM88.8207 90.6044V87.8993H99.8638V90.6044H88.8207ZM107.772 97.6345L102.867 81.5528L106.375 81.5826L109.511 91.8826L112.691 81.5826H115.709L118.874 91.8826L122.025 81.5826H125.533L120.628 97.6345H117.834L114.193 86.5914L110.566 97.6345H107.772ZM132.68 97.6345L139.428 76.2319H144.674L151.422 97.6345H147.736L141.613 78.4316H142.415L136.366 97.6345H132.68ZM136.44 92.9973V89.6531H147.677V92.9973H136.44ZM154.407 97.6345V75.786H157.988V97.6345H154.407ZM169.738 98.0804C168.113 98.0804 166.686 97.7287 165.458 97.0251C164.229 96.3216 163.268 95.3456 162.574 94.0971C161.891 92.8487 161.549 91.4119 161.549 89.7869C161.549 88.0331 161.886 86.5121 162.56 85.224C163.233 83.926 164.17 82.9202 165.369 82.2068C166.568 81.4934 167.955 81.1367 169.53 81.1367C171.195 81.1367 172.607 81.5281 173.766 82.3109C174.935 83.0837 175.802 84.1786 176.367 85.5956C176.932 87.0125 177.145 88.6821 177.006 90.6044H173.454V89.2964C173.444 87.5525 173.137 86.2793 172.533 85.4767C171.928 84.6741 170.977 84.2728 169.679 84.2728C168.212 84.2728 167.122 84.7286 166.409 85.6401C165.696 86.5418 165.339 87.8646 165.339 89.6085C165.339 91.2336 165.696 92.492 166.409 93.3837C167.122 94.2755 168.163 94.7214 169.53 94.7214C170.412 94.7214 171.17 94.5282 171.804 94.1417C172.448 93.7454 172.944 93.1756 173.291 92.4325L176.828 93.5026C176.214 94.9493 175.262 96.0739 173.974 96.8765C172.696 97.6791 171.284 98.0804 169.738 98.0804ZM164.209 90.6044V87.8993H175.252V90.6044H164.209ZM180.323 97.6345V81.5826H183.488V85.4915L183.102 84.9862C183.3 84.4511 183.563 83.9656 183.89 83.5296C184.227 83.0837 184.628 82.7171 185.094 82.4298C185.49 82.1622 185.926 81.9541 186.401 81.8055C186.887 81.647 187.382 81.5528 187.888 81.5231C188.393 81.4835 188.884 81.5033 189.359 81.5826V84.9267C188.884 84.788 188.334 84.7434 187.709 84.793C187.095 84.8425 186.54 85.0159 186.045 85.3132C185.549 85.5807 185.143 85.9225 184.826 86.3387C184.519 86.7549 184.291 87.2305 184.142 87.7655C183.994 88.2907 183.919 88.8604 183.919 89.4748V97.6345H180.323ZM201.604 97.6345C200.543 97.8327 199.503 97.9169 198.482 97.8872C197.472 97.8674 196.565 97.6841 195.763 97.3373C194.96 96.9806 194.351 96.4207 193.934 95.6578C193.568 94.9642 193.375 94.2557 193.355 93.5324C193.335 92.809 193.325 91.9916 193.325 91.08V77.1237H196.892V90.8719C196.892 91.516 196.897 92.0807 196.907 92.5663C196.927 93.0518 197.031 93.4481 197.219 93.7553C197.576 94.3498 198.146 94.6818 198.928 94.7511C199.711 94.8205 200.603 94.7808 201.604 94.6322V97.6345ZM190.412 84.3917V81.5826H201.604V84.3917H190.412Z" fill="black"/>
<path d="M63.932 142.434L67.4099 131.733H69.6468L73.1247 142.434H71.5121L68.3092 132.669H68.7105L65.5446 142.434H63.932ZM65.7379 140.019V138.562H71.3263V140.019H65.7379ZM74.6066 142.434V131.51H76.1598V142.434H74.6066ZM81.9511 142.657C81.1535 142.657 80.4524 142.483 79.848 142.137C79.2485 141.785 78.7803 141.297 78.4435 140.673C78.1115 140.043 77.9455 139.315 77.9455 138.488C77.9455 137.611 78.109 136.85 78.436 136.206C78.768 135.562 79.2287 135.064 79.8183 134.713C80.4078 134.361 81.094 134.185 81.8768 134.185C82.6942 134.185 83.3903 134.376 83.965 134.757C84.5397 135.134 84.9683 135.671 85.2507 136.37C85.538 137.068 85.652 137.898 85.5925 138.859H84.0393V138.295C84.0294 137.363 83.8511 136.674 83.5043 136.229C83.1624 135.783 82.6397 135.56 81.9362 135.56C81.1584 135.56 80.5738 135.805 80.1824 136.295C79.791 136.786 79.5953 137.494 79.5953 138.421C79.5953 139.303 79.791 139.986 80.1824 140.472C80.5738 140.953 81.1386 141.193 81.8768 141.193C82.3623 141.193 82.7809 141.084 83.1327 140.866C83.4894 140.643 83.7669 140.326 83.965 139.915L85.4885 140.398C85.1764 141.116 84.7032 141.673 84.0691 142.07C83.4349 142.461 82.7289 142.657 81.9511 142.657ZM79.09 138.859V137.648H84.8196V138.859H79.09ZM87.2598 142.434V134.408H88.6421V136.355L88.4489 136.102C88.548 135.845 88.6768 135.609 88.8353 135.396C88.9938 135.178 89.1771 135 89.3852 134.861C89.5884 134.713 89.8138 134.599 90.0615 134.519C90.3142 134.435 90.5718 134.386 90.8344 134.371C91.0969 134.351 91.3496 134.363 91.5924 134.408V135.864C91.3298 135.795 91.0375 135.775 90.7155 135.805C90.3984 135.835 90.1061 135.936 89.8385 136.11C89.5859 136.273 89.3852 136.471 89.2366 136.704C89.0929 136.937 88.9889 137.197 88.9245 137.484C88.8601 137.767 88.8279 138.067 88.8279 138.384V142.434H87.2598ZM97.6002 142.434C97.0949 142.533 96.5995 142.575 96.1139 142.56C95.6284 142.545 95.1949 142.451 94.8134 142.278C94.432 142.104 94.1446 141.832 93.9514 141.46C93.778 141.128 93.6839 140.791 93.669 140.45C93.6591 140.103 93.6541 139.711 93.6541 139.275V132.178H95.2147V139.201C95.2147 139.523 95.2172 139.803 95.2222 140.041C95.2321 140.279 95.2841 140.479 95.3782 140.643C95.5566 140.95 95.839 141.126 96.2254 141.17C96.6168 141.21 97.0751 141.193 97.6002 141.118V142.434ZM92.1158 135.656V134.408H97.6002V135.656H92.1158ZM102.362 142.649C101.386 142.649 100.59 142.434 99.9761 142.003C99.3618 141.572 98.9852 140.965 98.8465 140.182L100.437 139.937C100.536 140.353 100.764 140.682 101.121 140.925C101.482 141.163 101.931 141.282 102.466 141.282C102.951 141.282 103.33 141.183 103.603 140.985C103.88 140.787 104.019 140.514 104.019 140.167C104.019 139.964 103.969 139.801 103.87 139.677C103.776 139.548 103.575 139.427 103.268 139.313C102.961 139.199 102.493 139.057 101.864 138.889C101.175 138.711 100.628 138.52 100.221 138.317C99.82 138.109 99.5327 137.868 99.3593 137.596C99.1908 137.319 99.1066 136.984 99.1066 136.593C99.1066 136.107 99.2354 135.684 99.4931 135.322C99.7507 134.96 100.112 134.68 100.578 134.482C101.049 134.284 101.599 134.185 102.228 134.185C102.842 134.185 103.39 134.282 103.87 134.475C104.351 134.668 104.74 134.943 105.037 135.3C105.334 135.651 105.513 136.065 105.572 136.541L103.982 136.831C103.927 136.444 103.746 136.139 103.439 135.916C103.132 135.694 102.733 135.572 102.243 135.552C101.772 135.532 101.391 135.612 101.098 135.79C100.806 135.964 100.66 136.204 100.66 136.511C100.66 136.689 100.714 136.84 100.823 136.964C100.937 137.088 101.155 137.207 101.477 137.321C101.799 137.435 102.275 137.571 102.904 137.73C103.578 137.903 104.113 138.096 104.509 138.309C104.906 138.517 105.188 138.768 105.356 139.06C105.53 139.347 105.617 139.697 105.617 140.108C105.617 140.9 105.327 141.522 104.747 141.973C104.172 142.424 103.377 142.649 102.362 142.649Z" fill="#470D69"/>
<circle opacity="0.2" cx="130.787" cy="136.934" r="4.33502" fill="black"/>
<path d="M155.98 142.434V131.733H157.555L162.824 139.684V131.733H164.4V142.434H162.824L157.555 134.475V142.434H155.98ZM170.034 142.657C169.236 142.657 168.535 142.483 167.93 142.137C167.331 141.785 166.863 141.297 166.526 140.673C166.194 140.043 166.028 139.315 166.028 138.488C166.028 137.611 166.191 136.85 166.518 136.206C166.85 135.562 167.311 135.064 167.901 134.713C168.49 134.361 169.176 134.185 169.959 134.185C170.777 134.185 171.473 134.376 172.047 134.757C172.622 135.134 173.051 135.671 173.333 136.37C173.62 137.068 173.734 137.898 173.675 138.859H172.122V138.295C172.112 137.363 171.934 136.674 171.587 136.229C171.245 135.783 170.722 135.56 170.019 135.56C169.241 135.56 168.656 135.805 168.265 136.295C167.873 136.786 167.678 137.494 167.678 138.421C167.678 139.303 167.873 139.986 168.265 140.472C168.656 140.953 169.221 141.193 169.959 141.193C170.445 141.193 170.863 141.084 171.215 140.866C171.572 140.643 171.849 140.326 172.047 139.915L173.571 140.398C173.259 141.116 172.786 141.673 172.152 142.07C171.517 142.461 170.811 142.657 170.034 142.657ZM167.172 138.859V137.648H172.902V138.859H167.172ZM176.761 142.434L174.309 134.4L175.847 134.408L177.527 139.915L179.221 134.408H180.559L182.253 139.915L183.933 134.408H185.463L183.011 142.434H181.763L179.89 136.622L178.01 142.434H176.761Z" fill="black"/>
<rect x="63.6348" y="172.233" width="136.76" height="134.651" rx="19.8172" fill="white"/>
<g filter="url(#filter3_d_3137_12680)">
<rect x="89.79" y="184.619" width="84.4484" height="84.4484" rx="17.0248" fill="white" shape-rendering="crispEdges"/>
<path fill-rule="evenodd" clip-rule="evenodd" d="M132.09 221.202C132.015 221.207 131.94 221.209 131.865 221.209C129.946 221.209 128.388 219.651 128.388 217.732C128.388 215.813 129.946 214.254 131.865 214.254C133.784 214.254 135.343 215.813 135.343 217.732C135.344 218.53 135.069 219.303 134.565 219.922L138.409 226.988C139.356 226.644 140.357 226.468 141.364 226.468C146.139 226.468 150.015 230.344 150.015 235.119C150.015 239.893 146.139 243.77 141.364 243.77C139.675 243.769 138.022 243.276 136.609 242.349C136.457 242.251 136.329 242.12 136.233 241.967C136.137 241.813 136.076 241.641 136.054 241.461C136.032 241.282 136.05 241.1 136.106 240.928C136.162 240.756 136.255 240.598 136.378 240.466C136.381 240.463 136.384 240.46 136.389 240.46C136.596 240.237 136.875 240.095 137.177 240.057C137.478 240.019 137.784 240.087 138.04 240.251C139.03 240.893 140.185 241.234 141.364 241.234C144.74 241.234 147.48 238.494 147.48 235.119C147.48 231.744 144.74 229.004 141.364 229.004C140.196 229.004 138.537 229.515 137.54 230.148C137.488 230.186 137.429 230.213 137.367 230.227C137.304 230.241 137.239 230.241 137.176 230.227C137.113 230.214 137.054 230.187 137.003 230.148C136.952 230.11 136.909 230.061 136.878 230.004L132.09 221.202ZM130.493 236.234C130.318 237.226 129.97 238.18 129.466 239.053C127.079 243.188 121.784 244.607 117.649 242.22C113.514 239.832 112.095 234.537 114.482 230.402C115.328 228.939 116.582 227.754 118.09 226.993C118.251 226.911 118.429 226.866 118.609 226.859C118.79 226.853 118.97 226.887 119.136 226.957C119.303 227.028 119.452 227.134 119.573 227.269C119.694 227.403 119.784 227.563 119.837 227.735C119.838 227.739 119.839 227.743 119.837 227.747C119.926 228.038 119.91 228.351 119.792 228.631C119.674 228.912 119.462 229.142 119.192 229.282C118.141 229.819 117.268 230.648 116.678 231.67C114.991 234.592 115.994 238.336 118.917 240.023C121.84 241.711 125.583 240.708 127.27 237.785C127.855 236.773 128.241 235.08 128.192 233.9C128.184 233.837 128.19 233.772 128.209 233.711C128.229 233.649 128.261 233.593 128.304 233.546C128.348 233.498 128.4 233.46 128.46 233.435C128.519 233.41 128.582 233.398 128.647 233.399L138.664 233.654C138.697 233.587 138.732 233.521 138.77 233.456C139.73 231.794 141.858 231.223 143.52 232.183C145.182 233.142 145.753 235.271 144.793 236.933C143.833 238.595 141.705 239.165 140.043 238.206C139.351 237.808 138.818 237.183 138.534 236.437L130.493 236.234ZM126.295 224.365C125.523 223.717 124.87 222.939 124.366 222.066C121.979 217.931 123.398 212.636 127.533 210.249C131.668 207.862 136.963 209.28 139.35 213.415C140.194 214.879 140.593 216.557 140.498 218.244C140.489 218.424 140.44 218.601 140.354 218.76C140.269 218.92 140.151 219.059 140.006 219.168C139.862 219.277 139.695 219.352 139.518 219.39C139.341 219.428 139.158 219.426 138.982 219.385C138.978 219.385 138.975 219.384 138.972 219.379C138.675 219.311 138.412 219.141 138.228 218.899C138.045 218.656 137.951 218.357 137.965 218.053C138.026 216.875 137.744 215.705 137.154 214.683C135.466 211.76 131.723 210.757 128.801 212.445C125.878 214.132 124.875 217.875 126.562 220.798C127.147 221.81 128.419 222.991 129.466 223.539C129.525 223.564 129.578 223.601 129.621 223.649C129.664 223.696 129.697 223.752 129.716 223.813C129.736 223.875 129.742 223.939 129.735 224.003C129.727 224.067 129.706 224.128 129.672 224.183L124.443 232.731C124.485 232.793 124.524 232.857 124.562 232.922C125.521 234.584 124.951 236.713 123.289 237.672C121.627 238.632 119.498 238.061 118.539 236.399C117.579 234.737 118.15 232.609 119.812 231.649C120.502 231.249 121.309 231.1 122.097 231.227L126.295 224.365Z" fill="#470D69"/>
<rect x="90.4924" y="185.321" width="83.0437" height="83.0437" rx="16.3225" stroke="#A5A5A5" stroke-opacity="0.3" stroke-width="1.40465" shape-rendering="crispEdges"/>
</g>
<path d="M96.3641 291.499L92.7141 279.014H94.9076L97.3959 288.031L99.8755 279.031L102.069 279.014L104.557 288.031L107.037 279.014H109.23L105.589 291.499H103.526L100.968 282.621L98.4276 291.499H96.3641ZM113.869 291.759C112.921 291.759 112.089 291.554 111.372 291.143C110.656 290.733 110.095 290.164 109.69 289.435C109.291 288.707 109.092 287.869 109.092 286.921C109.092 285.898 109.289 285.011 109.682 284.259C110.075 283.502 110.621 282.916 111.32 282.499C112.02 282.083 112.829 281.875 113.748 281.875C114.719 281.875 115.543 282.103 116.219 282.56C116.901 283.011 117.407 283.65 117.736 284.476C118.066 285.303 118.19 286.277 118.109 287.398H116.037V286.635C116.031 285.618 115.852 284.875 115.499 284.407C115.147 283.939 114.592 283.705 113.835 283.705C112.979 283.705 112.343 283.97 111.927 284.502C111.511 285.028 111.303 285.8 111.303 286.817C111.303 287.765 111.511 288.499 111.927 289.019C112.343 289.539 112.95 289.8 113.748 289.8C114.262 289.8 114.704 289.687 115.074 289.461C115.45 289.23 115.739 288.898 115.941 288.464L118.005 289.089C117.646 289.932 117.092 290.589 116.34 291.057C115.595 291.525 114.771 291.759 113.869 291.759ZM110.644 287.398V285.82H117.086V287.398H110.644ZM124.543 291.759C123.63 291.759 122.864 291.542 122.246 291.109C121.627 290.675 121.162 290.086 120.85 289.34C120.538 288.589 120.381 287.748 120.381 286.817C120.381 285.875 120.538 285.031 120.85 284.285C121.162 283.54 121.618 282.953 122.22 282.525C122.826 282.092 123.575 281.875 124.465 281.875C125.349 281.875 126.115 282.092 126.763 282.525C127.416 282.953 127.922 283.54 128.28 284.285C128.638 285.025 128.817 285.869 128.817 286.817C128.817 287.753 128.641 288.594 128.289 289.34C127.936 290.086 127.439 290.675 126.797 291.109C126.156 291.542 125.404 291.759 124.543 291.759ZM120.026 291.499V279.014H122.133V284.927H121.873V291.499H120.026ZM124.222 289.886C124.766 289.886 125.214 289.75 125.566 289.479C125.919 289.207 126.179 288.84 126.346 288.378C126.52 287.909 126.607 287.389 126.607 286.817C126.607 286.251 126.52 285.736 126.346 285.274C126.173 284.806 125.904 284.436 125.54 284.164C125.176 283.887 124.714 283.748 124.153 283.748C123.621 283.748 123.188 283.878 122.852 284.138C122.517 284.392 122.269 284.751 122.107 285.213C121.951 285.67 121.873 286.204 121.873 286.817C121.873 287.424 121.951 287.959 122.107 288.421C122.269 288.883 122.52 289.245 122.861 289.505C123.208 289.759 123.662 289.886 124.222 289.886ZM137.205 291.499V286.99C137.205 286.696 137.185 286.369 137.144 286.011C137.104 285.652 137.008 285.308 136.858 284.979C136.714 284.644 136.494 284.369 136.199 284.155C135.91 283.941 135.517 283.835 135.02 283.835C134.754 283.835 134.491 283.878 134.231 283.965C133.971 284.051 133.734 284.202 133.52 284.415C133.312 284.624 133.145 284.913 133.017 285.282C132.89 285.647 132.827 286.115 132.827 286.687L131.587 286.158C131.587 285.36 131.74 284.638 132.046 283.991C132.358 283.343 132.815 282.829 133.416 282.447C134.017 282.06 134.757 281.866 135.636 281.866C136.329 281.866 136.902 281.982 137.352 282.213C137.803 282.444 138.162 282.739 138.427 283.098C138.693 283.456 138.89 283.837 139.017 284.242C139.144 284.647 139.225 285.031 139.26 285.395C139.3 285.754 139.32 286.045 139.32 286.271V291.499H137.205ZM130.711 291.499V279.014H132.575V285.586H132.827V291.499H130.711ZM145.719 291.759C144.782 291.759 143.964 291.548 143.265 291.126C142.566 290.704 142.022 290.123 141.635 289.383C141.254 288.638 141.063 287.782 141.063 286.817C141.063 285.834 141.259 284.973 141.652 284.233C142.045 283.494 142.592 282.916 143.291 282.499C143.99 282.083 144.8 281.875 145.719 281.875C146.661 281.875 147.481 282.086 148.181 282.508C148.88 282.93 149.424 283.514 149.811 284.259C150.198 284.999 150.392 285.852 150.392 286.817C150.392 287.788 150.195 288.646 149.802 289.392C149.415 290.132 148.872 290.713 148.172 291.135C147.473 291.551 146.655 291.759 145.719 291.759ZM145.719 289.8C146.551 289.8 147.169 289.522 147.574 288.967C147.979 288.412 148.181 287.696 148.181 286.817C148.181 285.91 147.976 285.187 147.565 284.65C147.155 284.106 146.539 283.835 145.719 283.835C145.158 283.835 144.696 283.962 144.331 284.216C143.973 284.465 143.707 284.814 143.534 285.265C143.36 285.71 143.274 286.227 143.274 286.817C143.274 287.725 143.479 288.45 143.889 288.993C144.305 289.531 144.915 289.8 145.719 289.8ZM156.438 291.759C155.501 291.759 154.683 291.548 153.984 291.126C153.285 290.704 152.741 290.123 152.354 289.383C151.973 288.638 151.782 287.782 151.782 286.817C151.782 285.834 151.978 284.973 152.371 284.233C152.764 283.494 153.311 282.916 154.01 282.499C154.709 282.083 155.519 281.875 156.438 281.875C157.38 281.875 158.2 282.086 158.9 282.508C159.599 282.93 160.143 283.514 160.53 284.259C160.917 284.999 161.111 285.852 161.111 286.817C161.111 287.788 160.914 288.646 160.521 289.392C160.134 290.132 159.591 290.713 158.891 291.135C158.192 291.551 157.374 291.759 156.438 291.759ZM156.438 289.8C157.27 289.8 157.888 289.522 158.293 288.967C158.698 288.412 158.9 287.696 158.9 286.817C158.9 285.91 158.695 285.187 158.284 284.65C157.874 284.106 157.258 283.835 156.438 283.835C155.877 283.835 155.415 283.962 155.05 284.216C154.692 284.465 154.426 284.814 154.253 285.265C154.079 285.71 153.993 286.227 153.993 286.817C153.993 287.725 154.198 288.45 154.608 288.993C155.024 289.531 155.634 289.8 156.438 289.8ZM163.004 291.499L163.021 279.014H165.136V286.644L168.561 282.135H171.171L167.538 286.817L171.483 291.499H168.717L165.136 286.99V291.499H163.004Z" fill="black"/>
<rect x="230.12" y="172.233" width="136.76" height="134.651" rx="19.8172" fill="white"/>
<g filter="url(#filter4_d_3137_12680)">
<rect x="256.275" y="184.619" width="84.4484" height="84.4484" rx="17.0248" fill="white" shape-rendering="crispEdges"/>
<path d="M293.715 209.113C291.809 209.113 290.252 210.67 290.252 212.576C290.252 214.482 291.809 216.04 293.715 216.04L297.178 216.04L297.178 212.576C297.178 210.67 295.644 209.113 293.715 209.113ZM293.715 218.341L284.51 218.341C282.604 218.341 281.047 219.898 281.047 221.804C281.047 223.71 282.604 225.267 284.51 225.267L293.738 225.267C295.644 225.267 297.201 223.71 297.201 221.804C297.178 219.898 295.644 218.341 293.715 218.341Z" fill="#36C5F0"/>
<path d="M315.634 221.804C315.634 219.898 314.077 218.341 312.171 218.341C310.265 218.341 308.707 219.898 308.707 221.804L308.707 225.267L312.171 225.267C314.077 225.291 315.634 223.733 315.634 221.804ZM306.406 221.804L306.406 212.553C306.406 210.647 304.849 209.09 302.943 209.09C301.037 209.09 299.479 210.647 299.479 212.553L299.479 221.804C299.479 223.71 301.037 225.267 302.943 225.267C304.872 225.291 306.406 223.733 306.406 221.804Z" fill="#2EB67D"/>
<path d="M302.943 243.77C304.849 243.77 306.406 242.212 306.406 240.306C306.406 238.4 304.849 236.843 302.943 236.843L299.479 236.843L299.479 240.306C299.479 242.212 301.037 243.77 302.943 243.77ZM302.943 234.519L312.171 234.519C314.077 234.519 315.634 232.961 315.634 231.055C315.634 229.149 314.077 227.592 312.171 227.592L302.943 227.592C301.037 227.592 299.479 229.149 299.479 231.055C299.479 232.961 301.037 234.519 302.943 234.519Z" fill="#ECB22E"/>
<path d="M281.047 231.055C281.047 232.961 282.604 234.519 284.51 234.519C286.416 234.519 287.974 232.961 287.974 231.055L287.974 227.592L284.51 227.592C282.581 227.592 281.047 229.149 281.047 231.055ZM290.275 231.055L290.275 240.306C290.275 242.212 291.832 243.77 293.738 243.77C295.644 243.77 297.201 242.212 297.201 240.306L297.201 231.055C297.201 229.149 295.644 227.592 293.738 227.592C291.809 227.592 290.275 229.149 290.275 231.055Z" fill="#E01E5A"/>
<rect x="256.978" y="185.321" width="83.0437" height="83.0437" rx="16.3225" stroke="#A5A5A5" stroke-opacity="0.3" stroke-width="1.40465" shape-rendering="crispEdges"/>
</g>
<path d="M281.335 291.759C280.422 291.759 279.598 291.6 278.864 291.282C278.136 290.964 277.535 290.51 277.061 289.921C276.592 289.326 276.295 288.62 276.168 287.805L278.335 287.476C278.52 288.216 278.899 288.788 279.471 289.193C280.049 289.597 280.714 289.8 281.465 289.8C281.91 289.8 282.329 289.73 282.722 289.591C283.115 289.453 283.433 289.25 283.676 288.985C283.924 288.719 284.049 288.392 284.049 288.005C284.049 287.831 284.02 287.672 283.962 287.528C283.904 287.378 283.817 287.245 283.702 287.129C283.592 287.014 283.448 286.91 283.268 286.817C283.095 286.719 282.893 286.635 282.661 286.566L279.436 285.612C279.159 285.531 278.858 285.424 278.535 285.291C278.217 285.152 277.913 284.965 277.624 284.728C277.341 284.485 277.107 284.178 276.922 283.809C276.743 283.433 276.653 282.97 276.653 282.421C276.653 281.618 276.855 280.945 277.26 280.401C277.67 279.852 278.22 279.442 278.907 279.17C279.601 278.898 280.37 278.765 281.214 278.771C282.069 278.777 282.832 278.924 283.502 279.213C284.173 279.497 284.734 279.91 285.184 280.453C285.635 280.997 285.953 281.653 286.138 282.421L283.893 282.811C283.8 282.372 283.621 281.999 283.355 281.693C283.095 281.381 282.774 281.144 282.393 280.982C282.017 280.82 281.615 280.734 281.188 280.722C280.771 280.716 280.384 280.78 280.026 280.913C279.673 281.04 279.387 281.225 279.167 281.468C278.954 281.71 278.847 281.994 278.847 282.317C278.847 282.624 278.939 282.875 279.124 283.072C279.309 283.262 279.537 283.416 279.809 283.531C280.086 283.641 280.367 283.733 280.65 283.809L282.887 284.433C283.193 284.514 283.537 284.624 283.919 284.762C284.3 284.901 284.667 285.095 285.02 285.343C285.372 285.592 285.661 285.918 285.887 286.323C286.118 286.727 286.234 287.242 286.234 287.866C286.234 288.513 286.098 289.083 285.826 289.574C285.56 290.06 285.199 290.464 284.742 290.788C284.286 291.112 283.763 291.354 283.173 291.516C282.589 291.678 281.977 291.759 281.335 291.759ZM288.284 291.499V278.754H290.373V291.499H288.284ZM295.588 291.759C294.912 291.759 294.34 291.632 293.872 291.377C293.404 291.117 293.048 290.773 292.805 290.346C292.568 289.918 292.45 289.447 292.45 288.933C292.45 288.482 292.525 288.077 292.675 287.719C292.826 287.355 293.057 287.042 293.369 286.782C293.681 286.516 294.086 286.3 294.583 286.132C294.958 286.011 295.398 285.901 295.901 285.803C296.409 285.704 296.958 285.615 297.548 285.534C298.143 285.447 298.765 285.355 299.412 285.256L298.666 285.681C298.672 285.034 298.528 284.557 298.233 284.251C297.938 283.944 297.441 283.791 296.742 283.791C296.32 283.791 295.912 283.889 295.519 284.086C295.126 284.283 294.852 284.621 294.695 285.1L292.788 284.502C293.019 283.71 293.459 283.074 294.106 282.595C294.759 282.115 295.638 281.875 296.742 281.875C297.574 281.875 298.305 282.011 298.935 282.283C299.571 282.554 300.042 282.999 300.348 283.618C300.516 283.947 300.617 284.285 300.652 284.632C300.686 284.973 300.704 285.346 300.704 285.751V291.499H298.874V289.47L299.178 289.8C298.756 290.476 298.262 290.973 297.695 291.291C297.135 291.603 296.432 291.759 295.588 291.759ZM296.005 290.094C296.479 290.094 296.883 290.011 297.218 289.843C297.554 289.675 297.82 289.47 298.016 289.227C298.218 288.985 298.354 288.756 298.424 288.542C298.533 288.277 298.594 287.973 298.606 287.632C298.623 287.285 298.632 287.005 298.632 286.791L299.273 286.982C298.643 287.08 298.103 287.167 297.652 287.242C297.201 287.317 296.814 287.389 296.49 287.459C296.166 287.522 295.88 287.594 295.632 287.675C295.389 287.762 295.184 287.863 295.016 287.979C294.849 288.094 294.719 288.227 294.626 288.378C294.539 288.528 294.496 288.704 294.496 288.907C294.496 289.138 294.554 289.343 294.669 289.522C294.785 289.696 294.953 289.834 295.172 289.938C295.398 290.042 295.675 290.094 296.005 290.094ZM307.027 291.759C306.062 291.759 305.238 291.545 304.556 291.117C303.874 290.684 303.351 290.094 302.987 289.349C302.629 288.603 302.447 287.759 302.441 286.817C302.447 285.858 302.634 285.008 303.004 284.268C303.38 283.522 303.912 282.939 304.6 282.517C305.287 282.089 306.105 281.875 307.053 281.875C308.117 281.875 309.016 282.144 309.75 282.681C310.489 283.213 310.972 283.941 311.198 284.866L309.117 285.43C308.955 284.927 308.686 284.537 308.31 284.259C307.935 283.976 307.507 283.835 307.027 283.835C306.484 283.835 306.036 283.965 305.683 284.225C305.331 284.479 305.071 284.832 304.903 285.282C304.735 285.733 304.652 286.245 304.652 286.817C304.652 287.707 304.851 288.427 305.25 288.976C305.649 289.525 306.241 289.8 307.027 289.8C307.582 289.8 308.018 289.672 308.336 289.418C308.66 289.164 308.903 288.797 309.065 288.317L311.198 288.794C310.909 289.748 310.403 290.482 309.68 290.996C308.958 291.505 308.073 291.759 307.027 291.759ZM312.918 291.499L312.935 279.014H315.05V286.644L318.475 282.135H321.085L317.452 286.817L321.397 291.499H318.631L315.05 286.99V291.499H312.918Z" fill="black"/>
<rect x="396.606" y="172.233" width="136.76" height="134.651" rx="19.8172" fill="white"/>
<g filter="url(#filter5_d_3137_12680)">
<rect x="422.762" y="184.619" width="84.4484" height="84.4484" rx="17.0248" fill="white" shape-rendering="crispEdges"/>
<path opacity="0.3" fill-rule="evenodd" clip-rule="evenodd" d="M456.618 211.98C451.373 211.98 447.122 216.231 447.122 221.476L447.122 231.384C447.122 236.629 451.373 240.88 456.618 240.88L473.132 240.88C478.377 240.88 482.628 236.629 482.628 231.384L482.628 221.476C482.628 216.231 478.377 211.98 473.132 211.98L456.618 211.98Z" fill="#A31BCB"/>
<path d="M454.965 221.476L462.892 227.421C464.066 228.302 465.681 228.302 466.855 227.421L474.782 221.476" stroke="#A31BCB" stroke-width="2.47715" stroke-linecap="round" stroke-linejoin="round"/>
<rect x="423.464" y="185.321" width="83.0437" height="83.0437" rx="16.3225" stroke="#A5A5A5" stroke-opacity="0.3" stroke-width="1.40465" shape-rendering="crispEdges"/>
</g>
<path d="M439.7 291.499V279.014H447.763V280.973H441.79V284.051H446.723V286.011H441.79V289.539H447.763V291.499H439.7ZM449.67 286.852V285.213H454.872V286.852H449.67ZM468.37 291.499V285.811C468.37 285.17 468.211 284.67 467.893 284.311C467.575 283.947 467.145 283.765 466.601 283.765C466.266 283.765 465.965 283.843 465.7 283.999C465.434 284.15 465.223 284.375 465.067 284.676C464.911 284.97 464.833 285.323 464.833 285.733L463.905 285.187C463.899 284.54 464.044 283.97 464.338 283.479C464.639 282.982 465.043 282.595 465.552 282.317C466.061 282.04 466.627 281.901 467.251 281.901C468.286 281.901 469.078 282.213 469.627 282.838C470.182 283.456 470.459 284.271 470.459 285.282V291.499H468.37ZM457.108 291.499V282.135H458.954V285.04H459.214V291.499H457.108ZM462.752 291.499V285.837C462.752 285.184 462.593 284.676 462.275 284.311C461.957 283.947 461.523 283.765 460.974 283.765C460.443 283.765 460.015 283.947 459.691 284.311C459.373 284.676 459.214 285.15 459.214 285.733L458.278 285.109C458.278 284.502 458.428 283.956 458.729 283.47C459.029 282.985 459.434 282.603 459.943 282.326C460.457 282.043 461.032 281.901 461.668 281.901C462.367 281.901 462.951 282.051 463.419 282.352C463.893 282.647 464.246 283.051 464.477 283.566C464.714 284.074 464.833 284.65 464.833 285.291V291.499H462.752ZM475.339 291.759C474.663 291.759 474.091 291.632 473.622 291.377C473.154 291.117 472.799 290.773 472.556 290.346C472.319 289.918 472.201 289.447 472.201 288.933C472.201 288.482 472.276 288.077 472.426 287.719C472.576 287.355 472.807 287.042 473.12 286.782C473.432 286.516 473.836 286.3 474.333 286.132C474.709 286.011 475.148 285.901 475.651 285.803C476.16 285.704 476.709 285.615 477.299 285.534C477.894 285.447 478.515 285.355 479.163 285.256L478.417 285.681C478.423 285.034 478.278 284.557 477.983 284.251C477.689 283.944 477.192 283.791 476.492 283.791C476.07 283.791 475.663 283.889 475.27 284.086C474.877 284.283 474.602 284.621 474.446 285.1L472.539 284.502C472.77 283.71 473.209 283.074 473.857 282.595C474.51 282.115 475.388 281.875 476.492 281.875C477.325 281.875 478.056 282.011 478.686 282.283C479.322 282.554 479.793 282.999 480.099 283.618C480.267 283.947 480.368 284.285 480.402 284.632C480.437 284.973 480.454 285.346 480.454 285.751V291.499H478.625V289.47L478.929 289.8C478.507 290.476 478.012 290.973 477.446 291.291C476.885 291.603 476.183 291.759 475.339 291.759ZM475.755 290.094C476.229 290.094 476.634 290.011 476.969 289.843C477.304 289.675 477.57 289.47 477.767 289.227C477.969 288.985 478.105 288.756 478.174 288.542C478.284 288.277 478.345 287.973 478.356 287.632C478.374 287.285 478.382 287.005 478.382 286.791L479.024 286.982C478.394 287.08 477.853 287.167 477.403 287.242C476.952 287.317 476.564 287.389 476.241 287.459C475.917 287.522 475.631 287.594 475.382 287.675C475.14 287.762 474.935 287.863 474.767 287.979C474.599 288.094 474.469 288.227 474.377 288.378C474.29 288.528 474.247 288.704 474.247 288.907C474.247 289.138 474.304 289.343 474.42 289.522C474.536 289.696 474.703 289.834 474.923 289.938C475.148 290.042 475.426 290.094 475.755 290.094ZM482.885 280.713V278.797H484.975V280.713H482.885ZM482.885 291.499V282.135H484.975V291.499H482.885ZM487.745 291.499V278.754H489.834V291.499H487.745Z" fill="black"/>
</g>
<defs>
<filter id="filter0_f_3137_12680" x="33.2731" y="46.6849" width="470.95" height="470.95" filterUnits="userSpaceOnUse" color-interpolation-filters="sRGB">
<feFlood flood-opacity="0" result="BackgroundImageFix"/>
<feBlend mode="normal" in="SourceGraphic" in2="BackgroundImageFix" result="shape"/>
<feGaussianBlur stdDeviation="81.5104" result="effect1_foregroundBlur_3137_12680"/>
</filter>
<filter id="filter1_f_3137_12680" x="17.4255" y="-87.1517" width="470.95" height="470.95" filterUnits="userSpaceOnUse" color-interpolation-filters="sRGB">
<feFlood flood-opacity="0" result="BackgroundImageFix"/>
<feBlend mode="normal" in="SourceGraphic" in2="BackgroundImageFix" result="shape"/>
<feGaussianBlur stdDeviation="81.5104" result="effect1_foregroundBlur_3137_12680"/>
</filter>
<filter id="filter2_f_3137_12680" x="124.67" y="-38.5643" width="470.95" height="470.95" filterUnits="userSpaceOnUse" color-interpolation-filters="sRGB">
<feFlood flood-opacity="0" result="BackgroundImageFix"/>
<feBlend mode="normal" in="SourceGraphic" in2="BackgroundImageFix" result="shape"/>
<feGaussianBlur stdDeviation="81.5104" result="effect1_foregroundBlur_3137_12680"/>
</filter>
<filter id="filter3_d_3137_12680" x="67.3157" y="167.763" width="129.397" height="129.397" filterUnits="userSpaceOnUse" color-interpolation-filters="sRGB">
<feFlood flood-opacity="0" result="BackgroundImageFix"/>
<feColorMatrix in="SourceAlpha" type="matrix" values="0 0 0 0 0 0 0 0 0 0 0 0 0 0 0 0 0 0 127 0" result="hardAlpha"/>
<feOffset dy="5.61859"/>
<feGaussianBlur stdDeviation="11.2372"/>
<feComposite in2="hardAlpha" operator="out"/>
<feColorMatrix type="matrix" values="0 0 0 0 0.0325714 0 0 0 0 0.0321365 0 0 0 0 0.0332466 0 0 0 0.06 0"/>
<feBlend mode="normal" in2="BackgroundImageFix" result="effect1_dropShadow_3137_12680"/>
<feBlend mode="normal" in="SourceGraphic" in2="effect1_dropShadow_3137_12680" result="shape"/>
</filter>
<filter id="filter4_d_3137_12680" x="233.801" y="167.763" width="129.397" height="129.397" filterUnits="userSpaceOnUse" color-interpolation-filters="sRGB">
<feFlood flood-opacity="0" result="BackgroundImageFix"/>
<feColorMatrix in="SourceAlpha" type="matrix" values="0 0 0 0 0 0 0 0 0 0 0 0 0 0 0 0 0 0 127 0" result="hardAlpha"/>
<feOffset dy="5.61859"/>
<feGaussianBlur stdDeviation="11.2372"/>
<feComposite in2="hardAlpha" operator="out"/>
<feColorMatrix type="matrix" values="0 0 0 0 0.0325714 0 0 0 0 0.0321365 0 0 0 0 0.0332466 0 0 0 0.06 0"/>
<feBlend mode="normal" in2="BackgroundImageFix" result="effect1_dropShadow_3137_12680"/>
<feBlend mode="normal" in="SourceGraphic" in2="effect1_dropShadow_3137_12680" result="shape"/>
</filter>
<filter id="filter5_d_3137_12680" x="400.287" y="167.763" width="129.397" height="129.397" filterUnits="userSpaceOnUse" color-interpolation-filters="sRGB">
<feFlood flood-opacity="0" result="BackgroundImageFix"/>
<feColorMatrix in="SourceAlpha" type="matrix" values="0 0 0 0 0 0 0 0 0 0 0 0 0 0 0 0 0 0 127 0" result="hardAlpha"/>
<feOffset dy="5.61859"/>
<feGaussianBlur stdDeviation="11.2372"/>
<feComposite in2="hardAlpha" operator="out"/>
<feColorMatrix type="matrix" values="0 0 0 0 0.0325714 0 0 0 0 0.0321365 0 0 0 0 0.0332466 0 0 0 0.06 0"/>
<feBlend mode="normal" in2="BackgroundImageFix" result="effect1_dropShadow_3137_12680"/>
<feBlend mode="normal" in="SourceGraphic" in2="effect1_dropShadow_3137_12680" result="shape"/>
</filter>
<clipPath id="clip0_3137_12680">
<rect x="24" y="24" width="548" height="331.083" rx="10.96" fill="white"/>
</clipPath>
</defs>
</svg>
