<svg width="1200" height="302" viewBox="0 0 1200 302" fill="none" xmlns="http://www.w3.org/2000/svg">
<g clip-path="url(#clip0_3011_13952)">
<g clip-path="url(#clip1_3011_13952)">
<rect width="1200" height="300" transform="translate(0 0.919922)" fill="#420B57"/>
<path opacity="0.11" fill-rule="evenodd" clip-rule="evenodd" d="M885.845 -190.605C890.764 -195.037 900.177 -196.782 911.037 -195.274L1165.57 -159.931C1177.89 -158.22 1190.17 -152.593 1197.43 -145.326L1243.99 -98.7709L1316.63 -26.1287L1363.18 20.4264C1370.45 27.6937 1371.51 35.3998 1365.93 40.4296L1250.63 144.316C1245.71 148.748 1236.29 150.493 1225.43 148.985L970.907 113.642C958.583 111.931 946.307 106.304 939.039 99.0372L892.484 52.4821L819.842 -20.1601L773.287 -66.7152C766.02 -73.9824 764.964 -81.6886 770.546 -86.7184L885.845 -190.605Z" fill="white"/>
<path fill-rule="evenodd" clip-rule="evenodd" d="M-80.2959 158.054C-75.3765 153.621 -65.9633 151.877 -55.1033 153.385L199.425 188.728C211.748 190.439 224.025 196.065 231.292 203.333L277.847 249.888L350.489 322.53L397.044 369.085C404.312 376.352 405.367 384.059 399.785 389.088L284.487 492.975C279.567 497.407 270.154 499.152 259.294 497.644L4.76602 462.301C-7.55724 460.59 -19.834 454.963 -27.1013 447.696L-73.6563 401.141L-146.299 328.499L-192.854 281.943C-200.121 274.676 -201.177 266.97 -195.594 261.94L-80.2959 158.054Z" fill="#A31BCB"/>
<g filter="url(#filter0_d_3011_13952)">
<rect x="246" y="83.1863" width="708.936" height="135.729" rx="21.2076" fill="white" shape-rendering="crispEdges"/>
<rect x="267.208" y="104.394" width="93.3134" height="93.3134" rx="16.9661" fill="url(#paint0_linear_3011_13952)"/>
<path d="M296.898 133.024C296.898 131.267 298.322 129.843 300.079 129.843H310.683C312.44 129.843 313.864 131.267 313.864 133.024V149.99C313.864 151.747 312.44 153.171 310.683 153.171H296.898V133.024Z" fill="white" stroke="white" stroke-width="3.18114"/>
<path opacity="0.3" d="M311.743 134.084H326.665C328.399 134.084 329.4 136.051 328.38 137.453L324.161 143.254C323.08 144.741 323.08 146.756 324.161 148.243L328.38 154.045C329.4 155.446 328.399 157.413 326.665 157.413H313.864C312.693 157.413 311.743 156.463 311.743 155.292V134.084Z" fill="white" stroke="white" stroke-width="3.18114"/>
<path d="M296.898 172.258L296.898 134.084" stroke="white" stroke-width="3.18114" stroke-linecap="round" stroke-linejoin="round"/>
<path d="M385.342 168.051V132.422H397.812C400.595 132.422 402.902 132.897 404.735 133.847C406.567 134.763 407.924 136.036 408.806 137.664C409.723 139.259 410.181 141.074 410.181 143.11C410.181 145.045 409.739 146.826 408.857 148.455C408.009 150.05 406.669 151.322 404.836 152.272C403.004 153.222 400.663 153.697 397.812 153.697H390.737V168.051H385.342ZM390.737 149.269H397.558C400.103 149.269 401.918 148.726 403.004 147.64C404.124 146.521 404.684 145.011 404.684 143.11C404.684 141.142 404.124 139.615 403.004 138.53C401.918 137.41 400.103 136.85 397.558 136.85H390.737V149.269ZM414.249 168.051V142.805H419.085L419.543 147.589C420.425 145.927 421.647 144.62 423.208 143.67C424.802 142.686 426.719 142.194 428.959 142.194V147.844H427.483C425.99 147.844 424.65 148.098 423.462 148.607C422.308 149.082 421.375 149.914 420.663 151.101C419.984 152.255 419.645 153.867 419.645 155.937V168.051H414.249ZM443.637 168.661C441.228 168.661 439.056 168.118 437.122 167.033C435.222 165.913 433.712 164.369 432.592 162.401C431.472 160.399 430.912 158.074 430.912 155.428C430.912 152.781 431.472 150.474 432.592 148.506C433.746 146.504 435.29 144.96 437.224 143.874C439.158 142.754 441.313 142.194 443.688 142.194C446.097 142.194 448.252 142.754 450.152 143.874C452.086 144.96 453.613 146.504 454.733 148.506C455.886 150.474 456.463 152.781 456.463 155.428C456.463 158.074 455.886 160.399 454.733 162.401C453.613 164.369 452.086 165.913 450.152 167.033C448.218 168.118 446.046 168.661 443.637 168.661ZM443.637 164.03C444.926 164.03 446.114 163.707 447.2 163.063C448.32 162.418 449.219 161.468 449.897 160.212C450.576 158.923 450.915 157.328 450.915 155.428C450.915 153.528 450.576 151.95 449.897 150.694C449.253 149.405 448.37 148.438 447.251 147.793C446.165 147.148 444.977 146.826 443.688 146.826C442.398 146.826 441.194 147.148 440.074 147.793C438.988 148.438 438.106 149.405 437.427 150.694C436.749 151.95 436.409 153.528 436.409 155.428C436.409 157.328 436.749 158.923 437.427 160.212C438.106 161.468 438.988 162.418 440.074 163.063C441.16 163.707 442.347 164.03 443.637 164.03ZM472.74 168.661C470.297 168.661 468.143 168.084 466.276 166.931C464.41 165.777 462.951 164.199 461.899 162.197C460.847 160.195 460.321 157.922 460.321 155.377C460.321 152.832 460.847 150.575 461.899 148.607C462.951 146.605 464.41 145.045 466.276 143.925C468.177 142.771 470.348 142.194 472.791 142.194C474.793 142.194 476.541 142.584 478.034 143.365C479.561 144.145 480.748 145.248 481.597 146.673V131.404H486.992V168.051H482.157L481.597 164.131C480.782 165.319 479.663 166.371 478.237 167.287C476.812 168.203 474.98 168.661 472.74 168.661ZM473.708 163.979C476.015 163.979 477.898 163.181 479.357 161.586C480.85 159.992 481.597 157.939 481.597 155.428C481.597 152.883 480.85 150.83 479.357 149.269C477.898 147.674 476.015 146.877 473.708 146.877C471.4 146.877 469.5 147.674 468.007 149.269C466.514 150.83 465.767 152.883 465.767 155.428C465.767 157.09 466.107 158.567 466.785 159.856C467.464 161.145 468.397 162.163 469.585 162.91C470.806 163.622 472.181 163.979 473.708 163.979ZM502.048 168.661C498.995 168.661 496.585 167.711 494.821 165.811C493.09 163.911 492.225 161.077 492.225 157.311V142.805H497.62V156.751C497.62 161.637 499.622 164.08 503.626 164.08C505.628 164.08 507.274 163.368 508.563 161.943C509.853 160.518 510.498 158.482 510.498 155.835V142.805H515.893V168.051H511.108L510.701 163.622C509.921 165.183 508.767 166.422 507.24 167.338C505.747 168.22 504.017 168.661 502.048 168.661ZM533.657 168.661C531.18 168.661 528.957 168.101 526.989 166.982C525.055 165.862 523.528 164.318 522.408 162.35C521.322 160.348 520.78 158.041 520.78 155.428C520.78 152.815 521.322 150.525 522.408 148.557C523.528 146.555 525.055 144.994 526.989 143.874C528.957 142.754 531.18 142.194 533.657 142.194C536.779 142.194 539.391 143.009 541.495 144.637C543.633 146.266 545.007 148.472 545.618 151.254H539.968C539.629 149.863 538.882 148.777 537.729 147.997C536.575 147.216 535.218 146.826 533.657 146.826C532.333 146.826 531.112 147.165 529.992 147.844C528.872 148.489 527.973 149.456 527.294 150.745C526.616 152.001 526.277 153.562 526.277 155.428C526.277 157.294 526.616 158.872 527.294 160.161C527.973 161.417 528.872 162.384 529.992 163.063C531.112 163.741 532.333 164.08 533.657 164.08C535.218 164.08 536.575 163.69 537.729 162.91C538.882 162.129 539.629 161.027 539.968 159.601H545.618C545.041 162.316 543.684 164.505 541.546 166.167C539.408 167.83 536.779 168.661 533.657 168.661ZM560.499 168.051C558.022 168.051 556.053 167.457 554.594 166.269C553.135 165.048 552.406 162.893 552.406 159.805V147.335H548.079V142.805H552.406L553.067 136.392H557.801V142.805H564.927V147.335H557.801V159.805C557.801 161.196 558.089 162.163 558.666 162.706C559.277 163.215 560.312 163.47 561.771 163.47H564.672V168.051H560.499ZM572.483 138.021C571.465 138.021 570.617 137.715 569.938 137.104C569.294 136.46 568.971 135.662 568.971 134.712C568.971 133.762 569.294 132.982 569.938 132.371C570.617 131.726 571.465 131.404 572.483 131.404C573.501 131.404 574.333 131.726 574.977 132.371C575.656 132.982 575.995 133.762 575.995 134.712C575.995 135.662 575.656 136.46 574.977 137.104C574.333 137.715 573.501 138.021 572.483 138.021ZM569.786 168.051V142.805H575.181V168.051H569.786ZM593.051 168.661C590.642 168.661 588.47 168.118 586.536 167.033C584.636 165.913 583.126 164.369 582.006 162.401C580.886 160.399 580.326 158.074 580.326 155.428C580.326 152.781 580.886 150.474 582.006 148.506C583.16 146.504 584.704 144.96 586.638 143.874C588.572 142.754 590.727 142.194 593.102 142.194C595.511 142.194 597.666 142.754 599.566 143.874C601.5 144.96 603.027 146.504 604.147 148.506C605.3 150.474 605.877 152.781 605.877 155.428C605.877 158.074 605.3 160.399 604.147 162.401C603.027 164.369 601.5 165.913 599.566 167.033C597.632 168.118 595.46 168.661 593.051 168.661ZM593.051 164.03C594.34 164.03 595.528 163.707 596.614 163.063C597.734 162.418 598.633 161.468 599.311 160.212C599.99 158.923 600.329 157.328 600.329 155.428C600.329 153.528 599.99 151.95 599.311 150.694C598.667 149.405 597.785 148.438 596.665 147.793C595.579 147.148 594.391 146.826 593.102 146.826C591.812 146.826 590.608 147.148 589.488 147.793C588.402 148.438 587.52 149.405 586.841 150.694C586.163 151.95 585.823 153.528 585.823 155.428C585.823 157.328 586.163 158.923 586.841 160.212C587.52 161.468 588.402 162.418 589.488 163.063C590.574 163.707 591.762 164.03 593.051 164.03ZM610.652 168.051V142.805H615.436L615.843 147.233C616.624 145.672 617.76 144.451 619.253 143.568C620.78 142.652 622.528 142.194 624.496 142.194C627.55 142.194 629.942 143.144 631.673 145.045C633.437 146.945 634.319 149.778 634.319 153.545V168.051H628.975V154.104C628.975 149.218 626.973 146.775 622.969 146.775C620.967 146.775 619.304 147.488 617.981 148.913C616.691 150.338 616.047 152.374 616.047 155.021V168.051H610.652ZM651.58 168.051V132.422H663.134C667.308 132.422 670.735 133.151 673.416 134.61C676.13 136.069 678.132 138.139 679.422 140.82C680.745 143.467 681.407 146.622 681.407 150.287C681.407 153.918 680.745 157.073 679.422 159.754C678.132 162.401 676.13 164.454 673.416 165.913C670.735 167.338 667.308 168.051 663.134 168.051H651.58ZM656.976 163.47H662.931C666.154 163.47 668.699 162.944 670.565 161.892C672.466 160.84 673.823 159.33 674.637 157.362C675.486 155.394 675.91 153.036 675.91 150.287C675.91 147.539 675.486 145.163 674.637 143.161C673.823 141.159 672.466 139.632 670.565 138.58C668.699 137.495 666.154 136.952 662.931 136.952H656.976V163.47ZM697.913 168.661C695.436 168.661 693.23 168.118 691.296 167.033C689.396 165.913 687.903 164.369 686.817 162.401C685.731 160.433 685.188 158.142 685.188 155.53C685.188 152.883 685.714 150.559 686.766 148.557C687.852 146.555 689.345 144.994 691.245 143.874C693.179 142.754 695.419 142.194 697.963 142.194C700.441 142.194 702.595 142.754 704.428 143.874C706.26 144.96 707.685 146.419 708.703 148.251C709.721 150.083 710.23 152.102 710.23 154.308C710.23 154.647 710.213 155.021 710.179 155.428C710.179 155.801 710.162 156.225 710.128 156.7H690.481C690.651 159.143 691.449 161.01 692.874 162.299C694.333 163.555 696.012 164.182 697.913 164.182C699.44 164.182 700.712 163.843 701.73 163.164C702.782 162.452 703.562 161.502 704.071 160.314H709.466C708.788 162.689 707.431 164.674 705.395 166.269C703.393 167.864 700.899 168.661 697.913 168.661ZM697.913 146.622C696.114 146.622 694.519 147.165 693.128 148.251C691.737 149.303 690.889 150.898 690.583 153.036H704.835C704.733 151.067 704.037 149.507 702.748 148.353C701.459 147.199 699.847 146.622 697.913 146.622ZM714.768 179.248V142.805H719.603L720.163 146.724C720.977 145.537 722.097 144.485 723.522 143.568C724.947 142.652 726.78 142.194 729.019 142.194C731.462 142.194 733.617 142.771 735.483 143.925C737.349 145.078 738.808 146.656 739.86 148.658C740.946 150.66 741.489 152.934 741.489 155.479C741.489 158.024 740.946 160.297 739.86 162.299C738.808 164.267 737.349 165.828 735.483 166.982C733.617 168.101 731.445 168.661 728.968 168.661C727 168.661 725.253 168.271 723.726 167.491C722.233 166.71 721.045 165.607 720.163 164.182V179.248H714.768ZM728.052 163.979C730.359 163.979 732.26 163.198 733.753 161.637C735.246 160.043 735.992 157.973 735.992 155.428C735.992 153.765 735.653 152.289 734.974 151C734.296 149.71 733.362 148.709 732.175 147.997C730.987 147.25 729.613 146.877 728.052 146.877C725.745 146.877 723.844 147.674 722.351 149.269C720.892 150.864 720.163 152.917 720.163 155.428C720.163 157.973 720.892 160.043 722.351 161.637C723.844 163.198 725.745 163.979 728.052 163.979ZM746.264 168.051V131.404H751.659V168.051H746.264ZM769.24 168.661C766.83 168.661 764.659 168.118 762.725 167.033C760.824 165.913 759.315 164.369 758.195 162.401C757.075 160.399 756.515 158.074 756.515 155.428C756.515 152.781 757.075 150.474 758.195 148.506C759.348 146.504 760.892 144.96 762.826 143.874C764.761 142.754 766.915 142.194 769.291 142.194C771.7 142.194 773.854 142.754 775.755 143.874C777.689 144.96 779.216 146.504 780.335 148.506C781.489 150.474 782.066 152.781 782.066 155.428C782.066 158.074 781.489 160.399 780.335 162.401C779.216 164.369 777.689 165.913 775.755 167.033C773.82 168.118 771.649 168.661 769.24 168.661ZM769.24 164.03C770.529 164.03 771.717 163.707 772.803 163.063C773.922 162.418 774.821 161.468 775.5 160.212C776.179 158.923 776.518 157.328 776.518 155.428C776.518 153.528 776.179 151.95 775.5 150.694C774.855 149.405 773.973 148.438 772.853 147.793C771.768 147.148 770.58 146.826 769.291 146.826C768.001 146.826 766.797 147.148 765.677 147.793C764.591 148.438 763.709 149.405 763.03 150.694C762.351 151.95 762.012 153.528 762.012 155.428C762.012 157.328 762.351 158.923 763.03 160.212C763.709 161.468 764.591 162.418 765.677 163.063C766.763 163.707 767.95 164.03 769.24 164.03ZM787.655 179.248L793.712 165.964H792.236L782.26 142.805H788.113L795.85 161.485L803.942 142.805H809.643L793.356 179.248H787.655ZM813.018 168.051V142.805H817.803L818.261 146.368C819.075 145.078 820.144 144.061 821.467 143.314C822.825 142.567 824.386 142.194 826.15 142.194C830.154 142.194 832.937 143.772 834.497 146.928C835.414 145.469 836.635 144.315 838.162 143.467C839.723 142.618 841.403 142.194 843.201 142.194C846.357 142.194 848.834 143.144 850.632 145.045C852.431 146.945 853.33 149.778 853.33 153.545V168.051H847.935V154.104C847.935 149.218 846.068 146.775 842.336 146.775C840.436 146.775 838.875 147.488 837.653 148.913C836.465 150.338 835.872 152.374 835.872 155.021V168.051H830.476V154.104C830.476 149.218 828.593 146.775 824.827 146.775C822.96 146.775 821.417 147.488 820.195 148.913C819.007 150.338 818.414 152.374 818.414 155.021V168.051H813.018ZM870.39 168.661C867.913 168.661 865.707 168.118 863.773 167.033C861.873 165.913 860.38 164.369 859.294 162.401C858.208 160.433 857.665 158.142 857.665 155.53C857.665 152.883 858.191 150.559 859.243 148.557C860.329 146.555 861.822 144.994 863.722 143.874C865.656 142.754 867.896 142.194 870.441 142.194C872.918 142.194 875.073 142.754 876.905 143.874C878.737 144.96 880.162 146.419 881.18 148.251C882.198 150.083 882.707 152.102 882.707 154.308C882.707 154.647 882.69 155.021 882.656 155.428C882.656 155.801 882.639 156.225 882.605 156.7H862.959C863.128 159.143 863.926 161.01 865.351 162.299C866.81 163.555 868.49 164.182 870.39 164.182C871.917 164.182 873.189 163.843 874.207 163.164C875.259 162.452 876.04 161.502 876.549 160.314H881.944C881.265 162.689 879.908 164.674 877.872 166.269C875.87 167.864 873.376 168.661 870.39 168.661ZM870.39 146.622C868.592 146.622 866.997 147.165 865.605 148.251C864.214 149.303 863.366 150.898 863.061 153.036H877.312C877.21 151.067 876.515 149.507 875.225 148.353C873.936 147.199 872.324 146.622 870.39 146.622ZM887.245 168.051V142.805H892.029L892.437 147.233C893.217 145.672 894.354 144.451 895.847 143.568C897.374 142.652 899.121 142.194 901.089 142.194C904.143 142.194 906.535 143.144 908.266 145.045C910.03 146.945 910.913 149.778 910.913 153.545V168.051H905.568V154.104C905.568 149.218 903.566 146.775 899.562 146.775C897.56 146.775 895.898 147.488 894.574 148.913C893.285 150.338 892.64 152.374 892.64 155.021V168.051H887.245ZM926.793 168.051C924.316 168.051 922.348 167.457 920.889 166.269C919.43 165.048 918.701 162.893 918.701 159.805V147.335H914.374V142.805H918.701L919.362 136.392H924.096V142.805H931.221V147.335H924.096V159.805C924.096 161.196 924.384 162.163 924.961 162.706C925.572 163.215 926.607 163.47 928.066 163.47H930.967V168.051H926.793Z" fill="#470D69"/>
<rect x="241.758" y="78.9448" width="717.419" height="144.212" rx="25.4491" stroke="#A31BCB" stroke-opacity="0.2" stroke-width="8.48304" shape-rendering="crispEdges"/>
</g>
</g>
</g>
<defs>
<filter id="filter0_d_3011_13952" x="235.396" y="72.5824" width="730.143" height="156.936" filterUnits="userSpaceOnUse" color-interpolation-filters="sRGB">
<feFlood flood-opacity="0" result="BackgroundImageFix"/>
<feColorMatrix in="SourceAlpha" type="matrix" values="0 0 0 0 0 0 0 0 0 0 0 0 0 0 0 0 0 0 127 0" result="hardAlpha"/>
<feOffset/>
<feGaussianBlur stdDeviation="1.06038"/>
<feComposite in2="hardAlpha" operator="out"/>
<feColorMatrix type="matrix" values="0 0 0 0 0.639216 0 0 0 0 0.105882 0 0 0 0 0.796078 0 0 0 0.5 0"/>
<feBlend mode="normal" in2="BackgroundImageFix" result="effect1_dropShadow_3011_13952"/>
<feBlend mode="normal" in="SourceGraphic" in2="effect1_dropShadow_3011_13952" result="shape"/>
</filter>
<linearGradient id="paint0_linear_3011_13952" x1="273.347" y1="104.394" x2="332.281" y2="197.707" gradientUnits="userSpaceOnUse">
<stop stop-color="#5F5F5F"/>
<stop offset="1" stop-color="#363636"/>
</linearGradient>
<clipPath id="clip0_3011_13952">
<rect y="0.919922" width="1200" height="300.48" rx="24" fill="white"/>
</clipPath>
<clipPath id="clip1_3011_13952">
<rect width="1200" height="300" fill="white" transform="translate(0 0.919922)"/>
</clipPath>
</defs>
</svg>
