<svg width="1200" height="301" viewBox="0 0 1200 301" fill="none" xmlns="http://www.w3.org/2000/svg">
<g clip-path="url(#clip0_3011_13792)">
<rect width="1200" height="300" fill="white"/>
<rect width="1200" height="300" fill="#420B57"/>
<path opacity="0.11" fill-rule="evenodd" clip-rule="evenodd" d="M885.845 -191.525C890.764 -195.957 900.177 -197.702 911.037 -196.194L1165.57 -160.851C1177.89 -159.14 1190.17 -153.513 1197.43 -146.246L1243.99 -99.691L1316.63 -27.0488L1363.18 19.5063C1370.45 26.7735 1371.51 34.4797 1365.93 39.5095L1250.63 143.396C1245.71 147.828 1236.29 149.573 1225.43 148.065L970.907 112.722C958.583 111.011 946.307 105.384 939.039 98.117L892.484 51.5619L819.842 -21.0803L773.287 -67.6354C766.02 -74.9026 764.964 -82.6088 770.546 -87.6386L885.845 -191.525Z" fill="white"/>
<path fill-rule="evenodd" clip-rule="evenodd" d="M-80.2959 157.134C-75.3765 152.702 -65.9633 150.957 -55.1033 152.465L199.425 187.808C211.748 189.519 224.025 195.146 231.292 202.413L277.847 248.968L350.489 321.61L397.044 368.165C404.312 375.433 405.367 383.139 399.785 388.169L284.487 492.055C279.567 496.488 270.154 498.232 259.294 496.724L4.76602 461.381C-7.55724 459.67 -19.834 454.043 -27.1013 446.776L-73.6563 400.221L-146.299 327.579L-192.854 281.024C-200.121 273.757 -201.177 266.05 -195.594 261.021L-80.2959 157.134Z" fill="#A31BCB"/>
<g filter="url(#filter0_d_3011_13792)">
<rect x="393" y="82.2666" width="413.936" height="135.729" rx="21.2076" fill="white" shape-rendering="crispEdges"/>
<rect x="414.208" y="103.474" width="93.3134" height="93.3134" rx="16.9661" fill="url(#paint0_linear_3011_13792)"/>
<circle opacity="0.3" cx="8.48304" cy="8.48304" r="8.48304" transform="matrix(-1 0 0 1 469.347 131.044)" fill="white" stroke="white" stroke-width="3.18114"/>
<path d="M446.019 160.596C446.019 158.771 447.166 157.144 448.884 156.53C456.631 153.763 465.097 153.763 472.844 156.53C474.563 157.144 475.71 158.771 475.71 160.596V163.386C475.71 165.904 473.479 167.839 470.986 167.482L468.962 167.193C463.591 166.426 458.138 166.426 452.766 167.193L450.742 167.482C448.249 167.839 446.019 165.904 446.019 163.386V160.596Z" fill="white" stroke="white" stroke-width="3.18114"/>
<path d="M545.678 167.742C543.133 167.742 540.825 167.25 538.755 166.266C536.72 165.248 535.091 163.704 533.869 161.634C532.682 159.564 532.088 156.934 532.088 153.745V131.502H537.483V153.796C537.483 156.917 538.23 159.208 539.723 160.667C541.216 162.126 543.235 162.855 545.779 162.855C548.29 162.855 550.292 162.126 551.785 160.667C553.278 159.208 554.025 156.917 554.025 153.796V131.502H559.42V153.745C559.42 156.934 558.792 159.564 557.537 161.634C556.315 163.704 554.653 165.248 552.549 166.266C550.479 167.25 548.189 167.742 545.678 167.742ZM575.155 167.742C571.965 167.742 569.335 166.961 567.265 165.4C565.195 163.839 564.008 161.77 563.702 159.191H569.149C569.42 160.344 570.065 161.345 571.083 162.194C572.101 163.008 573.441 163.415 575.104 163.415C576.732 163.415 577.92 163.076 578.667 162.397C579.413 161.719 579.786 160.938 579.786 160.056C579.786 158.767 579.26 157.901 578.208 157.46C577.191 156.985 575.765 156.561 573.933 156.188C572.508 155.882 571.083 155.475 569.658 154.966C568.266 154.457 567.096 153.745 566.146 152.828C565.229 151.878 564.771 150.606 564.771 149.011C564.771 146.806 565.62 144.973 567.316 143.514C569.013 142.021 571.388 141.275 574.442 141.275C577.258 141.275 579.532 141.953 581.262 143.31C583.027 144.668 584.062 146.585 584.367 149.062H579.176C579.006 147.976 578.497 147.128 577.649 146.517C576.834 145.906 575.731 145.601 574.34 145.601C572.983 145.601 571.931 145.889 571.185 146.466C570.438 147.009 570.065 147.722 570.065 148.604C570.065 149.486 570.574 150.182 571.592 150.691C572.644 151.2 574.018 151.658 575.714 152.065C577.411 152.438 578.972 152.879 580.397 153.388C581.856 153.863 583.027 154.576 583.909 155.526C584.791 156.476 585.232 157.867 585.232 159.7C585.266 162.007 584.367 163.924 582.535 165.451C580.736 166.978 578.276 167.742 575.155 167.742ZM601.87 167.742C599.393 167.742 597.188 167.199 595.254 166.113C593.353 164.993 591.86 163.449 590.775 161.481C589.689 159.513 589.146 157.223 589.146 154.61C589.146 151.963 589.672 149.639 590.724 147.637C591.809 145.635 593.302 144.074 595.203 142.954C597.137 141.834 599.376 141.275 601.921 141.275C604.398 141.275 606.553 141.834 608.385 142.954C610.218 144.04 611.643 145.499 612.661 147.331C613.679 149.164 614.188 151.183 614.188 153.388C614.188 153.728 614.171 154.101 614.137 154.508C614.137 154.881 614.12 155.306 614.086 155.781H594.439C594.609 158.224 595.406 160.09 596.831 161.379C598.29 162.635 599.97 163.263 601.87 163.263C603.397 163.263 604.67 162.923 605.688 162.245C606.74 161.532 607.52 160.582 608.029 159.394H613.424C612.746 161.77 611.388 163.755 609.352 165.349C607.35 166.944 604.856 167.742 601.87 167.742ZM601.87 145.703C600.072 145.703 598.477 146.246 597.086 147.331C595.695 148.383 594.846 149.978 594.541 152.116H608.792C608.691 150.148 607.995 148.587 606.706 147.433C605.416 146.28 603.804 145.703 601.87 145.703ZM618.725 167.131V141.885H623.561L624.019 146.67C624.901 145.007 626.123 143.701 627.683 142.751C629.278 141.767 631.195 141.275 633.435 141.275V146.924H631.959C630.466 146.924 629.126 147.179 627.938 147.688C626.784 148.163 625.851 148.994 625.138 150.182C624.46 151.335 624.121 152.947 624.121 155.017V167.131H618.725ZM664.441 167.742C661.081 167.742 658.146 166.978 655.635 165.451C653.124 163.924 651.173 161.787 649.782 159.038C648.391 156.29 647.695 153.083 647.695 149.418C647.695 145.788 648.408 142.581 649.833 139.799C651.258 137.016 653.277 134.844 655.89 133.284C658.536 131.689 661.658 130.891 665.255 130.891C669.327 130.891 672.72 131.875 675.435 133.843C678.149 135.811 679.914 138.526 680.728 141.987H674.62C674.077 140.087 673.008 138.594 671.414 137.508C669.819 136.422 667.766 135.879 665.255 135.879C661.522 135.879 658.587 137.084 656.449 139.493C654.312 141.902 653.243 145.228 653.243 149.469C653.243 153.711 654.295 157.019 656.399 159.394C658.502 161.77 661.302 162.957 664.797 162.957C668.326 162.957 670.972 161.956 672.737 159.954C674.535 157.952 675.587 155.289 675.893 151.963H666.222V147.79H681.339V167.131H676.402L675.944 161.888C674.756 163.755 673.263 165.197 671.464 166.215C669.666 167.233 667.325 167.742 664.441 167.742ZM695.937 167.742C692.883 167.742 690.474 166.792 688.71 164.891C686.979 162.991 686.114 160.158 686.114 156.391V141.885H691.509V155.831C691.509 160.718 693.511 163.161 697.515 163.161C699.517 163.161 701.163 162.448 702.452 161.023C703.741 159.598 704.386 157.562 704.386 154.915V141.885H709.781V167.131H704.997L704.59 162.703C703.809 164.264 702.656 165.502 701.129 166.418C699.636 167.301 697.905 167.742 695.937 167.742ZM718.638 137.101C717.62 137.101 716.772 136.796 716.093 136.185C715.449 135.54 715.126 134.743 715.126 133.793C715.126 132.842 715.449 132.062 716.093 131.451C716.772 130.807 717.62 130.484 718.638 130.484C719.656 130.484 720.488 130.807 721.132 131.451C721.811 132.062 722.15 132.842 722.15 133.793C722.15 134.743 721.811 135.54 721.132 136.185C720.488 136.796 719.656 137.101 718.638 137.101ZM715.941 167.131V141.885H721.336V167.131H715.941ZM738.901 167.742C736.458 167.742 734.303 167.165 732.437 166.011C730.57 164.857 729.111 163.28 728.059 161.278C727.007 159.276 726.481 157.002 726.481 154.457C726.481 151.912 727.007 149.656 728.059 147.688C729.111 145.686 730.57 144.125 732.437 143.005C734.337 141.851 736.508 141.275 738.952 141.275C740.954 141.275 742.701 141.665 744.194 142.445C745.721 143.226 746.909 144.328 747.757 145.754V130.484H753.152V167.131H748.317L747.757 163.212C746.943 164.399 745.823 165.451 744.398 166.367C742.972 167.284 741.14 167.742 738.901 167.742ZM739.868 163.059C742.175 163.059 744.058 162.262 745.517 160.667C747.01 159.072 747.757 157.019 747.757 154.508C747.757 151.963 747.01 149.91 745.517 148.349C744.058 146.755 742.175 145.957 739.868 145.957C737.56 145.957 735.66 146.755 734.167 148.349C732.674 149.91 731.928 151.963 731.928 154.508C731.928 156.171 732.267 157.647 732.946 158.936C733.624 160.226 734.557 161.244 735.745 161.99C736.966 162.703 738.341 163.059 739.868 163.059ZM770.703 167.742C768.226 167.742 766.02 167.199 764.086 166.113C762.186 164.993 760.693 163.449 759.607 161.481C758.521 159.513 757.978 157.223 757.978 154.61C757.978 151.963 758.504 149.639 759.556 147.637C760.642 145.635 762.135 144.074 764.035 142.954C765.969 141.834 768.209 141.275 770.753 141.275C773.231 141.275 775.385 141.834 777.218 142.954C779.05 144.04 780.475 145.499 781.493 147.331C782.511 149.164 783.02 151.183 783.02 153.388C783.02 153.728 783.003 154.101 782.969 154.508C782.969 154.881 782.952 155.306 782.918 155.781H763.271C763.441 158.224 764.239 160.09 765.664 161.379C767.123 162.635 768.802 163.263 770.703 163.263C772.23 163.263 773.502 162.923 774.52 162.245C775.572 161.532 776.352 160.582 776.861 159.394H782.256C781.578 161.77 780.221 163.755 778.185 165.349C776.183 166.944 773.689 167.742 770.703 167.742ZM770.703 145.703C768.904 145.703 767.309 146.246 765.918 147.331C764.527 148.383 763.679 149.978 763.373 152.116H777.625C777.523 150.148 776.827 148.587 775.538 147.433C774.248 146.28 772.637 145.703 770.703 145.703Z" fill="#470D69"/>
<rect x="388.758" y="78.0251" width="422.419" height="144.212" rx="25.4491" stroke="#A31BCB" stroke-opacity="0.2" stroke-width="8.48304" shape-rendering="crispEdges"/>
</g>
</g>
<defs>
<filter id="filter0_d_3011_13792" x="382.396" y="71.6629" width="435.143" height="156.936" filterUnits="userSpaceOnUse" color-interpolation-filters="sRGB">
<feFlood flood-opacity="0" result="BackgroundImageFix"/>
<feColorMatrix in="SourceAlpha" type="matrix" values="0 0 0 0 0 0 0 0 0 0 0 0 0 0 0 0 0 0 127 0" result="hardAlpha"/>
<feOffset/>
<feGaussianBlur stdDeviation="1.06038"/>
<feComposite in2="hardAlpha" operator="out"/>
<feColorMatrix type="matrix" values="0 0 0 0 0.639216 0 0 0 0 0.105882 0 0 0 0 0.796078 0 0 0 0.5 0"/>
<feBlend mode="normal" in2="BackgroundImageFix" result="effect1_dropShadow_3011_13792"/>
<feBlend mode="normal" in="SourceGraphic" in2="effect1_dropShadow_3011_13792" result="shape"/>
</filter>
<linearGradient id="paint0_linear_3011_13792" x1="420.347" y1="103.474" x2="479.281" y2="196.788" gradientUnits="userSpaceOnUse">
<stop stop-color="#5F5F5F"/>
<stop offset="1" stop-color="#363636"/>
</linearGradient>
<clipPath id="clip0_3011_13792">
<rect width="1200" height="300" fill="white"/>
</clipPath>
</defs>
</svg>
